<svg width="0" height="0" style="position:absolute"><symbol viewBox="0 0 27.791 26.425" id="icon--kosik_bily" xmlns="http://www.w3.org/2000/svg"><defs><clipPath id="aa"><path data-name="Rectangle 42" fill="none" d="M0 0h27.791v26.425H0z"/></clipPath><clipPath id="ab"><path data-name="Rectangle 40" fill="none" d="M0 0h7.756v12.108H0z"/></clipPath></defs><g data-name="Group 109"><g data-name="Group 108" clip-path="url(#aa)"><g data-name="Group 107" clip-path="url(#aa)"><path data-name="Path 149" d="M20.028 3.875a.977.977 0 00-1.367-.2L17.294 4.7V.946a.977.977 0 00-1.953 0v3.76l-1.367-1.025A.977.977 0 0012.8 5.244L15.146 7a1.952 1.952 0 002.343 0l2.344-1.758a.977.977 0 00.2-1.367" fill="#fff"/><g data-name="Group 106"><g data-name="Group 105" opacity=".25"><g data-name="Group 104" clip-path="url(#ab)" transform="translate(6.434 5.94)"><path data-name="Path 150" d="M3.272 0H0l3.013 12.108h4.743L5.466 1.76a2.249 2.249 0 00-2.2-1.763" fill="#402a00"/></g></g></g><path data-name="Path 151" d="M10.269 19.92a3.266 3.266 0 00-3.248 3.254 3.253 3.253 0 103.249-3.256m.008 4.427A1.176 1.176 0 019.1 23.174a1.172 1.172 0 111.173 1.173" fill="#fff"/><path data-name="Path 152" d="M27.126 6.043a3.076 3.076 0 00-2.441-1.189h-1.621a1.043 1.043 0 100 2.086h1.613a1.031 1.031 0 01.805.392 1.018 1.018 0 01.19.88l-2.108 8.656a1.028 1.028 0 01-1 .786H11.093a1.026 1.026 0 01-1-.787l-.858-3.526h11.426a1.042 1.042 0 000-2.084H8.73L7.7 6.94h2.379a1.043 1.043 0 100-2.086H7.2l-.6-2.467A3.093 3.093 0 003.58 0H1.042a1.042 1.042 0 100 2.083H3.57a1.031 1.031 0 011 .79l.478 1.981h-.022l3.043 12.5a3.1 3.1 0 003.022 2.379h11.483a3.1 3.1 0 003.021-2.378L27.7 8.706a3.119 3.119 0 00-.576-2.663" fill="#fff"/><path data-name="Path 153" d="M23.38 19.92a3.264 3.264 0 00-3.253 3.254 3.254 3.254 0 103.253-3.254m0 4.427a1.172 1.172 0 111.171-1.173 1.177 1.177 0 01-1.171 1.173" fill="#fff"/></g></g></g></symbol><symbol viewBox="0 0 314.72 104.453" id="icon--logo" xmlns="http://www.w3.org/2000/svg"><defs><clipPath id="ba"><path data-name="Rectangle 83" fill="#003250" d="M0 0h314.72v104.453H0z"/></clipPath></defs><g data-name="Group 210" clip-path="url(#ba)"><path data-name="Path 1345" d="M314.179 56.393H124.813a.541.541 0 010-1.083h189.366a.541.541 0 010 1.083" fill="#ff5104"/><path data-name="Path 1346" d="M125.004 40.799a.541.541 0 01-.6-.619v-1.469a.541.541 0 01.6-.621h12.878l-10.812-5.073c-2.342-1.1-2.8-2.365-2.8-4.017 0-2.044 1.492-3.856 4.452-3.856h16.894a.541.541 0 01.619.6v1.469a.548.548 0 01-.619.619h-12.44l10.788 5.073c2.365 1.1 2.8 2.364 2.8 4.039 0 2.043-1.492 3.856-4.43 3.856z" fill="#003250"/><path data-name="Path 1347" d="M148.308 40.799a.541.541 0 01-.6-.619V25.742a.534.534 0 01.6-.6h7.9a.541.541 0 01.621.6V40.18a.548.548 0 01-.621.619z" fill="#003250"/><path data-name="Path 1348" d="M167.749 40.799a2.059 2.059 0 01-1.538-.619l-7.85-6.817a1.236 1.236 0 01-.436-1.1v-.666c0-.527.092-.711.46-.917l9.18-4.935a3.975 3.975 0 011.974-.6h4.637c.321 0 .482.183.482.39a.434.434 0 01-.276.391l-9.112 4.891 10.65 8.953a.744.744 0 01.321.574c0 .252-.206.459-.665.459z" fill="#003250"/><path data-name="Path 1349" d="M183.627 40.799c-5.647 0-7.828-2.8-7.828-7.207v-7.85a.525.525 0 01.6-.6h8.584a.534.534 0 01.6.6v7.85c0 2.8 1.147 4.5 3.741 4.5h3.948c2.617 0 3.834-1.7 3.834-4.5v-7.85a.541.541 0 01.619-.6h2.755a.541.541 0 01.619.6v7.85c0 4.016-2.479 7.207-7.828 7.207z" fill="#003250"/><path data-name="Path 1350" d="M209.241 40.799c-.3 0-.436-.092-.436-.3V27.83h-6.233c-.3 0-.436-.069-.436-.252v-2.135c0-.206.137-.3.436-.3h21.579c.3 0 .436.092.436.3v2.135c0 .183-.138.252-.436.252h-6.256v12.671c0 .206-.137.3-.413.3z" fill="#003250"/><path data-name="Path 1351" d="M244.932 40.799a2.012 2.012 0 01-1.516-.619l-6.908-7.093a1.033 1.033 0 01-.391-.849v-.711a.524.524 0 01.6-.6h3.144c1.447 0 2.181-.574 2.181-1.56s-.734-1.538-2.181-1.538h-5.121V40.18a.548.548 0 01-.619.619h-7.873a.548.548 0 01-.619-.619V25.742a.541.541 0 01.619-.6h20.062c2.777 0 4.866 1.63 4.866 3.994 0 2.594-2.02 4.063-4.477 4.43l6.335 6.5a.488.488 0 01.161.367.375.375 0 01-.413.367z" fill="#003250"/><path data-name="Path 1352" d="M259.971 40.799a.541.541 0 01-.6-.619v-5.463l-8.239-8.791a.594.594 0 01-.208-.413.417.417 0 01.46-.367h9.251a1.358 1.358 0 011.032.459l6.105 6.7 6.358-6.726a1.16 1.16 0 011.01-.435h1.332c.3 0 .436.161.436.344a.485.485 0 01-.115.3l-8.309 8.791v5.6a.548.548 0 01-.621.619z" fill="#003250"/><path data-name="Path 1353" d="M272.414 40.821a.7.7 0 01-.778-.778v-2.49a.69.69 0 01.778-.761h2.75a.683.683 0 01.778.761v2.49a.688.688 0 01-.778.778z" fill="#ff5104"/><path data-name="Path 1354" d="M283.676 40.821a5.6 5.6 0 01-5.672-5.9 5.546 5.546 0 015.672-5.9h11.777a.408.408 0 01.467.45v1.107a.412.412 0 01-.467.467h-7.73c-1.5 0-2.04.57-2.04 2.7v1.885c0 2.352.623 3.148 2.04 3.148h7.8a.407.407 0 01.45.467v1.107a.407.407 0 01-.45.467z" fill="#ff5104"/><path data-name="Path 1355" d="M297.53 40.821a.408.408 0 01-.45-.467v-1.106a.909.909 0 01.381-.83l8.474-7.367h-8.042a.412.412 0 01-.467-.467v-1.107a.408.408 0 01.467-.45h16.152a.4.4 0 01.45.45v1.107a.918.918 0 01-.381.847l-7.851 7.35h7.989a.413.413 0 01.468.467v1.107a.413.413 0 01-.468.467z" fill="#ff5104"/><path data-name="Path 1356" d="M127.723 79.937l-3.453-8.929h2.169l2.476 6.868 2.463-6.868h2.17l-3.441 8.929z" fill="#003250"/><path data-name="Path 1357" d="M135.093 77.232a3.913 3.913 0 002.837 1.2c1.044 0 1.553-.5 1.553-1 0-.67-.777-.9-1.807-1.138-1.46-.335-3.333-.736-3.333-2.731 0-1.486 1.285-2.69 3.386-2.69a4.968 4.968 0 013.48 1.245l-1.059 1.393a3.81 3.81 0 00-2.557-.978c-.857 0-1.311.375-1.311.91 0 .6.749.79 1.78 1.031 1.472.335 3.346.777 3.346 2.758 0 1.633-1.164 2.864-3.574 2.864a5.14 5.14 0 01-3.788-1.419zm1.886-6.975l-1.271-1.928h1.042l.991 1.205.936-1.205h1.045l-1.219 1.928z" fill="#003250"/><path data-name="Path 1358" d="M143.169 79.937v-8.929h6.317v1.633h-4.417v1.942h4.324v1.633h-4.324v2.074h4.418v1.646z" fill="#003250"/><path data-name="Path 1359" d="M155.343 79.937v-8.929h4.177a2.868 2.868 0 110 5.729h-2.276v3.2zm3.922-7.3h-2.021V75.1h2.022a1.234 1.234 0 100-2.463" fill="#003250"/><path data-name="Path 1360" d="M169.217 79.937l-1.753-3.2h-1.392v3.2h-1.9v-8.929h4.176a2.78 2.78 0 013 2.879 2.559 2.559 0 01-1.954 2.65l2.008 3.4zm-1.152-7.3h-1.993V75.1h1.993a1.236 1.236 0 100-2.463" fill="#003250"/><path data-name="Path 1361" d="M177.48 70.86a4.619 4.619 0 11-4.658 4.619 4.487 4.487 0 014.658-4.619m0 1.687a2.94 2.94 0 102.719 2.932 2.7 2.7 0 00-2.719-2.932" fill="#003250"/><path data-name="Path 1362" d="M190.365 79.937l-3.453-8.929h2.169l2.476 6.868 2.463-6.868h2.17l-3.439 8.929z" fill="#003250"/><path data-name="Path 1363" d="M203.115 79.936l-.563-1.539h-3.989L198 79.936h-2.087l3.452-8.928h2.383l3.441 8.928zm-2.557-7.282l-1.486 4.1h2.958zm.549-2.4h-1.191l1.793-1.928h1.566z" fill="#003250"/><path data-name="Path 1364" d="M206.829 77.232a3.913 3.913 0 002.837 1.2c1.044 0 1.553-.5 1.553-1 0-.67-.777-.9-1.807-1.138-1.46-.335-3.333-.736-3.333-2.731 0-1.486 1.285-2.69 3.386-2.69a4.968 4.968 0 013.48 1.245l-1.057 1.393a3.811 3.811 0 00-2.557-.978c-.857 0-1.311.375-1.311.91 0 .6.749.79 1.78 1.031 1.472.335 3.346.777 3.346 2.758 0 1.633-1.164 2.864-3.574 2.864a5.14 5.14 0 01-3.788-1.419zm1.886-6.975l-1.271-1.928h1.044l.991 1.205.936-1.204h1.045l-1.219 1.928z" fill="#003250"/><path data-name="Path 1365" d="M219.232 77.233a3.91 3.91 0 002.837 1.205c1.045 0 1.554-.5 1.554-1 0-.669-.777-.9-1.808-1.137-1.459-.335-3.333-.737-3.333-2.731 0-1.486 1.285-2.691 3.386-2.691a4.966 4.966 0 013.48 1.245l-1.057 1.393a3.807 3.807 0 00-2.557-.977c-.856 0-1.311.374-1.311.91 0 .6.749.789 1.78 1.031 1.472.335 3.346.776 3.346 2.757 0 1.633-1.164 2.865-3.574 2.865a5.142 5.142 0 01-3.788-1.42z" fill="#003250"/><path data-name="Path 1366" d="M232.608 79.937l-2.7-3.574-.7.83v2.743h-1.9v-8.928h1.9v3.989l3.16-3.989h2.343l-3.547 4.19 3.788 4.739z" fill="#003250"/><path data-name="Path 1367" d="M236.296 71.011h1.926v5.3a2.062 2.062 0 104.124 0v-5.3h1.926v5.354c0 2.222-1.271 3.735-3.975 3.735-2.731 0-4-1.526-4-3.721zm4.551-.75h-1.191l1.794-1.928h1.566z" fill="#003250"/><path data-name="Path 1368" d="M248.576 79.937v-7.255h-2.611v-1.674h7.122v1.674h-2.6v7.255z" fill="#003250"/><path data-name="Path 1369" d="M259.825 79.937l-1.753-3.2h-1.392v3.2h-1.9v-8.929h4.176a2.78 2.78 0 013 2.879 2.559 2.559 0 01-1.954 2.65l2.008 3.4zm-1.152-7.3h-1.993V75.1h1.993a1.236 1.236 0 100-2.463" fill="#003250"/><path data-name="Path 1370" d="M264.69 77.916a1.084 1.084 0 11-1.085 1.085 1.1 1.1 0 011.085-1.085" fill="#003250"/><path data-name="Path 1371" d="M268.587 77.916a1.084 1.084 0 11-1.085 1.085 1.1 1.1 0 011.085-1.085" fill="#003250"/><path data-name="Path 1372" d="M272.484 77.916a1.084 1.084 0 11-1.085 1.085 1.1 1.1 0 011.085-1.085" fill="#003250"/><path data-name="Path 1373" d="M52.531 104.453a33.3 33.3 0 01-23.61-9.765L10.573 76.341A34.306 34.306 0 01.32 53.434a33.2 33.2 0 019.761-24.812l18.84-18.841a33.4 33.4 0 0147.227 0l18.347 18.347a34.3 34.3 0 0110.253 22.908 33.2 33.2 0 01-9.76 24.811L76.147 94.688a33.294 33.294 0 01-23.616 9.765m0-100.262a29.125 29.125 0 00-20.659 8.543L13.465 31.145a30 30 0 00-8.969 20.041 29.042 29.042 0 008.535 21.707l18.844 18.84a29.217 29.217 0 0041.318 0l18.838-18.84a29.217 29.217 0 000-41.318L73.193 12.734a29.127 29.127 0 00-20.662-8.543" fill="rgba(255,81,4,0.2)"/><path data-name="Path 1374" d="M104.416 50.951l-2.15-.807a14.877 14.877 0 00-3.879-.877L98 47.91a4.385 4.385 0 00-2.662-2.854l-9.89-3.712a6.123 6.123 0 00-4.008-.1l-2.5.795a6.13 6.13 0 01-4.008-.1l-5.447-2.045a6.8 6.8 0 00-6.571 1l-2.3 1.79a2.177 2.177 0 00-.752 2.325c.191.659 1.325 1.431 1.325 1.431.061 1.957.107 4.586-1.008 6.521-1.056 1.83-5.024 4.563-8.856 6.8-3.408 1.987-7.359 1.205-11.425 0l-4.006-1.275c-.974-1.855-5.456-7.941 1.5-16.958l16.753-18.166s-.353-.622-.79-1.332l3.155.9a1.383 1.383 0 001.56-.564 1.35 1.35 0 00-.77-2.016l-2.773-.794A4.542 4.542 0 0055 18.81a.6.6 0 00.036-.051l2.8-6a14.33 14.33 0 001.2 2.113s4.1 1.6 5.412 1c1.14-.518 1.467-4.423 1.467-4.423-2.453-1.126-2.519-1.153-4.126-1.9-2.294-1.063-4.207 1.671-4.207 1.671-.007.016-.009.036-.015.051a.405.405 0 00-.038.051l-2.712 5.814-.044-.069a5.377 5.377 0 01-.748-3.756l.253-1.493c-1.433-.537-4.057-.172-6.622.617a6 6 0 012.366 2.21l-7.508.075a4.442 4.442 0 00-1.79 1.78c-.074.2.089.477.394.8l4.276 4.569-.715.375c-3.219-.182-9.01-.137-11.51 2.245l-.03.029-9.159 8.779 16.87-3.057a4.941 4.941 0 01-2.823 1.7L23.28 34.608a21.732 21.732 0 00-6.233 2.145l-3.1 1.628a1.122 1.122 0 00.122 2.043l1.472.561 2.624.984a7.441 7.441 0 012.91 2.675 13.654 13.654 0 106.225 11.86 10.761 10.761 0 01-.371 8.253 19.234 19.234 0 01-1.409 2.412l31.9 7.687.518.99a10.763 10.763 0 005.756 5.09l2.131-.837 1.858.792a13.609 13.609 0 1024.88-6.662l-.012-.017 1.43-.732a.269.269 0 00.146-.239v-.79l1.778-.326c0-1.028.394-1.028.394-2.057l-2.172-.161v-.827a.266.266 0 00-.2-.259 76.402 76.402 0 00-2.555-.67 39.236 39.236 0 00-6.728-.9.655.655 0 00.119-.307.671.671 0 00-.607-.731l-.106-.01.058-.625.106.01a.672.672 0 00.125-1.338l-.107-.01.067-.71.106.01a.672.672 0 00.731-.607l.039-.42 6.48-1.124 4.631 5.153a4.984 4.984 0 011.246 2.764l.522 4.518 1.7.973-.172-6.949a.858.858 0 01.961-.874l1.233.147.626-1.094-.134-.1a30.728 30.728 0 01-3.916-3.658c2.21-.786 3.268-2.508 2.627-3.919l-1.023-2.281a5.155 5.155 0 00-4.054-3l-21.514-2.734 23.06.732a13.024 13.024 0 014.163.824l2.2.825a.933.933 0 001.243-.7.968.968 0 00-.635-1.068m-89.742.6l1.567-2.963h.012a7.937 7.937 0 015.185 5.92l-6.331-1.903a.733.733 0 01-.436-1.046m-.131-3.347l-3.72 5.366a.733.733 0 01-1.13.094l-2.342-2.413a7.962 7.962 0 017.193-3.047m-8.109 4.56h.039l3.956 5.19a.733.733 0 01-.261 1.1l-3.084 1.516a7.937 7.937 0 01-.651-7.8m4.426 10.773a7.919 7.919 0 01-2.688-1.679l6.285-2.183a.735.735 0 01.968.592l.487 3.446a7.913 7.913 0 01-5.052-.172m10.24-4.653a7.91 7.91 0 01-3.6 4.161l-.138-6.679a.733.733 0 01.861-.738l3.38.59a7.938 7.938 0 01-.5 2.665M17.6 39.469a.84.84 0 01.247-.2l2.409-1.265a16.647 16.647 0 012.682-1.116.4.4 0 01.49.26c1.053 3.526-1.607 3.827-5.827 2.319m47.152 24.5zm8.854 19.452L77 84.869l-2.25 1.107a7.988 7.988 0 01-1.146-2.555m4.921 5.528a7.919 7.919 0 01-2.685-1.68l3.76-1.309a4.712 4.712 0 003.509-.156l.469 3.316a7.905 7.905 0 01-5.052-.172m10.24-4.65a7.917 7.917 0 01-3.6 4.162l-.089-4.32c.077-.115.151-.233.219-.357a4.7 4.7 0 00.561-2.712l.031-.029 3.38.59a7.938 7.938 0 01-.5 2.665m.338-4.39l-4.2-1.263a4.543 4.543 0 00-.319-.354l3.063-1.568a8.016 8.016 0 011.453 3.186m-7.687-16.739a.653.653 0 00.314.124l.106.01-.066.71-.107-.01a.672.672 0 00-.124 1.338l.106.01-.059.618-.106-.01a.673.673 0 00-.732.607.662.662 0 00.232.557 16.042 16.042 0 00-5.111.968 6.6 6.6 0 00-3.39-1.672 5.552 5.552 0 00-3.715 1.44l-1.021-.661a11.561 11.561 0 015.026-2.529z" fill="#ff5104"/></g></symbol></svg>