<svg xmlns="http://www.w3.org/2000/svg" xmlns:xlink="http://www.w3.org/1999/xlink" width="636.3" height="413.782" viewBox="0 0 636.3 413.782">
  <defs>
    <clipPath id="clip-path">
      <rect id="Rectangle_237" data-name="Rectangle 237" width="479.783" height="360.38" fill="none"/>
    </clipPath>
    <clipPath id="clip-path-2">
      <path id="Path_1504" data-name="Path 1504" d="M28.513,186.443c-.274.918,4.791,5.093,5.9,5.923s1.522,5.511,1.859,5.96a12.275,12.275,0,0,0,8.1,3.249c4.42,0,11.657-2.7,11.314-3.387s-3.781-7.65-5.06-10.56c0,0-14.714-1.417-20.14-1.417-1.184,0-1.927.068-1.976.232" transform="translate(-28.502 -186.211)" fill="none"/>
    </clipPath>
    <linearGradient id="linear-gradient" x1="-0.503" y1="13.283" x2="-0.484" y2="13.283" gradientUnits="objectBoundingBox">
      <stop offset="0" stop-color="#f9cec5"/>
      <stop offset="1" stop-color="#f2dad4"/>
    </linearGradient>
    <clipPath id="clip-path-4">
      <path id="Path_1519" data-name="Path 1519" d="M743.591,318.9a22.286,22.286,0,1,0,10.233-2.5,22.3,22.3,0,0,0-10.233,2.5" transform="translate(-731.539 -316.395)" fill="none"/>
    </clipPath>
    <clipPath id="clip-path-6">
      <path id="Path_1525" data-name="Path 1525" d="M347.333,524.042a22.285,22.285,0,1,0,10.233-2.5,22.3,22.3,0,0,0-10.233,2.5" transform="translate(-335.281 -521.541)" fill="none"/>
    </clipPath>
  </defs>
  <g id="Group_562" data-name="Group 562" transform="translate(-5808.6 -292.218)">
    <g id="Group_561" data-name="Group 561" transform="translate(5165 -24.782)">
      <path id="Path_1542" data-name="Path 1542" d="M-198.8,0h59.85V-45.5h28.7V-97.3h-28.7V-252H-205.8L-316.4-93.8v48.3h117.6Zm-54.6-97.3,58.8-88.9v88.9Zm155.05-33.95C-98.35-55.65-72.8-1.05,0-1.05s98.35-54.6,98.35-130.2c0-74.9-25.55-129.5-98.35-129.5S-98.35-206.15-98.35-131.25Zm137.9,0c0,40.6-4.2,74.2-39.55,74.2s-39.55-33.6-39.55-74.2c0-39.2,4.2-73.5,39.55-73.5S39.55-170.45,39.55-131.25ZM231.35,0H291.2V-45.5h28.7V-97.3H291.2V-252H224.35L113.75-93.8v48.3h117.6Zm-54.6-97.3,58.8-88.9v88.9Z" transform="translate(960 730.782)" fill="#006fb0" opacity="0.2"/>
      <g id="Group_511" data-name="Group 511" transform="translate(747.016 317)">
        <g id="Group_498" data-name="Group 498">
          <g id="Group_497" data-name="Group 497" clip-path="url(#clip-path)">
            <path id="Path_1497" data-name="Path 1497" d="M252.693,199.549c-3.646,3.938-18.814,10.209-25.231,12.251s-19.69,7-25.377,9.042-24.794,10.355-29.461,12.689-30.336,14.73-35.3,20.564,13.319,33.94,15.972,33.94,18.3-21.105,25.594-25.772,18.814-21.293,24.21-23.335,23.044-4.7,32.232-12.194,27.856-16.83,29.315-18.434-8.021-8.751-8.021-8.751Z" transform="translate(-58.879 -86.088)" fill="#002840"/>
            <path id="Path_1498" data-name="Path 1498" d="M103.371,80.624c.941-2.533,6.224-12.593,7.744-17.008S122.839,38.575,124.5,35.753s4.7-7.454,4.777-8.83.434-8.685,0-10.059-2.895-5.79-4.125-6.3c0,0,.362-1.3,2.388-.724s3.185,3.04,3.185,3.04-.8-8.034-.8-9.771S130.655.073,131.307,0s1.52,6.152,1.3,7.889.724,1.954.724,1.954a60.568,60.568,0,0,1,2.605-5.5c.869-1.375,2.678-4.2,3.908-3.4s-2.967,7.744-3.4,9.336.362,2.1.8,2.243,4.126-3.256,5.718-4.487,2.895-2.822,3.763-1.954-1.23,2.822-2.171,3.691-4.053,4.415-3.691,5.138,4.27-2.026,4.27-2.026,1.954-1.375,2.75-.652-3.112,3.836-3.98,4.27-2.75,2.026-2.75,3.763-1.158,6.079-2.389,7.165a12.358,12.358,0,0,0-3.256,6.514c-.217,2.316-3.981,20.915-7.165,26.923s-6.658,12.3-7.6,15.416-5.5,15.488-8.54,16.863-8.83-12.52-8.83-12.52" transform="translate(-44.596 0)" fill="#f2dad4"/>
            <path id="Path_1499" data-name="Path 1499" d="M34.572,174.045c-4.833,6.646-7.509,16.686-5.562,28.089s10.428,26,16.13,32.121,18.494,17.8,21.136,21.553,5.117,7.4,9.267,6.341c3.5-.89,15.9-32.761,18.544-35.4s5.145-5.84,3.893-6.675-13.488-10.985-15.3-16.408-10.707-29.479-9.456-35.736,8.191-12.444,8.191-15.086-.821-4.382-3.463-7.024-5.7-6.535-7.231-6.257-32.817,29.9-36.154,34.485" transform="translate(-12.239 -60.202)" fill="#ff5104"/>
            <path id="Path_1500" data-name="Path 1500" d="M161.124,159.83c1.059.144-.544,1.988-1.36,2.354s-4.189,2.977-5.385,2.977-1.85.055-1.959-1.034,6.31-4.624,8.7-4.3" transform="translate(-65.755 -68.944)" fill="#f2dad4"/>
            <path id="Path_1501" data-name="Path 1501" d="M151.209,171.144c-1.07,1.375,1.96,1.57,3.149,1.469a16.41,16.41,0,0,0,4.08-1.251c.327-.218,1.306-1.794.816-2.23s-6.733.326-8.044,2.012" transform="translate(-65.137 -72.913)" fill="#f2dad4"/>
            <path id="Path_1502" data-name="Path 1502" d="M151.379,178.878c-.085,1.761,4.073,2.067,4.89,1.9a1.913,1.913,0,0,0,1.359-1.469c.055-.435-1.088-.979-2.013-1.142s-4.176-.544-4.237.707" transform="translate(-65.306 -76.786)" fill="#f2dad4"/>
            <path id="Path_1503" data-name="Path 1503" d="M24.03,157.149c2.31,3.225,6.189,8.326,4.932,10.292s-2.8,8.7.28,10.961,2.679,4.793,2.021,5.851-5.955,1.151-10.618-1.684-11.136-10-10.818-13.912,14.2-11.507,14.2-11.507" transform="translate(-4.235 -67.796)" fill="#003250"/>
          </g>
        </g>
        <g id="Group_500" data-name="Group 500" transform="translate(16.206 105.877)">
          <g id="Group_499" data-name="Group 499" clip-path="url(#clip-path-2)">
            <rect id="Rectangle_238" data-name="Rectangle 238" width="29.761" height="19.31" transform="translate(-2.513 0.337) rotate(-8.514)" fill="url(#linear-gradient)"/>
          </g>
        </g>
        <g id="Group_502" data-name="Group 502">
          <g id="Group_501" data-name="Group 501" clip-path="url(#clip-path)">
            <path id="Path_1505" data-name="Path 1505" d="M37.6,147.1c1.429-.165,3.367,1.654,4.451,3.365.44.694,6.885,4.007,6.578,4.795s-1.3,3.889-.595,4.933,5.443,6.725,3.982,8.547-6.934,5.308-9.9,5.182-9.631-4.483-11.228-3.831-6.605,1.286-9.1-.421-4.89-3.314-2.983-5.957,5.253-2.274,6.534-1.726,2.766,1.714,3.471.7-.076-2.6-1.108-3.373-1.18-10.925,9.9-12.21" transform="translate(-7.814 -63.455)" fill="#f2dad4"/>
            <path id="Path_1506" data-name="Path 1506" d="M58.838,125.8c.627,7.259-20.176,16.816-20.176,16.816l7.778-10.37s12.26-8.051,12.4-6.446" transform="translate(-16.679 -54.181)" fill="#0087d6"/>
            <path id="Path_1507" data-name="Path 1507" d="M4.987,133.223c10.7-10.386,25.692-.189,25.729.313s-.958,7.364-11.593,16.34S6.417,159.589,5.6,159.185s-11.781-15.126-.613-25.962" transform="translate(0 -55.469)" fill="#006fb0"/>
            <path id="Path_1508" data-name="Path 1508" d="M47.847,198.962c1.319,6.635,6.348,9.069,8.9,8.245s21.271-12.944,24.9-15.17,15.087-14.1,17.149-14.758,9.729-6.6,11.13-7.832a54.668,54.668,0,0,1,4.041-3.736c1.27-.864,4.115-2.337,4.166-3.607s-.3-1.575-1.067-1.626-5.233,4.573-6.046,4.166-2.236-4.928-1.016-6.046,5.08-4.521,5.283-5.741.305-2.083-.61-2.083-4.725,5.385-6.757,6.655-6.147,5.385-8.027,7.112-5.683,5.584-8.357,6.689S79,175.382,74.667,177.687a105.207,105.207,0,0,0-12.078,7.653,49.634,49.634,0,0,1-9.681,5.44c-1.844.553-5.7,4.99-5.06,8.183" transform="translate(-20.612 -65.046)" fill="#f2dad4"/>
            <path id="Path_1509" data-name="Path 1509" d="M118.09,320.845c13.6,2.791,25.986-7.673,26.335-9.941s2.442-23.195,5.407-22.5,6.148,5.428,8.2,6.1c8,2.639,31.392,4.882,33.659,5.407a38.868,38.868,0,0,1,4.534,1.395s-1.744-6.627-1.744-8.894.349-3.173-2.093-4.028-12.208-3.819-15.7-6.087-13.778-5.93-17.266-9.069-11.2-9.418-16.76-9.418-6.435,5.232-8.354,5.93-23.719,17.789-28.776,32.439,12.557,18.66,12.557,18.66" transform="translate(-45.135 -113.814)" fill="#003b5e"/>
            <path id="Path_1510" data-name="Path 1510" d="M269.367,279.874s-4.059-.615-6.241,6.538c-2.282,7.481-1.806,21.281.614,23.109,2.547,1.924,8.216,6.991,8.216,6.991Z" transform="translate(-112.877 -120.735)" fill="#006fb0"/>
            <path id="Path_1511" data-name="Path 1511" d="M271.356,279.877c-4.606.3-6.092,12.184-4.458,19.614s3.269,5.646,3.715,9.658,1.932,8.766,6.538,7.726,5.349-8.914,3.863-10.846a12.3,12.3,0,0,1-2.823-6.538c-.148-2.377,2.675-6.687,1.635-9.659s-3.864-10.252-8.47-9.955" transform="translate(-114.866 -120.739)" fill="#0087d6"/>
            <path id="Path_1512" data-name="Path 1512" d="M347.008,149.113c-2.432,1.54.482,4.979,0,7.95s-3.052,12.93-4.417,15.178-3.1,4.018-1.99,5.422,2.953.36,4.559,1.645,4.308,4.545,3.987,5.91-2.569,4.578-.642,4.9,8.673,1.365,10.681-1.365-2.922-28.68-4.228-32.813c-1.149-3.638-5.541-8.352-7.95-6.826" transform="translate(-146.788 -64.202)" fill="#006fb0"/>
            <path id="Path_1513" data-name="Path 1513" d="M263.831,468.8c-.562,1.759-2.193,1.139-2.812.689s-3.273-2-2.743-3.512,3.783-13.982,6.671-17.635,6.837-6.829,7.508-6.838,2.1.095,1.906,1.088-10.53,26.208-10.53,26.208" transform="translate(-111.394 -190.468)" fill="#c23e03"/>
            <path id="Path_1514" data-name="Path 1514" d="M287.793,549.316s5.2-2.182,6.348-4.055,16.58-35.536,15.461-37.7-15.514-1.608-15.514-1.608L287.4,522.77Z" transform="translate(-123.99 -218.248)" fill="#992f00"/>
            <path id="Path_1515" data-name="Path 1515" d="M269.975,512.627c.073,1.524.569,1.853,2.226,2.037s6.853.162,6.74,1.327-2.9,27.944-1.243,33.366,4.361.4,4.378-.94-.413-19.42,2.545-26.347a33.495,33.495,0,0,1,7.364-10.888Z" transform="translate(-116.471 -220.53)" fill="#c23e03"/>
            <path id="Path_1516" data-name="Path 1516" d="M529.884,121.537s4.042-2.3,5.227-1.884,8.49,5.092,11.927,10.473,6.65,10.959,6.312,12.192a7.069,7.069,0,0,1-1.585,2.618c-.3.333-21.88-23.4-21.88-23.4" transform="translate(-228.599 -51.598)" fill="#003250"/>
            <path id="Path_1517" data-name="Path 1517" d="M776.128,305.013a41.527,41.527,0,1,1-55.97-17.786,41.527,41.527,0,0,1,55.97,17.786" transform="translate(-301.003 -121.904)" fill="#003250"/>
            <path id="Path_1518" data-name="Path 1518" d="M774.362,321.675a27.855,27.855,0,1,1-37.543-11.93,27.855,27.855,0,0,1,37.543,11.93" transform="translate(-311.379 -132.28)" fill="#004975"/>
          </g>
        </g>
        <g id="Group_504" data-name="Group 504" transform="translate(415.944 179.898)">
          <g id="Group_503" data-name="Group 503" clip-path="url(#clip-path-4)">
            <path id="Path_1534" data-name="Path 1534" d="M0,0H49.518V52.565H0Z" transform="matrix(0.035, -0.999, 0.999, 0.035, -4.829, 47.709)" fill="#fff"/>
          </g>
        </g>
        <g id="Group_506" data-name="Group 506">
          <g id="Group_505" data-name="Group 505" clip-path="url(#clip-path)">
            <path id="Path_1520" data-name="Path 1520" d="M699.12,325.169l36.265,17.292s8.639,1.13,10.608-7.243-4.052-11.209-4.052-11.209l-38.79-18.787Z" transform="translate(-301.609 -131.677)" fill="#bee7ff"/>
            <path id="Path_1521" data-name="Path 1521" d="M488.876,285.145c-.894,9.514-1.411,21.418,10.022,31.015s37.232-.1,43.35-3.263,19.783-7.257,18.616-24.016-3.392-37.547-15.531-48.117-38.676-29.945-36.593-33.635,14.609-.139,25.285,7.151,39.719,32.454,39.275,49.793,6.655,43.182-19.365,55.4S508.7,349.911,493.72,336.007s-24.117-27.244-22.7-37.158,7.269-19.349,7.269-19.349Z" transform="translate(-203.142 -88.722)" fill="#c23e03"/>
            <path id="Path_1522" data-name="Path 1522" d="M393.108,472.685l16.459,12.366,54.7-22.823-8.231-12.548Z" transform="translate(-169.592 -193.998)" fill="#992f00"/>
            <path id="Path_1523" data-name="Path 1523" d="M379.87,510.159a41.527,41.527,0,1,1-55.97-17.786,41.528,41.528,0,0,1,55.97,17.786" transform="translate(-130.052 -210.407)" fill="#003250"/>
            <path id="Path_1524" data-name="Path 1524" d="M378.1,526.821a27.855,27.855,0,1,1-37.543-11.93,27.855,27.855,0,0,1,37.543,11.93" transform="translate(-140.428 -220.782)" fill="#004975"/>
          </g>
        </g>
        <g id="Group_508" data-name="Group 508" transform="translate(190.637 296.542)">
          <g id="Group_507" data-name="Group 507" clip-path="url(#clip-path-6)">
            <rect id="Rectangle_242" data-name="Rectangle 242" width="49.518" height="52.565" transform="translate(-4.829 47.709) rotate(-87.998)" fill="#fff"/>
          </g>
        </g>
        <g id="Group_510" data-name="Group 510">
          <g id="Group_509" data-name="Group 509" clip-path="url(#clip-path)">
            <path id="Path_1526" data-name="Path 1526" d="M415.958,488.163c-3.407,2.4-1.148,5.814-.251,7.31s15.358,21.694,19.917,19.579,35.408-19.326,41.619-26.516,5.083-7.756,5.083-7.756l-19.573-13.7s-40.383,16.558-46.8,21.079" transform="translate(-178.665 -201.506)" fill="#c23e03"/>
            <path id="Path_1527" data-name="Path 1527" d="M736.128,264.285c4.109,2.372-16.773,5.435-29.792,12.918s-14.135,17.342-16.367,23.789-4.092,15.764-9.062,18.894a21.322,21.322,0,0,1-8.911,3.407s-2.87-46.1.107-51.954,5.825-10.013,10.055-12.051,29.783-8.966,53.971,5" transform="translate(-289.37 -110.34)" fill="#e34500"/>
            <path id="Path_1528" data-name="Path 1528" d="M417.7,122.551c2.385-.169,21.856,21.863,21.011,23.657s-10.556.77-10.152,5.986,22.337,1.2,54.551,22.206,31.462,19.017,28.679,22.838-9.261,9.059-8.767,30.148-1.371,61.987-15.683,70.932S454.769,310.571,443.528,321s-18.042,18.2-23.7,15-8.65-6.473-12.922-4.262-12.232-1.792-15.638-4.5-4.534-6.484-9.091-4.6-77.425,20.656-93.762,22.249-20.986,2.346-20.571-.8,11.035-36.4,14.794-43.688,7.6-12.909,7.82-15.252-.085-2.64.313-2.846,71.836-42.419,107.3-31.429c0,0,2.287.654,1.519,1.313s-10.095,10.1-6.621,22.58,19.3,24,40.859,16.072,43.125-15.527,41.674-37.043-1.914-39.824-15.687-53.53-36.2-27.656-40.115-29.819-23.617-14.149-22.5-17.678,6.916-20.693,9.5-22.877,9.192-7.212,10.989-7.34" transform="translate(-115.54 -52.87)" fill="#ff5104"/>
            <path id="Path_1529" data-name="Path 1529" d="M280.759,344.453c-.08,5.107,11.53,13.94,13.714,13.031s46.562-25.252,64.806-28.353,49.457-3.151,51.767-4.347,5.88-4.671,5.528-11.322.142-12.927-15.978-19.55-26.9,8.069-38.139,13.074-30.368,9.539-35.059,11.479-46.516,18.1-46.64,25.988" transform="translate(-121.123 -126.07)" fill="#003250"/>
            <path id="Path_1530" data-name="Path 1530" d="M490.547,173.056a4.029,4.029,0,0,0-2.079,3.249s-4.582,2.421-6.02,3.166a3.284,3.284,0,0,0-1.143,4.5,3.512,3.512,0,0,0,4.733,1.5l6.506-3.368a3.784,3.784,0,0,0,2.518-.327c2.065-1.068,2.728-3.887,1.481-6.3s-3.932-3.495-6-2.426" transform="translate(-207.455 -74.481)" fill="#003250"/>
            <path id="Path_1531" data-name="Path 1531" d="M276.636,438.41c-1.208.918,1.624,1.03,1.05,2.028s-8.762,24.018-9.673,25.269,3.941.735,4.95-.225,11.54-31.144,11.54-31.144-2.722.162-7.866,4.072" transform="translate(-115.575 -187.379)" fill="#ff5104"/>
            <path id="Path_1532" data-name="Path 1532" d="M438.932,96.887c-4.755,3.511,3.943,14.092,6.884,16.131s7.9,4.892,9.7,3.448,2.109-4.788,2.716-4.847,16.056,12.59,16.858,13.257c1.05.873,2.625,2.324,3.794.772s.133-2.656-1.044-3.573c-1.15-.895-16.27-13.425-18.4-15.713S444.193,93,438.932,96.887" transform="translate(-188.759 -41.445)" fill="#003250"/>
            <path id="Path_1533" data-name="Path 1533" d="M370.875,369.778c22.074,10.691,30.06,38.756,14.743,58.257,0,0-120.857,32.93-117.8,21.756,1.017-3.716,26.43-66.42,64.583-77.9,27.553-8.289,38.472-2.115,38.472-2.115" transform="translate(-115.516 -158.573)" fill="#e34500"/>
          </g>
        </g>
      </g>
    </g>
  </g>
</svg>
