<svg xmlns="http://www.w3.org/2000/svg" xmlns:xlink="http://www.w3.org/1999/xlink" width="108.748" height="42.67" viewBox="0 0 108.748 42.67">
  <defs>
    <clipPath id="clip-path">
      <rect id="Rectangle_94" data-name="Rectangle 94" width="108.748" height="42.67" rx="10" transform="translate(0 0)" fill="#003250"/>
    </clipPath>
  </defs>
  <g id="aprilia" transform="translate(24 -3.167)">
    <g id="Group_257" data-name="Group 257" transform="translate(-24 3.167)" clip-path="url(#clip-path)">
      <path id="Path_1396" data-name="Path 1396" d="M319.586,103.9l-.279.064c-.708.172-1.417.343-2.125.494a10,10,0,0,0-2.1.665,3.352,3.352,0,0,0-1.073.751,1.731,1.731,0,0,0,.15,2.447,1.2,1.2,0,0,0,.322.215,2.251,2.251,0,0,0,.987.258,5.446,5.446,0,0,0,1.76-.236,3.787,3.787,0,0,0,1.867-1.159,1.783,1.783,0,0,0,.494-1.2c0-.708,0-1.417.043-2.125A.4.4,0,0,1,319.586,103.9Z" transform="translate(-234.82 -81.857)" fill="#003250" fill-rule="evenodd"/>
      <path id="Path_1397" data-name="Path 1397" d="M132.805,82.16a2.935,2.935,0,0,0-1.953-1.674,4.052,4.052,0,0,0-1.245-.064,3.049,3.049,0,0,0-2.361,1.417,4.808,4.808,0,0,0-.622,1.867,9.654,9.654,0,0,0-.043,2.49,5.212,5.212,0,0,0,.386,1.588,2.923,2.923,0,0,0,2.039,1.867,5.378,5.378,0,0,0,1.18.129,2.71,2.71,0,0,0,1.932-.794,3.515,3.515,0,0,0,.773-1.18,7.186,7.186,0,0,0,.515-2.683,9.4,9.4,0,0,0-.086-1.095,5.624,5.624,0,0,0-.515-1.867" transform="translate(-87.918 -63.4)" fill="#003250" fill-rule="evenodd"/>
      <path id="Path_1398" data-name="Path 1398" d="M63.305,103.964c-.687.172-1.4.343-2.1.494a10.1,10.1,0,0,0-2.082.622,3.628,3.628,0,0,0-1.052.751,1.711,1.711,0,0,0,.086,2.447,2.431,2.431,0,0,0,.279.215,2.3,2.3,0,0,0,1.073.3,5.306,5.306,0,0,0,1.417-.15,4.268,4.268,0,0,0,1.953-1.009,2.041,2.041,0,0,0,.73-1.417c0-.558.043-1.138.064-1.7a5.316,5.316,0,0,1-.043-.622Z" transform="translate(-33.786 -81.857)" fill="#003250" fill-rule="evenodd"/>
      <path id="Path_1399" data-name="Path 1399" d="M-33.984,42.927H83.249V0H-33.984ZM1.091,29.834C.9,29.3.855,28.74.641,28.181a.45.45,0,0,0-.172.129A4.485,4.485,0,0,1-2.021,29.9a6.355,6.355,0,0,1-2.769.236,5.206,5.206,0,0,1-3.434-1.76,4.124,4.124,0,0,1-1.009-2.64,5.018,5.018,0,0,1,.172-1.7,3.8,3.8,0,0,1,1.932-2.4A6.787,6.787,0,0,1-5,20.884c.622-.107,1.245-.193,1.867-.279s1.352-.215,2.018-.322a6.758,6.758,0,0,0,.9-.193,2.149,2.149,0,0,0,.451-.215.894.894,0,0,0,.408-.665A1.5,1.5,0,0,0-.2,17.579a3.28,3.28,0,0,0-.987-.3,6.1,6.1,0,0,0-1.975,0,1.917,1.917,0,0,0-1.5,1.223c-.107.236-.172.494-.279.773H-8.675V19.06a6.84,6.84,0,0,1,.494-1.975,4.058,4.058,0,0,1,2.49-2.3A8.494,8.494,0,0,1-3.609,14.4a18.656,18.656,0,0,1,2.683,0,8.709,8.709,0,0,1,3.112.751,4.1,4.1,0,0,1,1.138.773,3.432,3.432,0,0,1,1.009,2.34v9.251a4.972,4.972,0,0,0,.129,1.374c.064.236.15.451.215.665.021.107.064.172.086.279Zm19.145-7.169a9.428,9.428,0,0,1-1.2,4.443,5.714,5.714,0,0,1-4.057,2.812,6.581,6.581,0,0,1-2.425,0,3.737,3.737,0,0,1-2.3-1.309c-.215-.258-.408-.515-.622-.773L9.5,27.666l-.021.021a6.621,6.621,0,0,0,0,.923v5.58H5.513c-.043-.172-.064-19.1,0-19.381.172-.043,3.563-.064,3.82,0L9.5,16.055c.064-.064.129-.064.15-.107a4.381,4.381,0,0,1,3.305-1.932,6.109,6.109,0,0,1,4.679,1.2,6.313,6.313,0,0,1,1.8,2.49,9.863,9.863,0,0,1,.708,2.7,13.2,13.2,0,0,1,.086,2.254m8.993-4.228c-.193,0-.386-.043-.58-.043a3.143,3.143,0,0,0-2.168.859,4.96,4.96,0,0,0-1.352,2.189,4.851,4.851,0,0,0-.215,1.567v6.825H21.074V14.9c.172-.043,3.241-.064,3.649,0l.3,1.8a.652.652,0,0,0,.107-.15,3.67,3.67,0,0,1,.279-.494,3.041,3.041,0,0,1,2.318-1.46,9.89,9.89,0,0,1,1.138-.043,2.246,2.246,0,0,1,.365.086Zm5.151,11.4H30.646v-15h3.735c.043.15.064,14.7,0,15M34.424,12.3H30.732c-.043-.129-.043-3.241,0-3.52h3.692a31.853,31.853,0,0,1,0,3.52m4.894,17.514c-.172.043-3.284.064-3.627,0V8.8c.172-.043,3.305-.043,3.627,0ZM40.605,8.779H44.34V12.3c-.193.064-3.391.064-3.735.021Zm3.863,21.056H40.734v-15h3.692c.086.15.107,14.66.043,15m15.239,0h-3.67c-.193-.537-.236-1.095-.451-1.653-.064.043-.129.064-.15.086a4.547,4.547,0,0,1-2.876,1.7,6.72,6.72,0,0,1-2.361.15,5.351,5.351,0,0,1-3.284-1.588,4.219,4.219,0,0,1-1.18-2.7,5.331,5.331,0,0,1,.129-1.653A3.9,3.9,0,0,1,47.8,21.635a7,7,0,0,1,2.146-.794c.494-.086,1.009-.15,1.5-.236l1.717-.258,1.245-.215a2.346,2.346,0,0,0,.365-.107,1.1,1.1,0,0,0,.773-1.374,1.4,1.4,0,0,0-.859-1.138,2.951,2.951,0,0,0-.966-.279,5.965,5.965,0,0,0-1.953,0A1.968,1.968,0,0,0,50.2,18.544c-.086.215-.15.451-.236.687H46.272v-.258a6.685,6.685,0,0,1,.451-1.824,4.073,4.073,0,0,1,2.6-2.4,8.178,8.178,0,0,1,2.018-.386,18.954,18.954,0,0,1,2.7,0,9.415,9.415,0,0,1,2.79.622,4.208,4.208,0,0,1,1.631,1.159,3.1,3.1,0,0,1,.751,1.739c.021.258.043.515.043.751v8.092c0,.515,0,1.03.043,1.545a3.352,3.352,0,0,0,.322,1.288C59.665,29.684,59.686,29.77,59.708,29.834Z" transform="translate(29.222 -0.257)" fill="#003250" fill-rule="evenodd"/>
    </g>
  </g>
</svg>
