<svg xmlns="http://www.w3.org/2000/svg" xmlns:xlink="http://www.w3.org/1999/xlink" version="1.1" id="Vrstva_1" x="0px" y="0px" style="enable-background:new 0 0 15 45;" xml:space="preserve" viewBox="0 15 15 15">
<style type="text/css">
	.st0{fill:#FF5104;}
	.st1{fill:#FFFFFF;}
	.st2{opacity:0.2;fill:#FF5104;enable-background:new    ;}
</style>
<g id="ico_kategorie" transform="translate(9353 161)">
	<g id="Group_553" transform="translate(-9747 -519)">
		<path id="Rectangle_89" class="st0" d="M397,373h9c1.7,0,3,1.3,3,3v9c0,1.7-1.3,3-3,3h-9c-1.7,0-3-1.3-3-3v-9    C394,374.3,395.3,373,397,373z"/>
		<g id="Group_222" transform="translate(0.5 1.549)">
			<g id="Line_40">
				<path class="st1" d="M403.5,380h-5c-0.6,0-1-0.4-1-1s0.4-1,1-1h5c0.6,0,1,0.4,1,1S404.1,380,403.5,380z"/>
			</g>
		</g>
	</g>
</g>
</svg>