<svg xmlns="http://www.w3.org/2000/svg" xmlns:xlink="http://www.w3.org/1999/xlink" width="36" height="36" viewBox="0 0 36 36.8">
  <defs>
    <clipPath id="clip-path">
      <rect id="Rectangle_24" data-name="Rectangle 24" width="36" height="83.666" fill="#ff5104"/>
    </clipPath>
  </defs>
  <g id="Group_65" data-name="Group 65" clip-path="url(#clip-path)">
    <path id="FB" d="M0,18.4H0A18.2,18.2,0,0,0,18,36.8,18.2,18.2,0,0,0,36,18.4,18.2,18.2,0,0,0,18,0,18.2,18.2,0,0,0,0,18.4m22.466-5.745-1.329.025a1.5,1.5,0,0,0-1.535,1.6v1.927h2.864L22,19.415H19.6v7.568a11.405,11.405,0,0,1-1.467.093,11.767,11.767,0,0,1-1.859-.147V19.415H13.534l.054-3.206h2.688V13.437c0-2.056,1.809-4.481,6.19-3.473Z" fill="#006fb0"/>
  </g>
</svg>
