<svg xmlns="http://www.w3.org/2000/svg" width="314.376" height="41.773" viewBox="0 0 314.376 41.773">
  <g id="Group_58" data-name="Group 58" transform="translate(-280.624 -28.479)">
    <path id="Path_24" data-name="Path 24" d="M32.489,4.21a2.023,2.023,0,1,0-2.023-2.023A2.023,2.023,0,0,0,32.489,4.21" transform="translate(267.472 29.851)" fill="#00ff7e" opacity="0.31"/>
    <path id="Path_49" data-name="Path 49" d="M9.36,50.032a2.449,2.449,0,1,0,2.449,2.449A2.449,2.449,0,0,0,9.36,50.032" transform="translate(299.132 -20.93)" fill="#00ff7e"/>
    <g id="Group_27" data-name="Group 27">
      <text id="Finanční_Rádkyně" data-name="Finanční Rádkyně" transform="translate(372 61)" fill="#fff" font-size="28" font-family="Outfit-SemiBold, Outfit" font-weight="600"><tspan x="0" y="0">Finan</tspan><tspan y="0">č</tspan><tspan y="0">n</tspan><tspan y="0">í</tspan><tspan y="0" xml:space="preserve"> R</tspan><tspan y="0">á</tspan><tspan y="0">dkyn</tspan><tspan y="0">ě</tspan></text>
      <path id="Path_25" data-name="Path 25" d="M26.137,21.82a2.449,2.449,0,1,0-2.449-2.449,2.449,2.449,0,0,0,2.449,2.449" transform="translate(276.936 21.894)" fill="#00ff7e"/>
      <path id="Path_46" data-name="Path 46" d="M26.137,21.82a2.449,2.449,0,1,0-2.449-2.449,2.449,2.449,0,0,0,2.449,2.449" transform="translate(256.936 30.358)" fill="#00ff7e" opacity="0.31"/>
      <path id="Path_26" data-name="Path 26" d="M9.36,50.032a2.449,2.449,0,1,0,2.449,2.449A2.449,2.449,0,0,0,9.36,50.032" transform="translate(284.802 6.37)" fill="#00ff7e"/>
      <path id="Path_48" data-name="Path 48" d="M9.36,50.032a2.449,2.449,0,1,0,2.449,2.449A2.449,2.449,0,0,0,9.36,50.032" transform="translate(281.132 15.323)" fill="#00ff7e" opacity="0.31"/>
      <path id="Path_27" data-name="Path 27" d="M24.363,66.889H20.4a2.4,2.4,0,1,0,0,4.8h3.964a2.4,2.4,0,1,0,0-4.8" transform="translate(279.603 -1.534)" fill="#00ff7e"/>
      <path id="Path_28" data-name="Path 28" d="M6.363,33.667H2.4a2.4,2.4,0,0,0,0,4.8H6.363a2.4,2.4,0,0,0,0-4.8" transform="translate(288.043 14.043)" fill="#00ff7e"/>
      <path id="Path_47" data-name="Path 47" d="M6.363,33.667H2.4a2.4,2.4,0,0,0,0,4.8H6.363a2.4,2.4,0,0,0,0-4.8" transform="translate(289.781 5.19)" fill="#00ff7e" opacity="0.31"/>
      <path id="Path_29" data-name="Path 29" d="M56.152.043A2.4,2.4,0,0,0,55.726,0H40.732a2.4,2.4,0,0,0,0,4.8h1.943a2.385,2.385,0,0,1,.218,4.172H33.416a2.4,2.4,0,1,0,0,4.8h5.524a2.389,2.389,0,0,1,.1,4H26.119a2.4,2.4,0,0,0,0,4.8h7.115a2.388,2.388,0,0,1,.312,4.113H31.139a2.4,2.4,0,0,0,0,4.8H42.99A2.093,2.093,0,0,1,43.462,35h-5.7a2.4,2.4,0,0,0,0,4.8H55.166c.116,0,.225.009.344.009A19.884,19.884,0,0,0,56.152.043M45.639,22.561v.007l-.012-.007Z" transform="translate(276.921 29.829)" fill="#fff"/>
      <g id="_6-Check" data-name="6-Check" transform="matrix(0.978, 0.208, -0.208, 0.978, 304.315, -32.481)">
        <g id="Path_45" data-name="Path 45" transform="translate(0)" fill="#00a652">
          <path d="M 43.48736572265625 88.76795959472656 L 44.44947814941406 87.53096008300781 L 31.08451461791992 73.07391357421875 C 30.49118423461914 72.43208312988281 30.33414459228516 71.49992370605469 30.68440437316895 70.69911956787109 C 31.03466415405273 69.89833831787109 31.82574462890625 69.38089752197266 32.69976425170898 69.38086700439453 L 39.3687858581543 69.38086700439453 C 40.00557327270508 69.38086700439453 40.61053466796875 69.65641784667969 41.02854537963867 70.13686370849609 L 44.23049545288086 73.82059478759766 C 44.79801559448242 72.86483764648438 45.54506301879883 71.74150848388672 46.51549530029297 70.50253295898438 C 49.11774444580078 67.18015289306641 53.94709396362305 62.29967880249023 62.17618560791016 57.91656875610352 C 62.49353408813477 57.7475700378418 62.85091400146484 57.65827178955078 63.20978546142578 57.65827178955078 C 63.95805358886719 57.65827178955078 64.64797210693359 58.03285217285156 65.05531311035156 58.66028213500977 C 65.68153381347656 59.62483978271484 65.46992492675781 60.88552856445312 64.56308746337891 61.59276962280273 C 64.53707122802734 61.6132698059082 61.55181503295898 63.98218154907227 58.15032577514648 68.24537658691406 C 54.97775650024414 72.22129058837891 50.76118469238281 78.71904754638672 48.68991470336914 87.09599304199219 C 48.44656372070312 88.08023834228516 47.56847381591797 88.76770782470703 46.5545654296875 88.76776885986328 L 43.48736572265625 88.76795959472656 Z" stroke="none"/>
          <path d="M 46.55447387695312 87.26776885986328 C 46.87625503540039 87.26775360107422 47.15653610229492 87.04830932617188 47.2337646484375 86.73594665527344 C 49.37014389038086 78.09568023681641 53.71175384521484 71.40290832519531 56.97780609130859 67.30986022949219 C 60.52656555175781 62.86207962036133 63.61010360717773 60.43381881713867 63.6406135559082 60.40996170043945 C 63.92689514160156 60.18669128417969 63.99489593505859 59.78158187866211 63.79720306396484 59.47708129882812 C 63.59951019287109 59.17257308959961 63.20178985595703 59.06982421875 62.88134384155273 59.240478515625 C 54.88390350341797 63.50020980834961 50.20945358276367 68.21894836425781 47.69638442993164 71.42746734619141 C 45.99646377563477 73.59780120849609 45.02775573730469 75.37889099121094 44.52733612060547 76.44859313964844 L 39.89691543579102 71.12145233154297 C 39.76393508911133 70.96861267089844 39.57127380371094 70.88086700439453 39.3687858581543 70.88086700439453 L 32.69981384277344 70.88086700439453 C 32.42177581787109 70.88088226318359 32.17011642456055 71.04549407958984 32.05869293212891 71.30021667480469 C 31.94727516174316 71.55496215820312 31.99722480773926 71.85150146484375 32.18596649169922 72.05567169189453 L 46.04088592529297 87.04271697998047 C 46.17334365844727 87.18601989746094 46.35962295532227 87.26750183105469 46.55468368530273 87.26750183105469 L 46.55447387695312 87.26776885986328 M 40.42026519775391 90.26815032958984 L 42.48408508300781 87.61466217041016 L 29.98307418823242 74.09214782714844 C 28.98515510559082 73.01264953613281 28.72101402282715 71.44487762451172 29.31010437011719 70.0980224609375 C 29.89921379089355 68.75119018554688 31.22970390319824 67.88092041015625 32.69970321655273 67.88086700439453 L 39.3687858581543 67.88086700439453 C 40.43974304199219 67.88086700439453 41.45717620849609 68.34428405761719 42.16017532348633 69.15228271484375 L 44.04929351806641 71.32564544677734 C 44.42963790893555 70.77262878417969 44.85646820068359 70.18805694580078 45.33461380004883 69.57759857177734 C 48.02611541748047 66.14125823974609 53.01045608520508 61.09906005859375 61.47101593017578 56.59265899658203 C 62.00469589233398 56.30844116210938 62.60589599609375 56.15827178955078 63.20978546142578 56.15827178955078 C 64.46809387207031 56.15827178955078 65.62832641601562 56.78824996948242 66.31340789794922 57.84346008300781 C 66.81892395019531 58.62210083007812 67.01268768310547 59.55509185791016 66.85900115966797 60.47060012817383 C 66.70595550537109 61.38241195678711 66.221435546875 62.19813919067383 65.49433898925781 62.76871490478516 C 65.41130065917969 62.83485794067383 62.56553649902344 65.11672973632812 59.32284545898438 69.18090057373047 C 56.24367523193359 73.03974914550781 52.15217590332031 79.34261322021484 50.14606475830078 87.45603942871094 C 49.73677444458008 89.11142730712891 48.25993347167969 90.26766204833984 46.55466461181641 90.26776885986328 L 40.42026519775391 90.26815032958984 Z" stroke="none" fill="#fff"/>
        </g>
      </g>
    </g>
  </g>
</svg>
