<svg xmlns="http://www.w3.org/2000/svg" xmlns:xlink="http://www.w3.org/1999/xlink" width="238" height="39.462" viewBox="0 0 238 39.462">
  <defs>
    <clipPath id="clip-path">
      <rect id="Rectangle_2" data-name="Rectangle 2" width="238" height="39.462" fill="none"/>
    </clipPath>
  </defs>
  <g id="Group_2" data-name="Group 2" transform="translate(0 0)">
    <g id="Group_1" data-name="Group 1" transform="translate(0 0)" clip-path="url(#clip-path)">
      <path id="Path_1" data-name="Path 1" d="M47.5,30.207c-1.841-.413-2.06-.558-2.06-1.479a5.818,5.818,0,0,1,.484-1.962c.413-.9.559-1.017,1.043-.9a8.262,8.262,0,0,0,3.876.171,3.922,3.922,0,0,0,2.205-2.5c.144-.6.1-.679-.411-.679a3.091,3.091,0,0,1-2.471-1.137c-.509-.751-.63-1.139-2.424-7.826-.049-.195-.484-1.84-.968-3.634-1.334-4.844-1.334-4.773-.22-5.064,2.156-.557,3.37-.435,4.192.437.58.606,1.235,2.713,1.816,5.717.049.267.291,1.261.509,2.182.218.944.437,2.083.533,2.542.073.462.169,1.019.193,1.212a4.629,4.629,0,0,1,.1.921c.049,1.114.437.46.824-1.332.195-1.043.606-2.931.9-4.19s.679-3.053.872-4c.655-3.1.8-3.441,1.381-3.61,1.381-.362,4.773.024,4.773.533,0,.146-.291,1.212-1.283,4.893-.218.728-.824,3.126-1.381,5.329s-1.115,4.338-1.235,4.725c-.1.411-.388,1.332-.582,2.058-1.308,4.481-3.2,6.832-6.008,7.486a15.041,15.041,0,0,1-4.651.1" transform="translate(31.462 3.371)" fill="#2d2d2d" fill-rule="evenodd"/>
      <path id="Path_2" data-name="Path 2" d="M95.358,23.116c-3.9-.437-5.983-2.908-6.347-7.535-.315-4.143.411-6.976,2.325-8.867A7.3,7.3,0,0,1,97.223,4.8a5.661,5.661,0,0,1,3.175.751c2.591,1.527,3.7,3.852,3.537,7.389a9.582,9.582,0,0,1-.291,2.422c-.122.218-1.357.291-4.652.291H94.535v.6a2.966,2.966,0,0,0,1.5,2.449,4,4,0,0,0,2.4.266,8.656,8.656,0,0,0,2.083-.364,7.041,7.041,0,0,1,1.09-.388c.533-.12.7-.024,1.114.653a5.843,5.843,0,0,1,.655,1.672c.171.873.146.9-1.017,1.477a12.59,12.59,0,0,1-7,1.09ZM98.944,11.9c.542-.889-.562-3.278-2.39-3.275-1.789.005-2.54,2.579-2.094,3.251a20.185,20.185,0,0,0,4.483.024" transform="translate(61.583 3.315)" fill="#2d2d2d" fill-rule="evenodd"/>
      <path id="Path_3" data-name="Path 3" d="M129.2,23.133c-3.706-.486-5.983-3.3-6.372-7.922-.411-4.8,1.552-8.7,4.967-9.98a9.154,9.154,0,0,1,6.758.388,5.32,5.32,0,0,1,2.762,5.692c-.338,1.261-1.259,1.794-3,1.769a7.533,7.533,0,0,1-1.55-.1,6.065,6.065,0,0,1-.218-1.21,4.5,4.5,0,0,0-.944-2.689,2.988,2.988,0,0,0-1.139-.195c-1.137.025-1.694.824-1.936,2.738-.413,3.439.1,6.032,1.356,6.88a4.441,4.441,0,0,0,4.216-.315l1.283-.7.775.921c1.212,1.4,1.308,2.083.364,2.858a10.589,10.589,0,0,1-7.316,1.865" transform="translate(85.009 3.298)" fill="#2d2d2d" fill-rule="evenodd"/>
      <path id="Path_4" data-name="Path 4" d="M123.583,15.234a3.137,3.137,0,1,1-3.148-3.124,3.142,3.142,0,0,1,3.148,3.124" transform="translate(81.226 8.386)" fill="#2d2d2d" fill-rule="evenodd"/>
      <path id="Path_5" data-name="Path 5" d="M41.37,22.535c-1.308-.484-1.308-.509-3.126-6.59-.315-1.065-.775-2.688-1.041-3.634-.267-.921-.775-2.664-1.139-3.876-.338-1.186-.679-2.351-.726-2.567-.074-.267.168-.46.9-.679,2.011-.606,3.948-.266,4.676.8A87.56,87.56,0,0,1,43.6,16.794c.338,2.688.411,2.495,2.325-5.937,1.381-6.1,1.114-5.546,2.664-5.79a5.331,5.331,0,0,1,3.319.316c.34.217.267.6-1.356,6.443-.413,1.477-.921,3.319-1.139,4.119s-.484,1.719-.606,2.058-.435,1.43-.751,2.424a12.481,12.481,0,0,1-.726,2.083c-.291.362-4.991.388-5.961.024Z" transform="translate(24.46 3.387)" fill="#2d2d2d" fill-rule="evenodd"/>
      <path id="Path_6" data-name="Path 6" d="M57.063,26.106c-.122-.073-.146-25.315-.049-25.679.122-.411.315-.435,1.89-.315A9.192,9.192,0,0,1,61.181.5c1.041.557,1.115,1.043,1.137,7.656.049,6.006.074,6.3.486,6.225.7-.12,1.041-.557,2.254-2.858,1.428-2.713,1.887-3.053,4.311-3.173,2.811-.146,2.835-.073,1.406,2.858a27.9,27.9,0,0,1-2.109,3.634c-.508.655-.921,1.212-.921,1.235a3.157,3.157,0,0,0,.824.533c.944.509,1.55,1.477,2.544,4.239a23.8,23.8,0,0,0,1.259,2.908l.509.872-.8.655a4.747,4.747,0,0,1-3.681.823c-.944-.169-1.455-.944-2.471-3.9-.824-2.325-1.6-3.27-2.689-3.27-.46,0-.824.146-.921.364a25.665,25.665,0,0,0-.1,3.415c.049,2.447,0,3.077-.289,3.27a25.006,25.006,0,0,1-4.869.122" transform="translate(39.436 0.034)" fill="#2d2d2d" fill-rule="evenodd"/>
      <path id="Path_7" data-name="Path 7" d="M70.678,26.066a3.585,3.585,0,0,1-2.593-1.938c-.388-.848-.435-1.914-.46-12.526V0l1.816.146c2.132.146,2.933.58,3.246,1.694.122.413.22,4.944.244,10.031s.1,9.423.169,9.616.63.437,1.235.558c1.212.217,1.188.146,1.43,2.4.1.8.071,1.308-.122,1.4a19.889,19.889,0,0,1-4.966.218" transform="translate(46.824 0.001)" fill="#2d2d2d" fill-rule="evenodd"/>
      <path id="Path_8" data-name="Path 8" d="M75.935,22.593c-.22-.146-.316-1.769-.316-6.226-.025-6.807-.146-7.291-1.5-7.436l-.8-.073-.071-1.769c-.073-2.107-.1-2.107,2.979-2.107,2.351,0,3.488.435,4.192,1.6.531.848.557,1.235.557,8.672.024,5.695-.049,7.147-.315,7.318a14.754,14.754,0,0,1-4.725.024Z" transform="translate(50.701 3.45)" fill="#2d2d2d" fill-rule="evenodd"/>
      <path id="Path_9" data-name="Path 9" d="M100.147,22.7c-.242-.1-.315-2.107-.315-8.939V4.944h1.647c1.794,0,2.689.338,3.1,1.161s.533.9.993.486a10.84,10.84,0,0,1,1.7-1.041c2.64-1.357,5.62-.655,6.758,1.623.775,1.549.824,2.011.9,7.848.049,4.239.122,5.186.484,5.839a5.915,5.915,0,0,1,.413.921c0,.338-2.156,1.09-3.2,1.09-2.787,0-3.078-.63-3.1-6.759-.047-4.869-.218-5.959-.993-6.2a3.657,3.657,0,0,0-2.567.58c-.533.388-.533.462-.558,6.226v5.862l-.531.146a20.52,20.52,0,0,1-4.725-.024Z" transform="translate(69.125 3.366)" fill="#2d2d2d" fill-rule="evenodd"/>
      <path id="Path_10" data-name="Path 10" d="M112.867,22.654A57.819,57.819,0,0,1,112.7,16.5c0-6.492-.1-7.147-1.186-7.389-.34-.073-.751-.169-.9-.217-.291-.074-.437-2.06-.218-3.053.146-.63.266-.679,1.7-.824,3.053-.34,4.773.291,5.717,2.06.484.9.653,15.237.169,15.528a18.126,18.126,0,0,1-5.111.049" transform="translate(76.366 3.413)" fill="#2d2d2d" fill-rule="evenodd"/>
      <path id="Path_11" data-name="Path 11" d="M79.9,21.623a4.118,4.118,0,0,1,.073-3.15,104.756,104.756,0,0,1,6.372-8.382c1.114-1.186,1.307-1.549.726-1.332a30.294,30.294,0,0,1-3.61.291l-3.246.169L80.073,8.08A8.634,8.634,0,0,1,80.05,6l.169-.943,6.154.047,6.177.073.34.968a4.149,4.149,0,0,1,.047,3.1c-.388.75-4.6,6.3-6.079,8.019l-1.235,1.428,3.051-.146a22.4,22.4,0,0,0,3.706-.411,7.317,7.317,0,0,1,.728-.242,3.526,3.526,0,0,1,.362,1.017,2.868,2.868,0,0,1-.653,3.1c-.582.462-.944.484-6.639.484H80.2Z" transform="translate(55.137 3.5)" fill="#2d2d2d" fill-rule="evenodd"/>
      <path id="Path_12" data-name="Path 12" d="M133.043,22.326a8.149,8.149,0,0,1-.46-2.689,3.5,3.5,0,0,1,.582-1.574c1.212-1.745,4.6-6.2,5.741-7.56,1.114-1.283,1.576-2.058,1.043-1.719a33.889,33.889,0,0,1-3.513.267c-2.713.146-3.319.12-3.343-.146a7.86,7.86,0,0,0-.122-1.066A8.6,8.6,0,0,1,133,6.07l.146-1.017,6.225.047,6.2.074.34,1.332a6.742,6.742,0,0,1,.195,2.06c-.146.7-5.016,7.411-6.785,9.278l-.75.823,3.075-.146a22.431,22.431,0,0,0,3.708-.388,3.76,3.76,0,0,1,.751-.242,10.268,10.268,0,0,1,.1,1.914c0,2.787.291,2.689-7.074,2.689a55.548,55.548,0,0,1-6.081-.169" transform="translate(91.8 3.499)" fill="#2d2d2d" fill-rule="evenodd"/>
      <path id="Path_13" data-name="Path 13" d="M117.023,3.243A2.956,2.956,0,1,1,114.068.286a2.951,2.951,0,0,1,2.955,2.957" transform="translate(76.934 0.199)" fill="#2d2d2d" fill-rule="evenodd"/>
      <path id="Path_14" data-name="Path 14" d="M59.191,26.006a2.892,2.892,0,0,1-1.12-.206,1.664,1.664,0,0,1-.79-.674,2.327,2.327,0,0,1-.293-1.242V21.5a2.327,2.327,0,0,1,.293-1.242,1.664,1.664,0,0,1,.79-.674,3.128,3.128,0,0,1,2.244,0,1.652,1.652,0,0,1,.8.674A2.327,2.327,0,0,1,61.4,21.5v2.381a2.327,2.327,0,0,1-.293,1.242,1.652,1.652,0,0,1-.8.674,2.915,2.915,0,0,1-1.124.206m0-1.222a.8.8,0,0,0,.594-.217A.941.941,0,0,0,60,23.884V21.5a.938.938,0,0,0-.215-.684.8.8,0,0,0-.594-.217.779.779,0,0,0-.589.217.945.945,0,0,0-.212.684v2.381a.948.948,0,0,0,.212.684.786.786,0,0,0,.589.217" transform="translate(39.458 13.419)" fill="#0095ff"/>
      <path id="Path_15" data-name="Path 15" d="M62.332,25.952a.721.721,0,0,1-.447-.125.364.364,0,0,1-.164-.3V19.8a.367.367,0,0,1,.164-.3.732.732,0,0,1,.447-.125h1.591a2.941,2.941,0,0,1,1.124.206,1.654,1.654,0,0,1,.8.675,2.3,2.3,0,0,1,.293,1.241v2.329a2.3,2.3,0,0,1-.293,1.241,1.673,1.673,0,0,1-.8.675,2.941,2.941,0,0,1-1.124.2Zm.79-1.222h.8a.792.792,0,0,0,.594-.22.939.939,0,0,0,.215-.679V21.5a.936.936,0,0,0-.215-.679.793.793,0,0,0-.594-.222h-.8Z" transform="translate(42.736 13.42)" fill="#0095ff"/>
      <path id="Path_16" data-name="Path 16" d="M68.8,26.006a1.448,1.448,0,0,1-.577-.117.563.563,0,0,1-.34-.352L66.2,20.053a.517.517,0,0,1-.019-.1.385.385,0,0,1,.146-.3,1.091,1.091,0,0,1,.355-.2,1.136,1.136,0,0,1,.4-.078.7.7,0,0,1,.3.059.286.286,0,0,1,.162.2L68.8,24.253,70.05,19.64a.315.315,0,0,1,.168-.2.661.661,0,0,1,.291-.059,1.246,1.246,0,0,1,.757.279.386.386,0,0,1,.142.3.224.224,0,0,1,0,.044.475.475,0,0,1-.014.052l-1.674,5.485a.559.559,0,0,1-.335.352,1.429,1.429,0,0,1-.58.117" transform="translate(45.826 13.419)" fill="#0095ff"/>
      <path id="Path_17" data-name="Path 17" d="M73.333,26.006a2.892,2.892,0,0,1-1.12-.206,1.664,1.664,0,0,1-.79-.674,2.327,2.327,0,0,1-.293-1.242V21.5a2.327,2.327,0,0,1,.293-1.242,1.664,1.664,0,0,1,.79-.674,3.128,3.128,0,0,1,2.244,0,1.652,1.652,0,0,1,.8.674,2.327,2.327,0,0,1,.293,1.242v2.381a2.327,2.327,0,0,1-.293,1.242,1.652,1.652,0,0,1-.8.674,2.915,2.915,0,0,1-1.124.206m0-1.222a.8.8,0,0,0,.594-.217.941.941,0,0,0,.215-.684V21.5a.938.938,0,0,0-.215-.684.8.8,0,0,0-.594-.217.779.779,0,0,0-.589.217.945.945,0,0,0-.212.684v2.381a.948.948,0,0,0,.212.684.786.786,0,0,0,.589.217" transform="translate(49.25 13.419)" fill="#0095ff"/>
      <path id="Path_18" data-name="Path 18" d="M76,25.952a.4.4,0,0,1-.31-.1.377.377,0,0,1-.095-.264,1,1,0,0,1,.152-.5L78.281,20.6H76.194a.345.345,0,0,1-.31-.184.791.791,0,0,1-.113-.426.906.906,0,0,1,.1-.418.337.337,0,0,1,.323-.195h3.471a.4.4,0,0,1,.306.1.373.373,0,0,1,.1.266,1.05,1.05,0,0,1-.154.494L77.383,24.73h2.444a.339.339,0,0,1,.315.2.837.837,0,0,1,.108.413.852.852,0,0,1-.108.415.341.341,0,0,1-.315.2Z" transform="translate(52.341 13.419)" fill="#0095ff"/>
      <path id="Path_19" data-name="Path 19" d="M84.014,26.106a2.582,2.582,0,0,1-1.237-.281,2.085,2.085,0,0,1-.814-.736,1.835,1.835,0,0,1-.288-.988,1.914,1.914,0,0,1,.149-.751,2.369,2.369,0,0,1,.4-.64,2.256,2.256,0,0,1,.535-.454,3.013,3.013,0,0,1-.418-.584,1.476,1.476,0,0,1-.166-.719,1.5,1.5,0,0,1,.266-.9,1.69,1.69,0,0,1,.718-.565,2.479,2.479,0,0,1,1-.2,2.547,2.547,0,0,1,1,.179,1.8,1.8,0,0,1,.66.442.766.766,0,0,1,.234.5.61.61,0,0,1-.21.447.652.652,0,0,1-.454.2.425.425,0,0,1-.288-.1,2.273,2.273,0,0,1-.235-.228,1.3,1.3,0,0,0-.274-.23.791.791,0,0,0-.418-.1.806.806,0,0,0-.494.152.532.532,0,0,0-.206.459.9.9,0,0,0,.166.5,3.12,3.12,0,0,0,.391.476c.149.151.284.289.4.415l1.295,1.339a1.641,1.641,0,0,0,.13-.58c0-.176.01-.328.022-.454a.454.454,0,0,1,.146-.291.753.753,0,0,1,.476-.1.544.544,0,0,1,.481.171.839.839,0,0,1,.113.469,2.55,2.55,0,0,1-.059.521,3.646,3.646,0,0,1-.171.567,3.332,3.332,0,0,1-.291.567l.682.7a.314.314,0,0,1,.064.112.449.449,0,0,1,.017.113.515.515,0,0,1-.2.386.659.659,0,0,1-.445.181.379.379,0,0,1-.166-.037.732.732,0,0,1-.176-.125l-.486-.494a3.038,3.038,0,0,1-.819.476,2.772,2.772,0,0,1-1.024.181m.152-1.215a1.513,1.513,0,0,0,.5-.076,1.1,1.1,0,0,0,.367-.212l-1.5-1.537a1.522,1.522,0,0,0-.228.247,1.147,1.147,0,0,0-.162.3,1.1,1.1,0,0,0-.059.364.881.881,0,0,0,.127.469.859.859,0,0,0,.364.323,1.333,1.333,0,0,0,.589.117" transform="translate(56.552 13.357)" fill="#0095ff"/>
      <path id="Path_20" data-name="Path 20" d="M89.146,25.952a.849.849,0,0,1-.418-.107.352.352,0,0,1-.193-.325V19.8a.334.334,0,0,1,.22-.323,1.207,1.207,0,0,1,.961,0,.334.334,0,0,1,.22.323V24.73h2.051a.326.326,0,0,1,.306.188.95.95,0,0,1,0,.841.325.325,0,0,1-.306.193Z" transform="translate(61.302 13.419)" fill="#0095ff"/>
      <path id="Path_21" data-name="Path 21" d="M93.443,25.952a1.087,1.087,0,0,1-.481-.107.347.347,0,0,1-.22-.325V19.8a.334.334,0,0,1,.22-.323,1.207,1.207,0,0,1,.961,0,.334.334,0,0,1,.22.323v5.719a.347.347,0,0,1-.22.325,1.087,1.087,0,0,1-.481.107" transform="translate(64.215 13.419)" fill="#0095ff"/>
      <path id="Path_22" data-name="Path 22" d="M96.44,25.952a1.087,1.087,0,0,1-.481-.107.346.346,0,0,1-.222-.325V19.8a.333.333,0,0,1,.222-.323,1.207,1.207,0,0,1,.961,0,.334.334,0,0,1,.22.323v2.16l1.682-2.385a.426.426,0,0,1,.369-.2.771.771,0,0,1,.372.108,1.121,1.121,0,0,1,.323.271.528.528,0,0,1,.13.342.523.523,0,0,1-.017.125.444.444,0,0,1-.073.144l-1.476,1.853,1.863,2.85a.446.446,0,0,1,.071.234.541.541,0,0,1-.125.332.982.982,0,0,1-.32.266.831.831,0,0,1-.4.1.638.638,0,0,1-.271-.058.511.511,0,0,1-.215-.2l-1.538-2.337-.377.486v1.626a.347.347,0,0,1-.22.325,1.087,1.087,0,0,1-.481.107" transform="translate(66.29 13.419)" fill="#0095ff"/>
      <path id="Path_23" data-name="Path 23" d="M102.69,26.006a1.434,1.434,0,0,1-.575-.117.561.561,0,0,1-.342-.352l-1.682-5.485a.637.637,0,0,1-.017-.1.383.383,0,0,1,.144-.3,1.109,1.109,0,0,1,.355-.2,1.143,1.143,0,0,1,.4-.078.7.7,0,0,1,.3.059.288.288,0,0,1,.161.2l1.259,4.614,1.249-4.614a.32.32,0,0,1,.168-.2.671.671,0,0,1,.291-.059,1.236,1.236,0,0,1,.757.279.388.388,0,0,1,.144.3.248.248,0,0,1-.005.044.475.475,0,0,1-.014.052l-1.672,5.485a.561.561,0,0,1-.337.352,1.429,1.429,0,0,1-.58.117" transform="translate(69.292 13.419)" fill="#0095ff"/>
      <path id="Path_24" data-name="Path 24" d="M105.764,25.952a1.087,1.087,0,0,1-.481-.107.347.347,0,0,1-.22-.325V19.8a.334.334,0,0,1,.22-.323,1.158,1.158,0,0,1,.481-.1,1.172,1.172,0,0,1,.482.1.334.334,0,0,1,.22.323v5.719a.347.347,0,0,1-.22.325,1.1,1.1,0,0,1-.482.107" transform="translate(72.747 13.419)" fill="#0095ff"/>
      <path id="Path_25" data-name="Path 25" d="M108.67,25.952a.721.721,0,0,1-.447-.125.364.364,0,0,1-.164-.3V19.8a.367.367,0,0,1,.164-.3.733.733,0,0,1,.447-.125h1.591a2.941,2.941,0,0,1,1.124.206,1.654,1.654,0,0,1,.8.675,2.3,2.3,0,0,1,.293,1.241v2.329a2.3,2.3,0,0,1-.293,1.241,1.673,1.673,0,0,1-.8.675,2.941,2.941,0,0,1-1.124.2Zm.79-1.222h.8a.785.785,0,0,0,.592-.22.932.932,0,0,0,.217-.679V21.5a.929.929,0,0,0-.217-.679.786.786,0,0,0-.592-.222h-.8Z" transform="translate(74.821 13.42)" fill="#0095ff"/>
      <path id="Path_26" data-name="Path 26" d="M113.421,25.974a1.18,1.18,0,0,1-.4-.076,1.075,1.075,0,0,1-.355-.206.391.391,0,0,1-.144-.293.563.563,0,0,1,.019-.1l1.672-5.485a.567.567,0,0,1,.342-.35,1.509,1.509,0,0,1,1.156,0,.567.567,0,0,1,.337.35l1.682,5.485a.693.693,0,0,1,.017.1.386.386,0,0,1-.144.293,1.075,1.075,0,0,1-.352.206,1.16,1.16,0,0,1-.4.076.646.646,0,0,1-.293-.059.314.314,0,0,1-.166-.2l-.306-1.124h-1.9l-.3,1.124a.283.283,0,0,1-.162.2.67.67,0,0,1-.3.059m1.051-2.464h1.313l-.657-2.408Z" transform="translate(77.91 13.397)" fill="#0095ff"/>
      <path id="Path_27" data-name="Path 27" d="M119.626,26.006a2.781,2.781,0,0,1-1.078-.206,1.667,1.667,0,0,1-.787-.675,2.316,2.316,0,0,1-.293-1.241V21.5a2.316,2.316,0,0,1,.293-1.241,1.664,1.664,0,0,1,.787-.674,2.751,2.751,0,0,1,1.078-.208,3,3,0,0,1,1.156.212,1.9,1.9,0,0,1,.806.608,1.58,1.58,0,0,1,.3.97.657.657,0,0,1-.171.536.884.884,0,0,1-.531.129,1.166,1.166,0,0,1-.481-.09.36.36,0,0,1-.22-.332,1.383,1.383,0,0,0-.022-.225.9.9,0,0,0-.095-.269.557.557,0,0,0-.234-.225.926.926,0,0,0-.45-.091.788.788,0,0,0-.6.222.943.943,0,0,0-.212.679v2.383a.936.936,0,0,0,.215.679.809.809,0,0,0,.6.222.849.849,0,0,0,.426-.091.553.553,0,0,0,.228-.23,1.04,1.04,0,0,0,.1-.291,2.337,2.337,0,0,0,.036-.288.36.36,0,0,1,.22-.337,1.2,1.2,0,0,1,.472-.086.9.9,0,0,1,.54.13.657.657,0,0,1,.171.536,1.732,1.732,0,0,1-.3,1.015,1.879,1.879,0,0,1-.806.643,2.874,2.874,0,0,1-1.156.22" transform="translate(81.336 13.419)" fill="#0095ff"/>
      <path id="Path_28" data-name="Path 28" d="M122.7,25.952a.849.849,0,0,1-.418-.107.352.352,0,0,1-.193-.325V19.812a.35.35,0,0,1,.193-.325.85.85,0,0,1,.418-.108h3.2a.337.337,0,0,1,.323.195.862.862,0,0,1,.1.41.834.834,0,0,1-.108.435.345.345,0,0,1-.315.184h-2.41v1.52h1.349a.349.349,0,0,1,.315.168.674.674,0,0,1,.108.381.732.732,0,0,1-.1.355.344.344,0,0,1-.325.174h-1.349v1.53h2.41a.345.345,0,0,1,.315.184.834.834,0,0,1,.108.435.862.862,0,0,1-.1.41.336.336,0,0,1-.323.193Z" transform="translate(84.536 13.419)" fill="#0095ff"/>
      <path id="Path_29" data-name="Path 29" d="M10.4,28.683a6.6,6.6,0,1,1,6.605-6.6,6.613,6.613,0,0,1-6.605,6.6m0-10.462a3.858,3.858,0,1,0,3.859,3.859A3.863,3.863,0,0,0,10.4,18.221" transform="translate(2.63 10.715)" fill="#0095ff"/>
      <path id="Path_30" data-name="Path 30" d="M40.867,39.257a6.523,6.523,0,0,1-6.419-5.411H17.6a1.282,1.282,0,0,1,0-2.564H30.425V5.5c0-1.308-.342-2.869-1.967-2.869H5.748c-1.626,0-1.968,1.56-1.968,2.869V5.72a1.281,1.281,0,1,1-2.562,0V5.5C1.217,2.2,2.994.069,5.748.069h22.71C31.21.069,32.989,2.2,32.989,5.5v25.78h1.528a6.516,6.516,0,0,1,12.7,0h6.59a1.282,1.282,0,0,1,0,2.564H47.288a6.523,6.523,0,0,1-6.421,5.411M36.92,32.6v.056c0,.029,0,.058,0,.086a3.949,3.949,0,0,0,7.9,0c0-.042,0-.083,0-.125l0-.012c0-.039,0-.08-.005-.12a3.95,3.95,0,0,0-7.888.115m-30,1.244H5.927c-2.752,0-4.531-2.132-4.531-5.433V23.7a1.282,1.282,0,0,1,2.564,0v4.717c0,1.308.342,2.869,1.967,2.869H6.92a1.282,1.282,0,0,1,0,2.564" transform="translate(0.843 0.048)" fill="#0095ff"/>
      <path id="Path_31" data-name="Path 31" d="M1.216,5.09h6.9a1.167,1.167,0,1,1,0,2.334h-6.9a1.167,1.167,0,1,1,0-2.334" transform="translate(0.033 3.525)" fill="#0095ff" fill-rule="evenodd"/>
      <path id="Path_32" data-name="Path 32" d="M1.884,7.8h8.347a1.168,1.168,0,0,1,0,2.336H1.884a1.168,1.168,0,0,1,0-2.336" transform="translate(0.496 5.404)" fill="#0095ff" fill-rule="evenodd"/>
      <path id="Path_33" data-name="Path 33" d="M1.168,10.626h6.9a1.167,1.167,0,1,1,0,2.334h-6.9a1.167,1.167,0,1,1,0-2.334" transform="translate(0 7.358)" fill="#0095ff" fill-rule="evenodd"/>
      <path id="Path_34" data-name="Path 34" d="M37.95,25.931a1.281,1.281,0,0,1-1.281-1.281v-9.3A1.926,1.926,0,0,0,34.7,13.385H23.5a1.282,1.282,0,0,1,0-2.564H34.7a4.486,4.486,0,0,1,4.529,4.531v9.3a1.281,1.281,0,0,1-1.281,1.281" transform="translate(15.385 7.493)" fill="#0095ff"/>
      <path id="Path_35" data-name="Path 35" d="M36.223,17.894a1.283,1.283,0,0,1-1.239-.955L33,9.447c-.112-.425-.2-.824-.274-1.178-.355-1.659-.4-1.659-1.193-1.659H20.15a1.282,1.282,0,0,1,0-2.564H31.532c2.909,0,3.366,2.129,3.7,3.683.074.342.151.7.247,1.061l1.985,7.492a1.282,1.282,0,0,1-1.241,1.611" transform="translate(13.065 2.803)" fill="#0095ff"/>
      <path id="Path_36" data-name="Path 36" d="M79.869,3.243A2.955,2.955,0,1,1,76.914.286a2.951,2.951,0,0,1,2.955,2.957" transform="translate(51.21 0.199)" fill="#2d2d2d" fill-rule="evenodd"/>
    </g>
  </g>
</svg>
