<svg xmlns="http://www.w3.org/2000/svg" width="27.797" height="26.429" viewBox="0 0 27.797 26.429">
  <g id="kosik" transform="translate(0.55 0.55)">
    <path id="Path_132" data-name="Path 132" d="M176.135,491.889a2.705,2.705,0,1,1-2.705,2.705,2.708,2.708,0,0,1,2.705-2.705m0,4.426a1.721,1.721,0,1,0-1.721-1.721,1.723,1.723,0,0,0,1.721,1.721" transform="translate(-166.407 -471.97)" fill="#006fb0" stroke="#006fb0" stroke-width="1.1"/>
    <path id="Path_133" data-name="Path 133" d="M499.8,491.889a2.705,2.705,0,1,1-2.705,2.705,2.708,2.708,0,0,1,2.705-2.705m0,4.426a1.721,1.721,0,1,0-1.721-1.721,1.723,1.723,0,0,0,1.721,1.721" transform="translate(-476.962 -471.97)" fill="#006fb0" stroke="#006fb0" stroke-width="1.1"/>
    <path id="Path_134" data-name="Path 134" d="M1483.963,142.454h-5.078l3.013,12.108h4.743Z" transform="translate(-1472.998 -137.065)" fill="#dbf4ff"/>
    <path id="Path_131" data-name="Path 131" d="M3.022,0A2.557,2.557,0,0,1,5.515,1.964l.7,2.889H24.122a2.565,2.565,0,0,1,2.492,3.171L24.507,16.68a2.558,2.558,0,0,1-2.492,1.958H10.547A2.558,2.558,0,0,1,8.056,16.68l-.734-3.017h0l-.013-.055L5.177,4.853H5.2l-.64-2.658A1.576,1.576,0,0,0,3.022.984H.492A.492.492,0,0,1,.492,0ZM9.011,16.447a1.577,1.577,0,0,0,1.536,1.207H22.016a1.577,1.577,0,0,0,1.536-1.207l2.107-8.656a1.581,1.581,0,0,0-1.536-1.954H6.448l1.3,5.417H20.115a.492.492,0,0,1,0,.984H7.99l.288,1.195Z" fill="#006fb0" stroke="#006fb0" stroke-width="1.1"/>
  </g>
</svg>
