<svg xmlns="http://www.w3.org/2000/svg" xmlns:xlink="http://www.w3.org/1999/xlink" width="164.882" height="28.171" viewBox="0 0 164.882 28.171">
  <defs>
    <clipPath id="clip-path">
      <rect id="Rectangle_93" data-name="Rectangle 93" width="164.882" height="28.171" fill="#003250"/>
    </clipPath>
  </defs>
  <g id="kymco" transform="translate(0 0)">
    <path id="Path_1393" data-name="Path 1393" d="M113.16,5.621,109.6,15.978,106.032,5.621H98.886v17.3h5.187V13.843l3.123,9.075H112l3.426-9.958v9.958h5.187V5.621Zm-20.649.035-4.059,5.3-4.059-5.3-5.224-.033,0,0h-.306l-.725,0,0,0H70.813L63.8,10.684V5.621H58.886v17.3H63.8v-6.2L67,14.409l4.847,8.508h6.569l-6.76-11.869L78.509,6.1l7.357,9.6v7.217h5.2V15.723l7.7-10.107Zm38.958-.413-1.057.14-1.021.228-.98.311-.935.39-.882.463-.826.534-.761.6-.7.66-.62.714-.54.767-.455.814-.364.856-.268.894-.164.928-.056.952.056.954.164.926.268.894.364.857.455.814.54.766.62.716.7.659.761.6.826.533.882.463.935.389.98.311,1.021.227,1.057.14,1.088.048.928-.034.906-.1.881-.166.854-.229.822-.286.787-.344.75-.4.708-.448.663-.493.615-.54.564-.583.508-.622.451-.659.388-.693.323-.724.4-1.2H137.4l-.281.442-.191.258-.212.247-.231.234-.25.221-.267.2-.282.191-.3.174-.314.158-.326.139-.34.121-.351.1-.362.079-.371.058-.38.035-.386.011-.546-.023-.526-.069-.509-.112-.486-.154-.464-.19-.435-.226-.407-.26-.373-.291-.341-.317-.3-.343-.261-.367-.22-.387-.175-.405-.127-.42-.079-.434-.026-.449.026-.448.079-.435.127-.421.175-.4.219-.387.262-.367.3-.343.341-.318.373-.29.407-.259.436-.226.463-.192.486-.152.509-.112.527-.069.545-.023.371.01.367.033.359.054.35.073.34.094.33.112.317.13.307.145.292.163.279.179.264.192.248.205.23.22.215.231.194.242.289.415h5.761l-.431-1.191-.332-.707-.4-.675-.454-.644-.51-.605-.564-.568-.613-.525-.659-.483-.7-.435-.742-.386-.779-.334-.812-.279-.842-.222-.87-.162-.893-.1-.915-.034Zm22.156,13.673-.526-.069-.508-.112-.487-.154-.463-.19-.437-.226-.406-.26-.373-.291-.341-.317-.3-.343-.262-.367-.22-.387-.175-.405-.128-.42-.078-.434-.026-.449.026-.448.078-.435.128-.421.175-.4.22-.387.262-.367.3-.343.341-.318.373-.29.406-.259.437-.226.463-.192.487-.152.508-.112.526-.069.544-.023.542.023.526.069.509.112.488.152.463.192.436.226.406.26.374.289.339.318.3.343.261.367.22.387.174.4.128.421.079.435.026.448-.026.448-.079.435-.128.42-.174.405-.22.387-.261.367-.3.343-.34.317-.374.291-.406.26-.436.226-.463.19-.488.154-.509.112-.526.069-.542.023ZM153.08,5.243l-1.058.14L151,5.61l-.98.311-.934.39-.883.463-.825.534-.762.6-.694.66-.619.714-.541.767-.455.814-.365.856-.267.894-.165.928-.054.952.054.954.165.926.267.894.365.857.455.814.541.766.619.716.694.659.762.6.825.533.883.463.934.389.98.311,1.022.227,1.058.14,1.088.048,1.086-.048,1.058-.14,1.021-.227.981-.311.933-.389.883-.463.825-.533.763-.6.693-.659.62-.716.54-.766.457-.814.364-.857.267-.894.165-.926.056-.954-.056-.952-.165-.928-.267-.894-.364-.856-.457-.814-.54-.767-.62-.714-.693-.66-.763-.6-.825-.534-.883-.463-.933-.39-.981-.311-1.021-.228-1.058-.14-1.086-.048ZM25.205,25.278l-.535-.009-.53-.015-.528-.023-.524-.028-.52-.035-.517-.039-.512-.047-.509-.053-.5-.058-.5-.064-.5-.07-.49-.075-.488-.081-.48-.086-.194-.037V18.682l.226.327.284.37.307.361.328.351.348.341.371.332.389.32.408.31.427.3.446.288.462.276.478.265.5.251.51.239.526.227.54.212.554.2.569.186.58.172.593.156.6.141.615.127.626.111.636.095.644.078.655.063.661.043.67.026h.037l-.16.023-.357.05-.359.045-.362.043-.364.039-.366.038-.369.034-.37.03-.373.026-.374.025-.377.022-.377.019-.38.014-.382.012-.383.008-.385,0-.387,0ZM36.08,21.957l-.6-.029-.587-.047-.579-.068-.568-.084-.557-.1-.544-.119-.533-.137-.52-.151-.5-.167-.491-.182-.475-.2-.458-.209-.442-.223L28.8,20l-.405-.249-.384-.259-.365-.271-.343-.281-.321-.291-.3-.3-.277-.309-.252-.317-.229-.325-.2-.331-.178-.339-.152-.343-.126-.349-.1-.355-.071-.359-.043-.364-.014-.369.014-.369.043-.364.071-.359.1-.355L25.4,12.8l.152-.343.178-.339.2-.331.229-.324.252-.317.277-.309.3-.3.321-.291.344-.282.364-.27L28.4,9.43l.4-.247.422-.236.442-.223.458-.21.475-.2.491-.182.5-.168.52-.152.532-.135.545-.118.557-.1.568-.086.579-.066.587-.05.6-.028.6-.011.59.01.582.028.573.046.564.064.556.081.544.1.534.114.521.129.509.145.5.159.481.174.468.187.451.2.436.214.418.225,2.539,1.5.164.245.292.523.242.53.19.539.136.544.083.551.027.561-.012.38-.039.38-.064.376-.091.373-.114.371-.139.367-.163.363-.19.36-.212.356-.235.353-.258.348-.282.342-.3.339-.326.332-.347.327-.353.306L44.567,20l-.423.235-.439.224-.459.21-.476.2-.491.182-.5.167-.519.152-.534.137-.545.12-.556.1-.569.085-.578.067-.587.048-.6.029-.605.01ZM8.835,21.369l-.667-.408-.629-.421L6.95,20.1,6.4,19.656,5.9,19.194l-.463-.472-.417-.484-.372-.493-.326-.5-.278-.51-.229-.517-.179-.523L3.5,15.165l-.079-.537L3.4,14.086l.028-.557.083-.552.138-.544.189-.539.242-.53.292-.523.343-.514.392-.5.441-.493.487-.483.534-.471.577-.458.62-.442.661-.429.7-.413.738-.395.778-.375.813-.359.846-.339.879-.318.911-.3.94-.275L16,4.021l1-.23,1.021-.205,1.043-.179,1.068-.155,1.086-.129,1.107-.1,1.124-.073L24.586,2.9l1.155-.016L26.9,2.9l1.141.044,1.125.073,1.106.1,1.087.129,1.067.155,1.043.179,1.02.205,1,.23.969.253.94.275.911.3.879.318.846.339.813.359.777.375.739.4.7.412.662.429.618.442.578.458.533.47.487.484.074.082-1.064-.877-.289-.223-.3-.218-.308-.213-.315-.207-.326-.2-.333-.2-.343-.188-.35-.183-.358-.176-.366-.17L41.286,6.4,40.9,6.24l-.388-.15-.4-.142-.4-.136-.409-.129-.416-.121L38.47,5.45l-.43-.107-.433-.1-.439-.09-.446-.083L36.271,5l-.455-.065-.46-.058-.464-.049-.469-.041-.473-.031-.478-.023-.481-.015-.485,0-.675.009-.67.027-.661.044-.655.061-.645.079-.635.095-.626.112-.615.125-.6.142-.593.157-.58.171-.569.186-.554.2-.54.212-.525.226-.511.239-.5.252-.478.264-.462.277-.446.286-.427.3-.408.31-.389.321-.37.331-.349.341-.328.351-.307.36-.284.371-.226.328V4.648l-1.023.216L16.263,5l-.582.144-.571.151-.561.159L14,5.619l-.538.175-.526.181-.514.191-.5.2-.488.2-.476.21L10.5,7l-.448.225-.433.231-.593.336V21.472ZM25.741,0,24.428.019l-1.3.053L21.854.16,20.6.282,19.36.437,18.146.625,16.958.842,15.8,1.091l-1.134.279-1.105.307-1.073.335-1.041.361-1.007.388-.971.413-.934.437-.9.462-.854.485-.812.507L5.2,5.593l-.723.549L3.8,6.712,3.176,7.3,2.6,7.907l-.524.625-.47.643-.414.659-.356.675-.3.69-.234.7-.17.717-.1.728L0,14.085l.035.738.1.728.17.718.234.7.3.69.356.675.414.66.47.642.524.627.576.607.627.587.675.569.723.55.768.528.812.507.854.484.9.462L9.464,25l.971.414,1.007.387,1.041.362,1.073.334,1.105.307,1.134.278,1.162.249,1.188.22,1.214.186,1.236.155,1.258.123,1.279.088,1.3.053,1.313.018,1.313-.018,1.3-.053,1.278-.088,1.258-.123,1.236-.154,1.214-.187,1.189-.22,1.161-.249,1.135-.278,1.1-.307L39,26.161,40.04,25.8l1.008-.387L42.019,25l.934-.438.893-.462.855-.484.812-.507.768-.528.723-.55.675-.569.627-.588.576-.607.524-.627L49.877,19l.414-.66.356-.675.3-.69.234-.7.17-.718.1-.728.034-.738-.034-.737-.1-.728-.17-.717-.234-.7-.3-.69-.356-.675-.414-.659-.471-.643-.524-.625L48.307,7.3l-.627-.588L47,6.142l-.723-.549-.768-.529L44.7,4.558l-.855-.485-.893-.461-.934-.438-.971-.413L40.04,2.373,39,2.011l-1.075-.335-1.1-.307-1.135-.279L34.525.842,33.336.625,32.123.437,30.887.282,29.629.16,28.351.072l-1.3-.053Z" transform="translate(0 0)" fill="#003250"/>
    <g id="Group_255" data-name="Group 255" transform="translate(0 0)">
      <g id="Group_254" data-name="Group 254" clip-path="url(#clip-path)">
        <path id="Path_1394" data-name="Path 1394" d="M63.143,22.932V6.338h4.212v5.4l7.475-5.4h7.157L75.1,11.314l6.618,11.618h-5.76l-4.939-8.671-3.662,2.644v6.027Zm26.98,0V15.947L82.76,6.338l5.362.034L92.356,11.9,96.59,6.372l5.362-.034L94.616,15.97v6.962Zm13.019,0V6.338h6.543L113.5,17.424l3.816-11.086h6.846V22.932h-4.484V11.224l-4.029,11.708h-4.3l-3.726-10.827V22.932Zm54.93-17.02c5.707,0,10.362,4.018,10.362,8.944S163.779,23.8,158.072,23.8s-10.361-4.018-10.361-8.946,4.654-8.944,10.361-8.944m0,4.145c3.1,0,5.626,2.155,5.626,4.8s-2.53,4.8-5.626,4.8-5.626-2.155-5.626-4.8,2.53-4.8,5.626-4.8M136.461,5.912c4.788,0,8.832,2.827,10.012,6.645H141.4a5.839,5.839,0,0,0-4.936-2.5c-3.1,0-5.626,2.155-5.626,4.8s2.53,4.8,5.626,4.8a5.8,5.8,0,0,0,5.04-2.672h5.024c-1.112,3.9-5.206,6.817-10.064,6.817-5.707,0-10.361-4.018-10.361-8.946s4.654-8.944,10.361-8.944" transform="translate(-3.904 -0.365)" fill="#003250" fill-rule="evenodd"/>
        <path id="Path_1395" data-name="Path 1395" d="M25.765.374c13.983,0,25.389,6.169,25.389,13.734S39.748,27.842,25.765,27.842.375,21.672.375,14.108,11.78.374,25.765.374M32.53,5.086c5.113,0,9.66,1.564,12.489,3.968a15.961,15.961,0,0,0-8.31-2.164c-6.609,0-11.995,3.471-11.995,7.726s5.386,7.726,11.995,7.726a15.838,15.838,0,0,0,8.477-2.272c2.075-1.742,3.273-3.783,3.273-5.961,0-6.361-10.2-11.548-22.694-11.548S3.07,7.747,3.07,14.108c0,3.093,2.412,5.909,6.327,7.985V8.015A26.75,26.75,0,0,1,17.55,5.105v7.18c1.78-4.138,7.827-7.2,14.98-7.2m4.662,18.991a23.958,23.958,0,0,1-4.662.451c-7.153,0-13.2-3.063-14.98-7.2v7.544a42.327,42.327,0,0,0,8.215.785,40.372,40.372,0,0,0,11.427-1.579" transform="translate(-0.023 -0.023)" fill="#003250" fill-rule="evenodd"/>
      </g>
    </g>
  </g>
</svg>
