<svg xmlns="http://www.w3.org/2000/svg" width="18.287" height="26.008" viewBox="0 0 18.287 26.008">
  <g id="Group_468" data-name="Group 468" transform="translate(-7.096)">
    <g id="Group_13" data-name="Group 13" transform="translate(0 0)">
      <path id="Path_32" data-name="Path 32" d="M46.524,20.587a6.1,6.1,0,0,1,4.572-5.9,6.1,6.1,0,1,0,0,11.807,6.1,6.1,0,0,1-4.572-5.9" transform="translate(-33.333 -13.476)" fill="#dbf4ff"/>
      <path id="Path_33" data-name="Path 33" d="M17.54,225.1a7.664,7.664,0,0,1,6.6-7.593,9.084,9.084,0,0,0-1.524-.128c-4.489,0-8.127,3.232-8.127,7.721a2.032,2.032,0,0,0,2.032,2.032h3.048A2.032,2.032,0,0,1,17.54,225.1" transform="translate(-6.38 -202.143)" fill="#dbf4ff"/>
      <path id="Path_34" data-name="Path 34" d="M43.208,7.111A7.111,7.111,0,1,0,36.1,14.223a7.119,7.119,0,0,0,7.111-7.111M36.1,12.191a5.08,5.08,0,1,1,5.08-5.08,5.085,5.085,0,0,1-5.08,5.08" transform="translate(-19.858 0)" fill="#006fb0"/>
      <path id="Path_35" data-name="Path 35" d="M0,211.628a3.051,3.051,0,0,0,3.048,3.048H15.239a3.051,3.051,0,0,0,3.048-3.048,8.488,8.488,0,0,0-2.7-6.287,9.386,9.386,0,0,0-6.439-2.45,9.386,9.386,0,0,0-6.439,2.45A8.488,8.488,0,0,0,0,211.628m9.143-6.705a6.765,6.765,0,0,1,7.111,6.705,1.017,1.017,0,0,1-1.016,1.016H3.048a1.017,1.017,0,0,1-1.016-1.016,6.765,6.765,0,0,1,7.111-6.705" transform="translate(7.096 -188.668)" fill="#006fb0"/>
    </g>
  </g>
</svg>
