<svg id="logo" xmlns="http://www.w3.org/2000/svg" xmlns:xlink="http://www.w3.org/1999/xlink" width="314.72" height="104.453" viewBox="0 0 314.72 104.453">
  <defs>
    <clipPath id="clip-path">
      <rect id="Rectangle_83" data-name="Rectangle 83" width="314.72" height="104.453" fill="#003250"/>
    </clipPath>
  </defs>
  <g id="Group_210" data-name="Group 210" clip-path="url(#clip-path)">
    <path id="Path_1345" data-name="Path 1345" d="M301.246,50.637l-189.366,0a.541.541,0,0,1,0-1.083l189.366,0a.541.541,0,0,1,0,1.083" transform="translate(12.933 5.756)" fill="#ff5104"/>
    <path id="Path_1346" data-name="Path 1346" d="M112.072,38.182a.541.541,0,0,1-.6-.619V36.094a.541.541,0,0,1,.6-.621H124.95L114.138,30.4c-2.342-1.1-2.8-2.365-2.8-4.017,0-2.044,1.492-3.856,4.452-3.856h16.894a.541.541,0,0,1,.619.6v1.469a.548.548,0,0,1-.619.619H120.244l10.788,5.073c2.365,1.1,2.8,2.364,2.8,4.039,0,2.043-1.492,3.856-4.43,3.856Z" transform="translate(12.932 2.617)" fill="#003250"/>
    <path id="Path_1347" data-name="Path 1347" d="M132.936,38.182a.541.541,0,0,1-.6-.619V23.125a.534.534,0,0,1,.6-.6h7.9a.541.541,0,0,1,.621.6V37.563a.548.548,0,0,1-.621.619Z" transform="translate(15.372 2.617)" fill="#003250"/>
    <path id="Path_1348" data-name="Path 1348" d="M151.314,38.182a2.059,2.059,0,0,1-1.538-.619l-7.85-6.817a1.236,1.236,0,0,1-.436-1.1v-.666c0-.527.092-.711.46-.917l9.18-4.935a3.975,3.975,0,0,1,1.974-.6h4.637c.321,0,.482.183.482.39a.434.434,0,0,1-.276.391L148.835,28.2l10.65,8.953a.744.744,0,0,1,.321.574c0,.252-.206.459-.665.459Z" transform="translate(16.435 2.617)" fill="#003250"/>
    <path id="Path_1349" data-name="Path 1349" d="M165.332,38.182c-5.647,0-7.828-2.8-7.828-7.207v-7.85a.525.525,0,0,1,.6-.6h8.584a.534.534,0,0,1,.6.6v7.85c0,2.8,1.147,4.5,3.741,4.5h3.948c2.617,0,3.834-1.7,3.834-4.5v-7.85a.541.541,0,0,1,.619-.6h2.755a.541.541,0,0,1,.619.6v7.85c0,4.016-2.479,7.207-7.828,7.207Z" transform="translate(18.295 2.617)" fill="#003250"/>
    <path id="Path_1350" data-name="Path 1350" d="M188.205,38.182c-.3,0-.436-.092-.436-.3V25.213h-6.233c-.3,0-.436-.069-.436-.252V22.826c0-.206.137-.3.436-.3h21.579c.3,0,.436.092.436.3v2.135c0,.183-.138.252-.436.252h-6.256V37.884c0,.206-.137.3-.413.3Z" transform="translate(21.036 2.617)" fill="#003250"/>
    <path id="Path_1351" data-name="Path 1351" d="M221.452,38.182a2.012,2.012,0,0,1-1.516-.619l-6.908-7.093a1.033,1.033,0,0,1-.391-.849v-.711a.524.524,0,0,1,.6-.6h3.144c1.447,0,2.181-.574,2.181-1.56s-.734-1.538-2.181-1.538H211.26V37.563a.548.548,0,0,1-.619.619h-7.873a.548.548,0,0,1-.619-.619V23.125a.541.541,0,0,1,.619-.6h20.062c2.777,0,4.866,1.63,4.866,3.994,0,2.594-2.02,4.063-4.477,4.43l6.335,6.5a.488.488,0,0,1,.161.367.375.375,0,0,1-.413.367Z" transform="translate(23.48 2.617)" fill="#003250"/>
    <path id="Path_1352" data-name="Path 1352" d="M233.858,38.182a.541.541,0,0,1-.6-.619V32.1l-8.239-8.791a.594.594,0,0,1-.208-.413.417.417,0,0,1,.46-.367h9.251a1.358,1.358,0,0,1,1.032.459l6.105,6.7,6.358-6.726a1.16,1.16,0,0,1,1.01-.435h1.332c.3,0,.436.161.436.344a.485.485,0,0,1-.115.3l-8.309,8.791v5.6a.548.548,0,0,1-.621.619Z" transform="translate(26.113 2.617)" fill="#003250"/>
    <path id="Path_1353" data-name="Path 1353" d="M244.146,36.992a.7.7,0,0,1-.778-.778v-2.49a.69.69,0,0,1,.778-.761h2.75a.683.683,0,0,1,.778.761v2.49a.688.688,0,0,1-.778.778Z" transform="translate(28.268 3.829)" fill="#ff5104"/>
    <path id="Path_1354" data-name="Path 1354" d="M254.745,37.8a5.6,5.6,0,0,1-5.672-5.9,5.546,5.546,0,0,1,5.672-5.9h11.777a.408.408,0,0,1,.467.45v1.107a.412.412,0,0,1-.467.467h-7.73c-1.5,0-2.04.57-2.04,2.7v1.885c0,2.352.623,3.148,2.04,3.148h7.8a.407.407,0,0,1,.45.467v1.107a.407.407,0,0,1-.45.467Z" transform="translate(28.931 3.021)" fill="#ff5104"/>
    <path id="Path_1355" data-name="Path 1355" d="M266.614,37.8a.408.408,0,0,1-.45-.467V36.227a.909.909,0,0,1,.381-.83l8.474-7.367h-8.042a.412.412,0,0,1-.467-.467V26.456a.408.408,0,0,1,.467-.45h16.152a.4.4,0,0,1,.45.45v1.107a.918.918,0,0,1-.381.847l-7.851,7.35h7.989a.413.413,0,0,1,.468.467v1.107a.413.413,0,0,1-.468.467Z" transform="translate(30.916 3.021)" fill="#ff5104"/>
    <path id="Path_1356" data-name="Path 1356" d="M114.791,72.547l-3.453-8.929h2.169l2.476,6.868,2.463-6.868h2.17l-3.441,8.929Z" transform="translate(12.932 7.39)" fill="#003250"/>
    <path id="Path_1357" data-name="Path 1357" d="M121.143,70.121a3.913,3.913,0,0,0,2.837,1.2c1.044,0,1.553-.5,1.553-1,0-.67-.777-.9-1.807-1.138-1.46-.335-3.333-.736-3.333-2.731,0-1.486,1.285-2.69,3.386-2.69a4.968,4.968,0,0,1,3.48,1.245L126.2,66.4a3.81,3.81,0,0,0-2.557-.978c-.857,0-1.311.375-1.311.91,0,.6.749.79,1.78,1.031,1.472.335,3.346.777,3.346,2.758,0,1.633-1.164,2.864-3.574,2.864a5.14,5.14,0,0,1-3.788-1.419Zm1.886-6.975-1.271-1.928H122.8l.991,1.205.936-1.205h1.045l-1.219,1.928Z" transform="translate(13.95 7.111)" fill="#003250"/>
    <path id="Path_1358" data-name="Path 1358" d="M128.27,72.547V63.618h6.317v1.633H130.17v1.942h4.324v1.633H130.17V70.9h4.418v1.646Z" transform="translate(14.899 7.39)" fill="#003250"/>
    <path id="Path_1359" data-name="Path 1359" d="M139.177,72.547V63.618h4.177a2.868,2.868,0,1,1,0,5.729h-2.276v3.2Zm3.922-7.3h-2.021v2.463H143.1a1.234,1.234,0,1,0,0-2.463" transform="translate(16.166 7.39)" fill="#003250"/>
    <path id="Path_1360" data-name="Path 1360" d="M152.132,72.547l-1.753-3.2h-1.392v3.2h-1.9V63.618h4.176a2.78,2.78,0,0,1,3,2.879,2.559,2.559,0,0,1-1.954,2.65l2.008,3.4Zm-1.152-7.3h-1.993v2.463h1.993a1.236,1.236,0,1,0,0-2.463" transform="translate(17.085 7.39)" fill="#003250"/>
    <path id="Path_1361" data-name="Path 1361" d="M159.495,63.486a4.619,4.619,0,1,1-4.658,4.619,4.487,4.487,0,0,1,4.658-4.619m0,1.687a2.94,2.94,0,1,0,2.719,2.932,2.7,2.7,0,0,0-2.719-2.932" transform="translate(17.985 7.374)" fill="#003250"/>
    <path id="Path_1362" data-name="Path 1362" d="M170.914,72.547l-3.453-8.929h2.169l2.476,6.868,2.463-6.868h2.17L173.3,72.547Z" transform="translate(19.451 7.39)" fill="#003250"/>
    <path id="Path_1363" data-name="Path 1363" d="M182.727,72.825l-.563-1.539h-3.989l-.563,1.539h-2.087l3.452-8.928h2.383l3.441,8.928Zm-2.557-7.282-1.486,4.1h2.958Zm.549-2.4h-1.191l1.793-1.928h1.566Z" transform="translate(20.388 7.111)" fill="#003250"/>
    <path id="Path_1364" data-name="Path 1364" d="M185.414,70.121a3.913,3.913,0,0,0,2.837,1.2c1.044,0,1.553-.5,1.553-1,0-.67-.777-.9-1.807-1.138-1.46-.335-3.333-.736-3.333-2.731,0-1.486,1.285-2.69,3.386-2.69a4.968,4.968,0,0,1,3.48,1.245L190.473,66.4a3.811,3.811,0,0,0-2.557-.978c-.857,0-1.311.375-1.311.91,0,.6.749.79,1.78,1.031,1.472.335,3.346.777,3.346,2.758,0,1.633-1.164,2.864-3.574,2.864a5.14,5.14,0,0,1-3.788-1.419Zm1.886-6.975-1.271-1.928h1.044l.991,1.205L189,61.219h1.045l-1.219,1.928Z" transform="translate(21.415 7.111)" fill="#003250"/>
    <path id="Path_1365" data-name="Path 1365" d="M196.526,69.857a3.91,3.91,0,0,0,2.837,1.205c1.045,0,1.554-.5,1.554-1,0-.669-.777-.9-1.808-1.137-1.459-.335-3.333-.737-3.333-2.731,0-1.486,1.285-2.691,3.386-2.691a4.966,4.966,0,0,1,3.48,1.245l-1.057,1.393a3.807,3.807,0,0,0-2.557-.977c-.856,0-1.311.374-1.311.91,0,.6.749.789,1.78,1.031,1.472.335,3.346.776,3.346,2.757,0,1.633-1.164,2.865-3.574,2.865a5.142,5.142,0,0,1-3.788-1.42Z" transform="translate(22.706 7.376)" fill="#003250"/>
    <path id="Path_1366" data-name="Path 1366" d="M208.953,72.547l-2.7-3.574-.7.83v2.743h-1.9V63.618h1.9v3.989l3.16-3.989h2.343l-3.547,4.19,3.788,4.739Z" transform="translate(23.655 7.39)" fill="#003250"/>
    <path id="Path_1367" data-name="Path 1367" d="M211.705,63.9h1.926v5.3a2.062,2.062,0,1,0,4.124,0V63.9h1.926v5.354c0,2.222-1.271,3.735-3.975,3.735-2.731,0-4-1.526-4-3.721Zm4.551-.75h-1.191l1.794-1.928h1.566Z" transform="translate(24.591 7.111)" fill="#003250"/>
    <path id="Path_1368" data-name="Path 1368" d="M222.979,72.547V65.292h-2.611V63.618h7.122v1.674h-2.6v7.255Z" transform="translate(25.597 7.39)" fill="#003250"/>
    <path id="Path_1369" data-name="Path 1369" d="M233.311,72.547l-1.753-3.2h-1.392v3.2h-1.9V63.618h4.176a2.78,2.78,0,0,1,3,2.879,2.559,2.559,0,0,1-1.954,2.65l2.008,3.4Zm-1.152-7.3h-1.993v2.463h1.993a1.236,1.236,0,1,0,0-2.463" transform="translate(26.514 7.39)" fill="#003250"/>
    <path id="Path_1370" data-name="Path 1370" d="M237.257,69.807a1.084,1.084,0,1,1-1.085,1.085,1.1,1.1,0,0,1,1.085-1.085" transform="translate(27.433 8.109)" fill="#003250"/>
    <path id="Path_1371" data-name="Path 1371" d="M240.749,69.807a1.084,1.084,0,1,1-1.085,1.085,1.1,1.1,0,0,1,1.085-1.085" transform="translate(27.838 8.109)" fill="#003250"/>
    <path id="Path_1372" data-name="Path 1372" d="M244.24,69.807a1.084,1.084,0,1,1-1.085,1.085,1.1,1.1,0,0,1,1.085-1.085" transform="translate(28.244 8.109)" fill="#003250"/>
    <path id="Path_1373" data-name="Path 1373" d="M52.5,104.453A33.3,33.3,0,0,1,28.89,94.688L10.542,76.341A34.306,34.306,0,0,1,.289,53.434,33.2,33.2,0,0,1,10.05,28.622L28.89,9.781a33.4,33.4,0,0,1,47.227,0L94.464,28.128a34.3,34.3,0,0,1,10.253,22.908,33.2,33.2,0,0,1-9.76,24.811L76.116,94.688A33.294,33.294,0,0,1,52.5,104.453m0-100.262a29.125,29.125,0,0,0-20.659,8.543L13.434,31.145A30,30,0,0,0,4.465,51.186,29.042,29.042,0,0,0,13,72.893L31.844,91.733a29.217,29.217,0,0,0,41.318,0L92,72.893a29.217,29.217,0,0,0,0-41.318L73.162,12.734A29.127,29.127,0,0,0,52.5,4.191" transform="translate(0.031 0)" fill="rgba(255,81,4,0.2)"/>
    <path id="Path_1374" data-name="Path 1374" d="M104.416,49.982l-2.15-.807a14.877,14.877,0,0,0-3.879-.877L98,46.941a4.385,4.385,0,0,0-2.662-2.854l-9.89-3.712a6.123,6.123,0,0,0-4.008-.1l-2.5.795a6.13,6.13,0,0,1-4.008-.1l-5.447-2.045a6.8,6.8,0,0,0-6.571,1l-2.3,1.79a2.177,2.177,0,0,0-.752,2.325c.191.659,1.325,1.431,1.325,1.431.061,1.957.107,4.586-1.008,6.521-1.056,1.83-5.024,4.563-8.856,6.8-3.408,1.987-7.359,1.205-11.425,0l-4.006-1.275c-.974-1.855-5.456-7.941,1.5-16.958L54.145,22.393s-.353-.622-.79-1.332l3.155.9a1.383,1.383,0,0,0,1.56-.564,1.35,1.35,0,0,0-.77-2.016l-2.773-.794A4.542,4.542,0,0,0,55,17.841a.6.6,0,0,0,.036-.051l2.8-6a14.33,14.33,0,0,0,1.2,2.113s4.1,1.6,5.412,1c1.14-.518,1.467-4.423,1.467-4.423-2.453-1.126-2.519-1.153-4.126-1.9-2.294-1.063-4.207,1.671-4.207,1.671-.007.016-.009.036-.015.051a.405.405,0,0,0-.038.051l-2.712,5.814-.044-.069a5.377,5.377,0,0,1-.748-3.756l.253-1.493c-1.433-.537-4.057-.172-6.622.617a6,6,0,0,1,2.366,2.21l-7.508.075a4.442,4.442,0,0,0-1.79,1.78c-.074.2.089.477.394.8h0L45.394,20.9l-.715.375c-3.219-.182-9.01-.137-11.51,2.245l-.03.029-9.159,8.779,16.87-3.057a4.941,4.941,0,0,1-2.823,1.7L23.28,33.639a21.732,21.732,0,0,0-6.233,2.145l-3.1,1.628a1.122,1.122,0,0,0,.122,2.043l1.472.561L18.165,41a7.441,7.441,0,0,1,2.91,2.675A13.654,13.654,0,1,0,27.3,55.535a10.761,10.761,0,0,1-.371,8.253A19.234,19.234,0,0,1,25.52,66.2l31.9,7.687h0l.518.99a10.763,10.763,0,0,0,5.756,5.09l2.131-.837h0l1.858.792a13.609,13.609,0,1,0,24.88-6.662l-.012-.017,1.43-.732a.269.269,0,0,0,.146-.239v-.79l1.778-.326c0-1.028.394-1.028.394-2.057l-2.172-.161v-.827a.266.266,0,0,0-.2-.259c-.919-.253-1.971-.536-2.555-.67a39.236,39.236,0,0,0-6.728-.9.655.655,0,0,0,.119-.307.671.671,0,0,0-.607-.731l-.106-.01.058-.625.106.01a.672.672,0,0,0,.125-1.338l-.107-.01.067-.71.106.01a.672.672,0,0,0,.731-.607l.039-.42,6.48-1.124,4.631,5.153a4.984,4.984,0,0,1,1.246,2.764l.522,4.518,1.7.973-.172-6.949a.858.858,0,0,1,.961-.874l1.233.147.626-1.094-.134-.1A30.728,30.728,0,0,1,98.352,61.3c2.21-.786,3.268-2.508,2.627-3.919L99.956,55.1a5.155,5.155,0,0,0-4.054-3L74.388,49.366l23.06.732a13.024,13.024,0,0,1,4.163.824l2.2.825a.933.933,0,0,0,1.243-.7.968.968,0,0,0-.635-1.068m-89.742.6,1.567-2.963.012,0a7.937,7.937,0,0,1,5.185,5.92L15.11,51.633a.733.733,0,0,1-.436-1.046m-.131-3.347-3.72,5.366a.733.733,0,0,1-1.13.094L7.351,50.287a7.962,7.962,0,0,1,7.193-3.047M6.435,51.8l.039,0,3.956,5.19a.733.733,0,0,1-.261,1.1L7.085,59.606a7.937,7.937,0,0,1-.651-7.8M10.86,62.579A7.919,7.919,0,0,1,8.172,60.9l6.285-2.183a.735.735,0,0,1,.968.592l.487,3.446a7.913,7.913,0,0,1-5.052-.172M21.1,57.93a7.91,7.91,0,0,1-3.6,4.161l-.138-6.679a.733.733,0,0,1,.861-.738l3.38.59a7.938,7.938,0,0,1-.5,2.665M17.6,38.5a.84.84,0,0,1,.247-.2l2.409-1.265a16.647,16.647,0,0,1,2.682-1.116.4.4,0,0,1,.49.26c1.053,3.526-1.607,3.827-5.827,2.319m47.152,24.5h0l0,0ZM73.607,82.45,77,83.9l-2.25,1.107a7.988,7.988,0,0,1-1.146-2.555m4.921,5.528A7.919,7.919,0,0,1,75.84,86.3L79.6,84.991a4.712,4.712,0,0,0,3.509-.156l.469,3.316a7.905,7.905,0,0,1-5.052-.172m10.24-4.65a7.917,7.917,0,0,1-3.6,4.162l-.089-4.32c.077-.115.151-.233.219-.357a4.7,4.7,0,0,0,.561-2.712l.031-.029,3.38.59a7.938,7.938,0,0,1-.5,2.665m.338-4.39-4.2-1.263a4.543,4.543,0,0,0-.319-.354l3.063-1.568a8.016,8.016,0,0,1,1.453,3.186M81.416,62.2a.653.653,0,0,0,.314.124l.106.01-.066.71-.107-.01a.672.672,0,0,0-.124,1.338l.106.01L81.586,65l-.106-.01a.673.673,0,0,0-.732.607.662.662,0,0,0,.232.557,16.042,16.042,0,0,0-5.111.968,6.6,6.6,0,0,0-3.39-1.672,5.552,5.552,0,0,0-3.715,1.44l-1.021-.661A11.561,11.561,0,0,1,72.769,63.7Z" transform="translate(0 0.969)" fill="#ff5104"/>
  </g>
</svg>
