<svg xmlns="http://www.w3.org/2000/svg" width="240.651" height="19.809" viewBox="0 0 240.651 19.809">
  <g id="logo" transform="translate(-166.911 -68.918)">
    <path id="Path_1346" data-name="Path 1346" d="M112.266,42.308a.684.684,0,0,1-.755-.783V39.67a.684.684,0,0,1,.755-.784h16.271l-13.661-6.409c-2.959-1.392-3.539-2.989-3.539-5.076,0-2.582,1.886-4.873,5.626-4.873h21.347a.683.683,0,0,1,.783.755v1.856a.692.692,0,0,1-.783.783h-15.72l13.631,6.41c2.989,1.392,3.539,2.987,3.539,5.1,0,2.581-1.886,4.873-5.6,4.873Z" transform="translate(55.573 46.39)" fill="#003250"/>
    <path id="Path_1347" data-name="Path 1347" d="M133.094,42.308a.684.684,0,0,1-.755-.783V23.283a.675.675,0,0,1,.755-.755h9.977a.684.684,0,0,1,.784.755V41.526a.692.692,0,0,1-.784.783Z" transform="translate(64.192 46.39)" fill="#003250"/>
    <path id="Path_1348" data-name="Path 1348" d="M153.9,42.308a2.6,2.6,0,0,1-1.943-.783l-9.919-8.615a1.562,1.562,0,0,1-.551-1.392v-.842c0-.666.116-.9.581-1.159l11.6-6.235a5.022,5.022,0,0,1,2.495-.755h5.859c.406,0,.609.231.609.492a.548.548,0,0,1-.348.494l-11.514,6.177L164.229,41a.94.94,0,0,1,.406.725c0,.319-.261.58-.841.58Z" transform="translate(67.946 46.39)" fill="#003250"/>
    <path id="Path_1349" data-name="Path 1349" d="M167.395,42.308c-7.135,0-9.891-3.539-9.891-9.107V23.283a.663.663,0,0,1,.755-.755h10.847a.675.675,0,0,1,.754.755V33.2c0,3.539,1.45,5.684,4.728,5.684h4.988c3.307,0,4.845-2.145,4.845-5.684V23.283a.683.683,0,0,1,.783-.755h3.481a.684.684,0,0,1,.783.755V33.2c0,5.075-3.132,9.107-9.891,9.107Z" transform="translate(74.518 46.39)" fill="#003250"/>
    <path id="Path_1350" data-name="Path 1350" d="M190.078,42.308c-.377,0-.551-.116-.551-.377V25.921h-7.876c-.378,0-.551-.087-.551-.319V22.9c0-.261.174-.377.551-.377h27.267c.376,0,.551.116.551.377v2.7c0,.231-.175.319-.551.319h-7.905V41.932c0,.261-.174.377-.522.377Z" transform="translate(84.201 46.39)" fill="#003250"/>
    <path id="Path_1351" data-name="Path 1351" d="M226.54,42.308a2.542,2.542,0,0,1-1.915-.783L215.9,32.563a1.306,1.306,0,0,1-.494-1.073v-.9a.663.663,0,0,1,.755-.755h3.973c1.828,0,2.756-.725,2.756-1.972s-.928-1.943-2.756-1.943h-6.468v15.6a.692.692,0,0,1-.783.783h-9.949a.692.692,0,0,1-.783-.783V23.283a.684.684,0,0,1,.783-.755h25.35c3.509,0,6.149,2.059,6.149,5.046,0,3.278-2.553,5.134-5.657,5.6l8.005,8.208a.616.616,0,0,1,.2.464.473.473,0,0,1-.522.464Z" transform="translate(92.839 46.39)" fill="#003250"/>
    <path id="Path_1352" data-name="Path 1352" d="M236.242,42.308a.684.684,0,0,1-.755-.783v-6.9L225.076,23.514a.75.75,0,0,1-.262-.522.527.527,0,0,1,.581-.464h11.689a1.716,1.716,0,0,1,1.3.58l7.715,8.469,8.033-8.5a1.466,1.466,0,0,1,1.276-.55H257.1c.377,0,.551.2.551.434a.612.612,0,0,1-.145.378L247,34.448v7.077a.692.692,0,0,1-.784.783Z" transform="translate(102.141 46.39)" fill="#003250"/>
    <path id="Path_1353" data-name="Path 1353" d="M244.351,38.054a.878.878,0,0,1-.983-.983V33.925a.871.871,0,0,1,.983-.962h3.475a.863.863,0,0,1,.983.962v3.147a.869.869,0,0,1-.983.983Z" transform="translate(109.755 50.673)" fill="#ff5104"/>
    <path id="Path_1354" data-name="Path 1354" d="M256.241,40.909a7.082,7.082,0,0,1-7.168-7.451c0-4.283,2.863-7.452,7.168-7.452h14.881a.515.515,0,0,1,.589.568v1.4a.521.521,0,0,1-.589.59h-9.768c-1.9,0-2.578.721-2.578,3.409v2.382c0,2.972.787,3.977,2.578,3.977h9.856a.514.514,0,0,1,.568.59v1.4a.514.514,0,0,1-.568.59Z" transform="translate(112.095 47.818)" fill="#ff5104"/>
    <path id="Path_1355" data-name="Path 1355" d="M266.732,40.909a.515.515,0,0,1-.568-.59v-1.4a1.148,1.148,0,0,1,.481-1.049l10.707-9.308H267.191a.521.521,0,0,1-.59-.59v-1.4a.515.515,0,0,1,.59-.568H287.6a.508.508,0,0,1,.568.568v1.4a1.16,1.16,0,0,1-.481,1.07l-9.921,9.287h10.1a.522.522,0,0,1,.591.59v1.4a.522.522,0,0,1-.591.59Z" transform="translate(119.109 47.818)" fill="#ff5104"/>
  </g>
</svg>
