<svg xmlns="http://www.w3.org/2000/svg" xmlns:xlink="http://www.w3.org/1999/xlink" width="193.846" height="44.302" viewBox="0 0 193.846 44.302">
  <defs>
    <clipPath id="clip-path">
      <rect id="Rectangle_71" data-name="Rectangle 71" width="140.403" height="11.541" fill="#003250"/>
    </clipPath>
  </defs>
  <g id="logo_patka" data-name="logo patka" transform="translate(-360 -4014.891)">
    <g id="Group_184" data-name="Group 184" transform="translate(413.443 4031.271)">
      <g id="Group_180" data-name="Group 180" transform="translate(0 0)" clip-path="url(#clip-path)">
        <path id="Path_1151" data-name="Path 1151" d="M.542,11.541a.4.4,0,0,1-.44-.457V10a.4.4,0,0,1,.44-.457h9.493L2.064,5.8C.338,4.992,0,4.061,0,2.843,0,1.337,1.1,0,3.283,0H15.737a.4.4,0,0,1,.457.44V1.523a.4.4,0,0,1-.457.457H6.566l7.953,3.74c1.743.812,2.064,1.743,2.064,2.978,0,1.506-1.1,2.843-3.266,2.843Z" transform="translate(0 0)" fill="#003250"/>
        <path id="Path_1152" data-name="Path 1152" d="M50.381,11.541a.4.4,0,0,1-.44-.457V.44a.394.394,0,0,1,.44-.44H56.2a.4.4,0,0,1,.457.44V11.084a.4.4,0,0,1-.457.457Zm14.333,0a1.518,1.518,0,0,1-1.134-.457L57.793,6.058a.912.912,0,0,1-.321-.812V4.755c0-.389.067-.525.338-.677L64.578.44A2.931,2.931,0,0,1,66.034,0h3.418c.237,0,.355.136.355.288a.32.32,0,0,1-.2.288l-6.718,3.6,7.852,6.6a.551.551,0,0,1,.237.423c0,.186-.152.338-.491.338Z" transform="translate(-32.661 0)" fill="#003250"/>
        <path id="Path_1153" data-name="Path 1153" d="M115.556,11.541c-4.163,0-5.77-2.064-5.77-5.313V.44a.387.387,0,0,1,.44-.44h6.329a.393.393,0,0,1,.44.44V6.227c0,2.064.846,3.317,2.758,3.317h2.911c1.929,0,2.826-1.252,2.826-3.317V.44a.4.4,0,0,1,.457-.44h2.031a.4.4,0,0,1,.457.44V6.227c0,2.961-1.827,5.313-5.77,5.313Z" transform="translate(-71.798 0)" fill="#003250"/>
        <path id="Path_1154" data-name="Path 1154" d="M171.136,11.541c-.22,0-.321-.068-.321-.22V1.98h-4.6c-.22,0-.322-.051-.322-.186V.22c0-.152.1-.22.322-.22h15.908c.22,0,.321.068.321.22V1.794c0,.135-.1.186-.321.186h-4.612v9.341c0,.152-.1.22-.3.22Z" transform="translate(-108.494 0)" fill="#003250"/>
        <path id="Path_1155" data-name="Path 1155" d="M230.183,11.541a1.483,1.483,0,0,1-1.117-.457l-5.093-5.229a.764.764,0,0,1-.288-.626V4.7a.386.386,0,0,1,.44-.44h2.318c1.066,0,1.608-.423,1.608-1.151s-.542-1.134-1.608-1.134H222.67v9.1a.4.4,0,0,1-.457.457h-5.8a.4.4,0,0,1-.457-.457V.44a.4.4,0,0,1,.457-.44H231.2c2.048,0,3.588,1.2,3.588,2.945,0,1.912-1.489,3-3.3,3.266L236.157,11a.36.36,0,0,1,.118.271.277.277,0,0,1-.3.271Z" transform="translate(-141.229 0)" fill="#003250"/>
        <path id="Path_1156" data-name="Path 1156" d="M276.522,11.541a.4.4,0,0,1-.44-.457V7.057L270.007.575a.44.44,0,0,1-.153-.3A.308.308,0,0,1,270.193,0h6.82a1,1,0,0,1,.761.338l4.5,4.941L286.962.321A.854.854,0,0,1,287.707,0h.981c.22,0,.322.119.322.254a.359.359,0,0,1-.084.22L282.8,6.955v4.129a.4.4,0,0,1-.457.457Z" transform="translate(-176.48 0)" fill="#003250"/>
        <path id="Path_1157" data-name="Path 1157" d="M314.548,27.739a.512.512,0,0,1-.574-.574V25.329a.509.509,0,0,1,.574-.561h2.027a.5.5,0,0,1,.573.561v1.836a.507.507,0,0,1-.573.574Z" transform="translate(-205.333 -16.198)" fill="#ff5104"/>
        <path id="Path_1158" data-name="Path 1158" d="M331.725,16.919a4.132,4.132,0,0,1-4.182-4.347,4.088,4.088,0,0,1,4.182-4.348h8.682a.3.3,0,0,1,.344.332v.816a.3.3,0,0,1-.344.344h-5.7c-1.109,0-1.5.42-1.5,1.989v1.39c0,1.734.459,2.32,1.5,2.32h5.75a.3.3,0,0,1,.331.344v.816a.3.3,0,0,1-.331.344Z" transform="translate(-214.207 -5.378)" fill="#ff5104"/>
        <path id="Path_1159" data-name="Path 1159" d="M368.518,16.919a.3.3,0,0,1-.331-.344v-.816a.669.669,0,0,1,.281-.612l6.247-5.431h-5.928a.3.3,0,0,1-.344-.344V8.556a.3.3,0,0,1,.344-.332h11.908a.3.3,0,0,1,.331.332v.816a.678.678,0,0,1-.28.625l-5.789,5.418h5.89a.3.3,0,0,1,.344.344v.816a.3.3,0,0,1-.344.344Z" transform="translate(-240.788 -5.378)" fill="#ff5104"/>
      </g>
    </g>
    <g id="Group_213" data-name="Group 213" transform="translate(360 4014.891)">
      <g id="Group_214" data-name="Group 214" transform="translate(0 0)">
        <path id="Path_1373" data-name="Path 1373" d="M22.423,44.3A14.122,14.122,0,0,1,12.407,40.16L4.626,32.378A14.55,14.55,0,0,1,.277,22.663a14.079,14.079,0,0,1,4.14-10.524l7.99-7.991a14.164,14.164,0,0,1,20.03,0L40.22,11.93a14.547,14.547,0,0,1,4.349,9.716,14.082,14.082,0,0,1-4.139,10.523L32.438,40.16A14.121,14.121,0,0,1,22.423,44.3m0-42.524A12.353,12.353,0,0,0,13.661,5.4L5.852,13.21a12.725,12.725,0,0,0-3.8,8.5A12.318,12.318,0,0,0,5.67,30.916l7.991,7.991a12.392,12.392,0,0,0,17.524,0l7.991-7.991a12.392,12.392,0,0,0,0-17.524L31.185,5.4a12.354,12.354,0,0,0-8.762-3.623" transform="translate(-0.141 0)" fill="rgba(255,81,4,0.2)"/>
        <path id="Path_1374" data-name="Path 1374" d="M44.286,26l-.912-.342a6.31,6.31,0,0,0-1.645-.372l-.164-.576a1.86,1.86,0,0,0-1.129-1.21l-4.195-1.575a2.6,2.6,0,0,0-1.7-.044l-1.06.337a2.6,2.6,0,0,1-1.7-.044l-2.31-.867a2.885,2.885,0,0,0-2.787.425l-.975.759a.923.923,0,0,0-.319.986c.081.279.562.607.562.607a5.369,5.369,0,0,1-.427,2.766c-.448.776-2.131,1.935-3.756,2.883-1.445.843-3.121.511-4.846,0l-1.7-.541c-.413-.787-2.314-3.368.636-7.192l7.1-7.7s-.15-.264-.335-.565l1.338.383a.586.586,0,0,0,.662-.239.573.573,0,0,0-.327-.855l-1.176-.337a1.927,1.927,0,0,0,.2-.319.252.252,0,0,0,.015-.022L24.527,9.8a6.078,6.078,0,0,0,.508.9s1.739.678,2.3.426c.483-.22.622-1.876.622-1.876-1.041-.478-1.068-.489-1.75-.805-.973-.451-1.784.709-1.784.709s0,.015-.006.022A.172.172,0,0,0,24.4,9.2l-1.15,2.466-.018-.029a2.281,2.281,0,0,1-.317-1.593l.107-.633a5.144,5.144,0,0,0-2.809.262,2.546,2.546,0,0,1,1,.937l-3.185.032a1.884,1.884,0,0,0-.759.755c-.031.083.038.2.167.338h0l1.817,1.934-.3.159c-1.365-.077-3.821-.058-4.882.952l-.013.012-3.885,3.723,7.155-1.3a2.1,2.1,0,0,1-1.2.721L9.874,19.071a9.217,9.217,0,0,0-2.643.91l-1.316.691a.476.476,0,0,0,.052.866l.624.238,1.114.418a3.156,3.156,0,0,1,1.234,1.135,5.791,5.791,0,1,0,2.64,5.029,4.564,4.564,0,0,1-.157,3.5,8.158,8.158,0,0,1-.6,1.024l13.531,3.26h0l.22.42a4.565,4.565,0,0,0,2.441,2.159l.9-.355h0l.788.336A5.772,5.772,0,1,0,39.26,35.876l-.005-.007.606-.311a.114.114,0,0,0,.062-.1v-.335l.754-.138c0-.436.167-.436.167-.872l-.921-.068v-.351a.113.113,0,0,0-.083-.11c-.39-.107-.836-.227-1.084-.284a16.641,16.641,0,0,0-2.854-.383.278.278,0,0,0,.051-.13.285.285,0,0,0-.258-.31l-.045,0,.025-.265.045,0a.285.285,0,0,0,.053-.568l-.045,0,.028-.3.045,0a.285.285,0,0,0,.31-.258l.017-.178,2.749-.477,1.964,2.186a2.114,2.114,0,0,1,.528,1.172l.222,1.916.721.413-.073-2.947a.364.364,0,0,1,.408-.371l.523.062.266-.464-.057-.044A13.033,13.033,0,0,1,41.714,30.8c.937-.333,1.386-1.064,1.114-1.662l-.434-.967A2.186,2.186,0,0,0,40.675,26.9l-9.125-1.157,9.78.311A5.524,5.524,0,0,1,43.1,26.4l.932.35a.4.4,0,0,0,.527-.3A.41.41,0,0,0,44.286,26m-38.063.257L6.889,25l.005,0a3.366,3.366,0,0,1,2.2,2.511L6.409,26.7a.311.311,0,0,1-.185-.444m-.055-1.42L4.591,27.116a.311.311,0,0,1-.479.04l-.994-1.023a3.377,3.377,0,0,1,3.051-1.292M2.729,26.774l.017,0,1.678,2.2a.311.311,0,0,1-.111.467l-1.308.643a3.366,3.366,0,0,1-.276-3.31m1.877,4.571a3.359,3.359,0,0,1-1.14-.713l2.666-.926a.312.312,0,0,1,.41.251l.206,1.461a3.356,3.356,0,0,1-2.143-.073m4.343-1.972a3.355,3.355,0,0,1-1.528,1.765l-.059-2.833a.311.311,0,0,1,.365-.313l1.433.25a3.367,3.367,0,0,1-.212,1.13M7.467,21.134a.356.356,0,0,1,.1-.084l1.022-.536A7.06,7.06,0,0,1,9.73,20.04a.168.168,0,0,1,.208.11c.446,1.5-.682,1.623-2.472.984m20,10.392Zm3.754,8.247,1.441.614-.954.47a3.388,3.388,0,0,1-.486-1.084m2.087,2.345a3.359,3.359,0,0,1-1.14-.713l1.6-.554a2,2,0,0,0,1.488-.066l.2,1.406a3.353,3.353,0,0,1-2.143-.073m4.343-1.972a3.358,3.358,0,0,1-1.528,1.765l-.038-1.832c.033-.049.064-.1.093-.151a1.994,1.994,0,0,0,.238-1.15l.013-.012,1.433.25a3.367,3.367,0,0,1-.212,1.13m.143-1.862-1.78-.536a1.927,1.927,0,0,0-.135-.15l1.3-.665a3.4,3.4,0,0,1,.616,1.351m-3.262-7.1a.277.277,0,0,0,.133.053l.045,0-.028.3-.045,0a.285.285,0,1,0-.053.568l.045,0-.025.265-.045,0a.285.285,0,0,0-.311.258.281.281,0,0,0,.1.236,6.8,6.8,0,0,0-2.168.41,2.8,2.8,0,0,0-1.438-.709,2.355,2.355,0,0,0-1.575.611l-.433-.28a4.9,4.9,0,0,1,2.131-1.076Z" transform="translate(0 -4.393)" fill="#ff5104"/>
      </g>
    </g>
  </g>
</svg>
