<svg id="lupa" xmlns="http://www.w3.org/2000/svg" xmlns:xlink="http://www.w3.org/1999/xlink" width="29.228" height="29.637" viewBox="0 0 29.228 29.637">
  <defs>
    <clipPath id="clip-path">
      <rect id="Rectangle_10" data-name="Rectangle 10" width="29.228" height="29.637" fill="none"/>
    </clipPath>
  </defs>
  <g id="Group_16" data-name="Group 16" clip-path="url(#clip-path)">
    <path id="Path_49" data-name="Path 49" d="M129.008,17.159a9.249,9.249,0,1,0,9.249-9.249,9.249,9.249,0,0,0-9.249,9.249" transform="translate(-128.097 -7.308)" fill="#fff"/>
    <path id="Path_50" data-name="Path 50" d="M136.429,24.47a9.231,9.231,0,0,0-7.421-9.1,9.059,9.059,0,0,1,1.713-.163,9.262,9.262,0,0,1,0,18.522,9.059,9.059,0,0,1-1.713-.163,9.231,9.231,0,0,0,7.421-9.1" transform="translate(-120.445 -14.051)" fill="#dbf4ff"/>
    <path id="Path_51" data-name="Path 51" d="M124.283,20.838a10.359,10.359,0,0,0,10.275-10.419,10.276,10.276,0,1,0-20.55,0,10.359,10.359,0,0,0,10.275,10.419m0-18.522a8.1,8.1,0,1,1-7.992,8.1,8.057,8.057,0,0,1,7.992-8.1" transform="translate(-114.008)" fill="#006fb0"/>
    <path id="Path_53" data-name="Path 53" d="M1.9,4.818V.964A.957.957,0,0,0,.95,0,.957.957,0,0,0,0,.964V4.818a.957.957,0,0,0,.95.964.957.957,0,0,0,.95-.964" transform="translate(7.589 7.674) rotate(-45)" fill="#ff5104"/>
    <path id="Path_70" data-name="Path 70" d="M1.9,4.818V.964A.957.957,0,0,0,.95,0,.957.957,0,0,0,0,.964V4.818a.957.957,0,0,0,.95.964.957.957,0,0,0,.95-.964" transform="translate(11.677 9.075) rotate(45)" fill="#ff5104"/>
    <path id="Path_54" data-name="Path 54" d="M11.157,238.682a3.505,3.505,0,0,0,0-4.911l-5.978-6.062a1.131,1.131,0,0,0-1.615,0,1.17,1.17,0,0,0,0,1.637l5.978,6.062a1.169,1.169,0,0,1,0,1.637,1.13,1.13,0,0,1-1.614,0l-5.978-6.062a1.131,1.131,0,0,0-1.614,0,1.169,1.169,0,0,0,0,1.637l5.978,6.061a3.39,3.39,0,0,0,4.844,0" transform="translate(17.067 -210.064)" fill="#006fb0"/>
  </g>
</svg>
