<svg id="Group_77" data-name="Group 77" xmlns="http://www.w3.org/2000/svg" width="18.063" height="12.289" viewBox="0 0 18.063 12.289">
  <path id="Path_126" data-name="Path 126" d="M16.614,261.191l-5.85,5.155-5.851-5.155a.562.562,0,0,0-.743.843l6.223,5.482a.56.56,0,0,0,.743,0l6.221-5.482a.562.562,0,0,0-.743-.843" transform="translate(-1.732 -258.803)" fill="#ff5104"/>
  <path id="Path_127" data-name="Path 127" d="M16.377,257.071H1.686A1.687,1.687,0,0,0,0,258.757v8.917a1.688,1.688,0,0,0,1.686,1.686H16.377a1.688,1.688,0,0,0,1.686-1.686v-8.917a1.688,1.688,0,0,0-1.686-1.686m.562,10.6a.563.563,0,0,1-.562.562H1.686a.562.562,0,0,1-.562-.562v-8.917a.562.562,0,0,1,.562-.562H16.377a.563.563,0,0,1,.562.562Z" transform="translate(0 -257.071)" fill="#ff6e2e"/>
</svg>
