<svg xmlns="http://www.w3.org/2000/svg" xmlns:xlink="http://www.w3.org/1999/xlink" width="159.592" height="22.495" viewBox="0 0 159.592 22.495">
  <defs>
    <clipPath id="clip-path">
      <rect id="Rectangle_92" data-name="Rectangle 92" width="159.592" height="22.495" fill="#003250"/>
    </clipPath>
  </defs>
  <g id="motorro" transform="translate(0 0)">
    <g id="Group_252" data-name="Group 252" transform="translate(0 0)" clip-path="url(#clip-path)">
      <path id="Path_1381" data-name="Path 1381" d="M29.572,8.087a4.9,4.9,0,0,0-3.734-1.362,8.813,8.813,0,0,0-3.282.619A10.533,10.533,0,0,0,19.891,9.01a4.287,4.287,0,0,0-1.474-1.48,5.684,5.684,0,0,0-3.009-.805,8.254,8.254,0,0,0-4.9,1.619l.1-.437.179-.821H3.712L3.6,7.62.176,23.542,0,24.361H7.536l.115-.533L9.3,16.189a5.526,5.526,0,0,1,1.322-2.88,2.369,2.369,0,0,1,1.5-.773.694.694,0,0,1,.447.108.65.65,0,0,1,.106.431,5.544,5.544,0,0,1-.061.659c-.026.181-.141.831-.629,3.132l-1.44,6.675-.176.82h7.522l.114-.536,1.516-7.082a8.428,8.428,0,0,1,1.289-3.327,2.094,2.094,0,0,1,1.726-.881.6.6,0,0,1,.385.1.754.754,0,0,1,.108.47,5.941,5.941,0,0,1-.054.61c-.027.214-.152.913-.606,3.03L20.9,23.54l-.178.82h7.523l.116-.533,2.266-10.459a9.773,9.773,0,0,0,.21-2.034,4.59,4.59,0,0,0-1.264-3.247m-.27,5s-1.69,7.8-2.15,9.924H22.4l1.294-5.978c.377-1.764.582-2.8.626-3.152a7.421,7.421,0,0,0,.064-.773,1.965,1.965,0,0,0-.476-1.4,1.8,1.8,0,0,0-1.371-.525,3.41,3.41,0,0,0-2.791,1.4A9.522,9.522,0,0,0,18.2,16.46s-1.048,4.9-1.4,6.548H12.046l1.263-5.859c.379-1.788.6-2.874.647-3.23a6.7,6.7,0,0,0,.073-.843,1.876,1.876,0,0,0-.508-1.393,1.908,1.908,0,0,0-1.4-.5A3.629,3.629,0,0,0,9.7,12.316,6.682,6.682,0,0,0,7.98,15.9s-1.162,5.373-1.536,7.105H1.674L4.806,8.439h4.3L8.79,9.9l-.079.363.262.261.061.06.484.483L10,10.575a7.343,7.343,0,0,1,5.413-2.5,4.353,4.353,0,0,1,2.3.606,2.941,2.941,0,0,1,1.3,1.635l.33.977.765-.692a10.452,10.452,0,0,1,2.949-2,7.443,7.443,0,0,1,2.78-.522,3.628,3.628,0,0,1,2.748.934,3.234,3.234,0,0,1,.9,2.32,8.417,8.417,0,0,1-.18,1.75" transform="translate(0 -1.865)" fill="#003250"/>
      <path id="Path_1382" data-name="Path 1382" d="M54.949,7.662q4.278,0,6.235,2.161a7.289,7.289,0,0,1,1.958,5.057,10.082,10.082,0,0,1-1.126,4.487,8.495,8.495,0,0,1-3.383,3.616,10.755,10.755,0,0,1-5.56,1.336q-4.187,0-6.182-2.063a7.1,7.1,0,0,1-2-5.139,9.842,9.842,0,0,1,1.192-4.668A8.561,8.561,0,0,1,49.546,8.93a10.906,10.906,0,0,1,5.4-1.268m-1.485,12.53a3.042,3.042,0,0,0,2.716-1.748,7.644,7.644,0,0,0,1.005-3.879A2.657,2.657,0,0,0,56.42,12.4a2.625,2.625,0,0,0-1.7-.623,3.122,3.122,0,0,0-2.9,1.756,7.341,7.341,0,0,0-.968,3.587,3.243,3.243,0,0,0,.758,2.2,2.355,2.355,0,0,0,1.853.877" transform="translate(-12.45 -2.125)" fill="#003250"/>
      <path id="Path_1383" data-name="Path 1383" d="M86.157,5.9l-.93,4.366h-3.2L80.86,15.891a2.446,2.446,0,0,0-.119.766q0,1.08,1.425,1.08a12.641,12.641,0,0,0,1.891-.285l-.915,4.367a33.784,33.784,0,0,1-4.052.374,4.624,4.624,0,0,1-3.639-1.23,4.005,4.005,0,0,1-1.072-2.686,18.9,18.9,0,0,1,.435-2.566l1.14-5.448h-2.19l.9-4.366H76.9l.525-2.492L84.252,0,82.991,5.9Z" transform="translate(-20.456 0)" fill="#003250"/>
      <path id="Path_1384" data-name="Path 1384" d="M102.2,7.662q4.276,0,6.236,2.161a7.3,7.3,0,0,1,1.958,5.057,10.1,10.1,0,0,1-1.125,4.487,8.5,8.5,0,0,1-3.384,3.616,10.759,10.759,0,0,1-5.56,1.336q-4.185,0-6.182-2.063a7.1,7.1,0,0,1-2-5.139,9.85,9.85,0,0,1,1.192-4.668A8.559,8.559,0,0,1,96.794,8.93a10.9,10.9,0,0,1,5.4-1.268m-1.486,12.53a3.041,3.041,0,0,0,2.717-1.748,7.651,7.651,0,0,0,1.005-3.879,2.655,2.655,0,0,0-.765-2.168,2.625,2.625,0,0,0-1.7-.623,3.125,3.125,0,0,0-2.9,1.756,7.354,7.354,0,0,0-.967,3.587,3.243,3.243,0,0,0,.757,2.2,2.357,2.357,0,0,0,1.852.877" transform="translate(-25.553 -2.125)" fill="#003250"/>
      <path id="Path_1385" data-name="Path 1385" d="M134.707,8.142l-2.25,4.713a5.577,5.577,0,0,0-1.26-.165,3.6,3.6,0,0,0-2.852,1.26,9.155,9.155,0,0,0-1.695,4.038l-1.26,5.956h-6.123l3.391-15.921h5.718l-.706,3.135.061.06a10.55,10.55,0,0,1,2.506-2.835,4.186,4.186,0,0,1,2.371-.721,5.38,5.38,0,0,1,2.1.481" transform="translate(-33.074 -2.125)" fill="#003250"/>
      <path id="Path_1386" data-name="Path 1386" d="M155,8.142l-2.25,4.713a5.582,5.582,0,0,0-1.26-.165,3.6,3.6,0,0,0-2.852,1.26,9.146,9.146,0,0,0-1.7,4.038l-1.261,5.956h-6.122l3.391-15.921h5.717l-.705,3.135.061.06a10.513,10.513,0,0,1,2.506-2.835,4.18,4.18,0,0,1,2.37-.721,5.378,5.378,0,0,1,2.1.481" transform="translate(-38.701 -2.125)" fill="#003250"/>
      <path id="Path_1387" data-name="Path 1387" d="M170.149,7.662q4.275,0,6.235,2.161a7.3,7.3,0,0,1,1.958,5.057,10.1,10.1,0,0,1-1.125,4.487,8.5,8.5,0,0,1-3.385,3.616,10.751,10.751,0,0,1-5.559,1.336q-4.187,0-6.183-2.063a7.1,7.1,0,0,1-2-5.139,9.834,9.834,0,0,1,1.193-4.668,8.554,8.554,0,0,1,3.459-3.519,10.9,10.9,0,0,1,5.4-1.268m-1.485,12.53a3.043,3.043,0,0,0,2.717-1.748,7.65,7.65,0,0,0,1-3.879,2.657,2.657,0,0,0-.765-2.168,2.625,2.625,0,0,0-1.7-.623,3.122,3.122,0,0,0-2.9,1.756,7.348,7.348,0,0,0-.968,3.587,3.25,3.25,0,0,0,.757,2.2,2.358,2.358,0,0,0,1.854.877" transform="translate(-44.397 -2.125)" fill="#003250"/>
      <path id="Path_1388" data-name="Path 1388" d="M203.648,7.662H192.554l-.314,1.427h11.092Z" transform="translate(-53.311 -2.125)" fill="#003250"/>
      <path id="Path_1389" data-name="Path 1389" d="M210.732,14.514H191.4l-.313,1.427h19.33Z" transform="translate(-52.991 -4.025)" fill="#003250"/>
      <path id="Path_1390" data-name="Path 1390" d="M199.1,28.217H189.091l-.314,1.427H198.79Z" transform="translate(-52.351 -7.825)" fill="#003250"/>
      <path id="Path_1391" data-name="Path 1391" d="M207.581,21.365H190.246l-.316,1.427h17.336Z" transform="translate(-52.67 -5.925)" fill="#003250"/>
      <path id="Path_1392" data-name="Path 1392" d="M216.452,21.365l-.314,1.427h3.079l.314-1.427Z" transform="translate(-59.938 -5.925)" fill="#003250"/>
    </g>
  </g>
</svg>
