<svg id="platba_dobirka" xmlns="http://www.w3.org/2000/svg" xmlns:xlink="http://www.w3.org/1999/xlink" width="22.33" height="22.331" viewBox="0 0 22.33 22.331">
  <defs>
    <clipPath id="clip-path">
      <rect id="Rectangle_208" data-name="Rectangle 208" width="22.33" height="22.331" fill="#003250"/>
    </clipPath>
  </defs>
  <g id="Group_452" data-name="Group 452" transform="translate(0 0)" clip-path="url(#clip-path)">
    <path id="Path_1484" data-name="Path 1484" d="M20.469,4.685V2.977A2.981,2.981,0,0,0,17.491,0H3.023A3.021,3.021,0,0,0,0,2.894c0,.076,0,5.137,0,16.46a2.981,2.981,0,0,0,2.977,2.977H19.352a2.981,2.981,0,0,0,2.977-2.977V7.443a2.981,2.981,0,0,0-1.861-2.758m.372,10.2H15.082a1.488,1.488,0,0,1-1.488-1.531,1.523,1.523,0,0,1,1.534-1.446h5.713ZM3.023,1.489H17.491a1.49,1.49,0,0,1,1.44,1.118,2.957,2.957,0,0,0-1.44-.373H3.945a.744.744,0,0,0,0,1.489H17.491a1.488,1.488,0,0,1,1.287.744H2.977A1.488,1.488,0,0,1,1.489,2.935,1.523,1.523,0,0,1,3.023,1.489M19.352,20.842H2.977a1.49,1.49,0,0,1-1.489-1.489V5.554a2.952,2.952,0,0,0,1.489.4H19.352a1.49,1.49,0,0,1,1.489,1.489v2.978H15.128a3.021,3.021,0,0,0-3.023,2.894,2.976,2.976,0,0,0,2.976,3.06h5.759v2.978a1.49,1.49,0,0,1-1.489,1.489m-3.908-8.188h.447a.744.744,0,1,1,0,1.489h-.447a.744.744,0,1,1,0-1.489" transform="translate(0 0)" fill="#003250"/>
  </g>
</svg>
