<svg id="platba_karta" xmlns="http://www.w3.org/2000/svg" xmlns:xlink="http://www.w3.org/1999/xlink" width="25.846" height="18.55" viewBox="0 0 25.846 18.55">
  <defs>
    <clipPath id="clip-path">
      <rect id="Rectangle_213" data-name="Rectangle 213" width="25.846" height="18.55" fill="#003250"/>
    </clipPath>
  </defs>
  <g id="Group_462" data-name="Group 462" clip-path="url(#clip-path)">
    <path id="Path_1491" data-name="Path 1491" d="M23.258,0H2.587A2.59,2.59,0,0,0,0,2.586V15.962a2.59,2.59,0,0,0,2.587,2.587H23.258a2.59,2.59,0,0,0,2.587-2.587V2.586A2.59,2.59,0,0,0,23.258,0m1.061,15.963a1.06,1.06,0,0,1-1.061,1.061H2.587a1.06,1.06,0,0,1-1.061-1.061V6.5H20.1a1.456,1.456,0,0,0,0-2.913H1.527v-1a1.06,1.06,0,0,1,1.06-1.06H23.258a1.06,1.06,0,0,1,1.061,1.061Z" transform="translate(0 0.001)" fill="#003250"/>
    <path id="Path_1492" data-name="Path 1492" d="M86.146,61.568a2.984,2.984,0,0,0,1.289-.3,3.018,3.018,0,1,0,0-5.436,2.985,2.985,0,0,0-1.289-.3,3.018,3.018,0,1,0,0,6.037m2.587-4.549.013,0a1.532,1.532,0,0,1,0,3.065l-.013,0a2.931,2.931,0,0,0,0-3.061m-2.587,0a1.532,1.532,0,1,1-1.532,1.532,1.534,1.534,0,0,1,1.532-1.532" transform="translate(-70.205 -46.898)" fill="#003250"/>
  </g>
</svg>
