<svg id="platba_prevod" xmlns="http://www.w3.org/2000/svg" xmlns:xlink="http://www.w3.org/1999/xlink" width="22.33" height="20.731" viewBox="0 0 22.33 20.731">
  <defs>
    <clipPath id="clip-path">
      <rect id="Rectangle_215" data-name="Rectangle 215" width="22.33" height="20.731" fill="#003250"/>
    </clipPath>
  </defs>
  <g id="Group_466" data-name="Group 466" clip-path="url(#clip-path)">
    <path id="Path_1495" data-name="Path 1495" d="M19.322,0H3.008A3.012,3.012,0,0,0,0,3.008V16.351a3.012,3.012,0,0,0,3.008,3.008H4.117v.423a.949.949,0,1,0,1.9,0v-.423h10.3v.423a.949.949,0,1,0,1.9,0v-.423h1.109a3.011,3.011,0,0,0,3.008-3.008V3.008A3.011,3.011,0,0,0,19.322,0m1.109,16.351a1.111,1.111,0,0,1-1.109,1.109H3.008A1.111,1.111,0,0,1,1.9,16.351V3.008A1.111,1.111,0,0,1,3.008,1.9H19.322a1.111,1.111,0,0,1,1.109,1.109Z" fill="#003250"/>
    <path id="Path_1496" data-name="Path 1496" d="M41.055,27.787a4.8,4.8,0,1,0,4.8,4.8,4.81,4.81,0,0,0-4.8-4.8m.566,1.317a4.089,4.089,0,0,1,1.445.6l-.9.9a2.86,2.86,0,0,0-.547-.226Zm-1.132,0v1.274a2.86,2.86,0,0,0-.547.226l-.9-.9a4.091,4.091,0,0,1,1.445-.6m-2.32,1.476.9.9a2.877,2.877,0,0,0-.226.547H37.568a4.1,4.1,0,0,1,.6-1.445m-.6,2.576h1.274a2.868,2.868,0,0,0,.226.547l-.9.9a4.1,4.1,0,0,1-.6-1.445m2.921,2.921a4.1,4.1,0,0,1-1.445-.6l.9-.9a2.871,2.871,0,0,0,.547.226Zm-.669-3.487a1.235,1.235,0,1,1,1.235,1.235,1.237,1.237,0,0,1-1.235-1.235m1.8,3.487V34.8a2.872,2.872,0,0,0,.547-.226l.9.9a4.092,4.092,0,0,1-1.445.6M43.94,34.6l-.9-.9a2.857,2.857,0,0,0,.226-.547h1.274a4.092,4.092,0,0,1-.6,1.445m-.672-2.576a2.866,2.866,0,0,0-.226-.547l.9-.9a4.091,4.091,0,0,1,.6,1.445Z" transform="translate(-29.89 -22.911)" fill="#003250"/>
  </g>
</svg>
