<svg xmlns="http://www.w3.org/2000/svg" width="32.81" height="32.618" viewBox="0 0 32.81 32.618">
  <g id="Group_430" data-name="Group 430" transform="translate(-509 -3278.609)">
    <path id="Path_1470" data-name="Path 1470" d="M16.58,32.618a10.4,10.4,0,0,1-7.374-3.049L3.477,23.839a10.713,10.713,0,0,1-3.2-7.153A10.366,10.366,0,0,1,3.323,8.938L9.206,3.054a10.428,10.428,0,0,1,14.748,0l5.729,5.729a10.71,10.71,0,0,1,3.2,7.154,10.368,10.368,0,0,1-3.048,7.748l-5.883,5.883a10.4,10.4,0,0,1-7.374,3.049m0-31.309a9.1,9.1,0,0,0-6.451,2.668L4.38,9.726a9.369,9.369,0,0,0-2.8,6.258,9.069,9.069,0,0,0,2.666,6.778l5.883,5.883a9.124,9.124,0,0,0,12.9,0l5.883-5.883a9.124,9.124,0,0,0,0-12.9L23.031,3.977A9.1,9.1,0,0,0,16.58,1.309" transform="translate(508.825 3278.609)" fill="rgba(255,81,4,0.2)"/>
    <path id="Path_1471" data-name="Path 1471" d="M32.607,21.345l-.671-.252a4.646,4.646,0,0,0-1.211-.274l-.121-.424a1.369,1.369,0,0,0-.831-.891l-3.088-1.159a1.912,1.912,0,0,0-1.252-.032l-.78.248a1.914,1.914,0,0,1-1.252-.032l-1.7-.639a2.124,2.124,0,0,0-2.052.313l-.718.559a.68.68,0,0,0-.235.726c.06.206.414.447.414.447a3.953,3.953,0,0,1-.315,2.036,9.294,9.294,0,0,1-2.765,2.122,4.441,4.441,0,0,1-3.568,0l-1.251-.4c-.3-.579-1.7-2.48.468-5.3l5.231-5.672s-.11-.194-.247-.416l.985.282a.432.432,0,0,0,.487-.176.422.422,0,0,0-.24-.629l-.866-.248a1.418,1.418,0,0,0,.146-.235.186.186,0,0,0,.011-.016l.874-1.873a4.475,4.475,0,0,0,.374.66s1.28.5,1.69.313c.356-.162.458-1.381.458-1.381-.766-.352-.787-.36-1.289-.593-.716-.332-1.314.522-1.314.522s0,.011,0,.016a.127.127,0,0,0-.012.016l-.847,1.816-.014-.022a1.679,1.679,0,0,1-.234-1.173l.079-.466a3.788,3.788,0,0,0-2.068.193,1.875,1.875,0,0,1,.739.69l-2.345.023a1.387,1.387,0,0,0-.559.556c-.023.061.028.149.123.249h0l1.338,1.424-.223.117c-1.005-.057-2.813-.043-3.594.7l-.009.009-2.86,2.741,5.268-.955a1.543,1.543,0,0,1-.881.53l-4.6.834a6.786,6.786,0,0,0-1.946.67l-.969.509a.35.35,0,0,0,.038.638l.46.175.82.308a2.324,2.324,0,0,1,.909.835,4.264,4.264,0,1,0,1.944,3.7,3.36,3.36,0,0,1-.116,2.577,6.006,6.006,0,0,1-.44.754l9.962,2.4h0l.162.309a3.361,3.361,0,0,0,1.8,1.589l.665-.261h0l.58.247a4.25,4.25,0,1,0,7.769-2.08l0-.005.446-.229a.084.084,0,0,0,.046-.075v-.247l.555-.1c0-.321.123-.321.123-.642l-.678-.05v-.258a.083.083,0,0,0-.061-.081c-.287-.079-.616-.167-.8-.209a12.252,12.252,0,0,0-2.1-.282.2.2,0,0,0,.037-.1.21.21,0,0,0-.19-.228l-.033,0,.018-.2.033,0a.21.21,0,0,0,.039-.418l-.033,0,.021-.222.033,0a.21.21,0,0,0,.228-.19l.012-.131,2.024-.351,1.446,1.609a1.556,1.556,0,0,1,.389.863l.163,1.411.53.3-.054-2.17a.268.268,0,0,1,.3-.273l.385.046.2-.342-.042-.033a9.6,9.6,0,0,1-1.225-1.142c.69-.245,1.021-.783.82-1.224l-.32-.712A1.61,1.61,0,0,0,29.948,22l-6.718-.852,7.2.229a4.067,4.067,0,0,1,1.3.257l.686.258a.291.291,0,0,0,.388-.217.3.3,0,0,0-.2-.334m-28.024.189.489-.925h0a2.478,2.478,0,0,1,1.619,1.849l-1.976-.6a.229.229,0,0,1-.136-.327m-.041-1.045L3.38,22.164a.229.229,0,0,1-.353.029L2.3,21.44a2.486,2.486,0,0,1,2.246-.952M2.01,21.913h.012l1.235,1.621a.229.229,0,0,1-.082.344l-.963.474a2.479,2.479,0,0,1-.2-2.437m1.382,3.366a2.473,2.473,0,0,1-.839-.525l1.963-.682a.23.23,0,0,1,.3.185l.152,1.076a2.471,2.471,0,0,1-1.578-.054m3.2-1.452a2.47,2.47,0,0,1-1.125,1.3L5.421,23.04a.229.229,0,0,1,.269-.23l1.055.184a2.479,2.479,0,0,1-.156.832M5.5,17.76a.262.262,0,0,1,.077-.062l.752-.395a5.2,5.2,0,0,1,.838-.349.124.124,0,0,1,.153.081c.329,1.1-.5,1.2-1.82.724m14.724,7.651Zm2.764,6.072,1.061.452-.7.346a2.494,2.494,0,0,1-.358-.8m1.537,1.726a2.473,2.473,0,0,1-.839-.525l1.175-.408a1.471,1.471,0,0,0,1.1-.049l.146,1.036a2.469,2.469,0,0,1-1.578-.054m3.2-1.452a2.472,2.472,0,0,1-1.125,1.3l-.028-1.349c.024-.036.047-.073.068-.112a1.468,1.468,0,0,0,.175-.847l.01-.009,1.055.184a2.479,2.479,0,0,1-.156.832m.106-1.371-1.311-.395a1.419,1.419,0,0,0-.1-.11l.956-.49a2.5,2.5,0,0,1,.454.995m-2.4-5.228a.2.2,0,0,0,.1.039l.033,0-.021.222-.033,0a.21.21,0,0,0-.039.418l.033,0-.018.2-.033,0a.21.21,0,0,0-.229.19.207.207,0,0,0,.072.174,5.01,5.01,0,0,0-1.6.3,2.06,2.06,0,0,0-1.059-.522,1.734,1.734,0,0,0-1.16.45l-.319-.206a3.61,3.61,0,0,1,1.569-.792Z" transform="translate(509 3273.175)" fill="#ff5104"/>
  </g>
</svg>
