<svg id="Group_424" data-name="Group 424" xmlns="http://www.w3.org/2000/svg" xmlns:xlink="http://www.w3.org/1999/xlink" width="40.57" height="13.779" viewBox="0 0 40.57 13.779">
  <defs>
    <clipPath id="clip-path">
      <rect id="Rectangle_191" data-name="Rectangle 191" width="40.57" height="13.779" fill="none"/>
    </clipPath>
  </defs>
  <g id="Group_404" data-name="Group 404" clip-path="url(#clip-path)">
    <path id="Path_1464" data-name="Path 1464" d="M740.138,188.1a2.266,2.266,0,1,1-2.266,2.266,2.266,2.266,0,0,1,2.266-2.266" transform="translate(-701.835 -178.913)" fill="#ffd100"/>
    <path id="Path_1465" data-name="Path 1465" d="M6.518,6.419V9.384H8.985a2.209,2.209,0,0,1-1.724.867c-1.857,0-2.785-1.058-2.785-3.194C4.475,4.7,5.7,3.491,8.134,3.491a12.671,12.671,0,0,1,3.584.669V.613A8.5,8.5,0,0,0,9.972.186,12.612,12.612,0,0,0,7.911,0,8.22,8.22,0,0,0,2.154,1.95,6.749,6.749,0,0,0,0,7.205,6.661,6.661,0,0,0,1.671,12a5.888,5.888,0,0,0,4.512,1.783,4.666,4.666,0,0,0,4.213-2.24l-.012,2.017h2.751V6.419Z" transform="translate(0 0)" fill="#061ab1"/>
    <path id="Path_1466" data-name="Path 1466" d="M296.737,17.9V4.562h4.271v9.86h4.661V17.9Z" transform="translate(-282.245 -4.339)" fill="#061ab1"/>
    <path id="Path_1467" data-name="Path 1467" d="M503.771,13.222V9.582a16.97,16.97,0,0,0,2.21.52,12.659,12.659,0,0,0,2.173.223c1.04,0,1.578-.26,1.578-.724,0-.3-.167-.446-.929-.613l-1.486-.334c-2.544-.576-3.733-1.857-3.733-4.03a4.233,4.233,0,0,1,1.486-3.4A6.235,6.235,0,0,1,509.156,0a20.2,20.2,0,0,1,4.122.52V3.992c-.576-.149-1.263-.3-2.1-.427a13.293,13.293,0,0,0-1.968-.186c-.91,0-1.43.26-1.43.724,0,.279.241.464.743.594l1.727.409c2.526.594,3.7,1.894,3.7,4.1a4.058,4.058,0,0,1-1.541,3.343,6.6,6.6,0,0,1-4.234,1.226,15.992,15.992,0,0,1-4.4-.557" transform="translate(-478.99)" fill="#061ab1"/>
  </g>
</svg>
