<svg xmlns="http://www.w3.org/2000/svg" xmlns:xlink="http://www.w3.org/1999/xlink" width="76.989" height="84.626" viewBox="0 0 76.989 84.626">
  <defs>
    <clipPath id="clip-path">
      <rect id="Rectangle_91" data-name="Rectangle 91" width="76.989" height="84.626" transform="translate(0 0)" fill="#003250"/>
    </clipPath>
  </defs>
  <g id="peugeot" transform="translate(0 -0.003)">
    <g id="Group_250" data-name="Group 250" transform="translate(0 0.003)" clip-path="url(#clip-path)">
      <path id="Path_1380" data-name="Path 1380" d="M54.444,13.4q2.072.166,4.147.307c.413.027.56-.121.577-.539.015-.372,0-.745,0-1.118s.01-.745,0-1.118c-.016-.45-.146-.612-.577-.65q-2.071-.182-4.145-.329c-.382-.027-.561.118-.571.49q-.034,1.21,0,2.421c.011.351.194.506.565.536m-40.1-1.49c.008-.207.007-.414,0-.621-.017-.512-.145-.634-.637-.584q-1.142.114-2.282.247c-.672.079-1.343.171-2.039.26v1.838l1.241-.138c1.048-.118,2.1-.228,3.143-.358.459-.057.556-.185.574-.644M73.727,6.129a212.1,212.1,0,0,0-70.448,0c-.016.254-.035.457-.04.661C3.19,8.84,3.127,10.894,3.1,12.949a143.065,143.065,0,0,0,.478,15.492,89.81,89.81,0,0,0,1.78,11.43,61.546,61.546,0,0,0,5.119,14.454,59.324,59.324,0,0,0,27.47,26.76,1.116,1.116,0,0,0,1.1-.006A60.612,60.612,0,0,0,55.587,69.37a58.328,58.328,0,0,0,15.18-26.135A92.226,92.226,0,0,0,73.853,20.6c.073-2.947.035-5.9.013-8.844-.013-1.846-.089-3.692-.14-5.622M52.984,10.182c.026-.658.365-.958,1.025-1.025a4.02,4.02,0,0,1,.682-.015q1.891.132,3.78.283a2.8,2.8,0,0,1,.606.124,1.254,1.254,0,0,1,.98,1.276c0,.041,0,.083,0,.124q0,.591,0,1.181h0c0,.456.017.913,0,1.368a.964.964,0,0,1-1.009,1.032,13.173,13.173,0,0,1-1.489-.041c-.909-.059-1.818-.132-2.726-.208a5.87,5.87,0,0,1-.859-.124,1.092,1.092,0,0,1-.979-1.118c-.042-.951-.042-1.907,0-2.859M44.233,8.667c2.2,0,4.343.128,6.521.234v.821l-5.6-.2v1.227l4.966.2v.812c-.811.075-1.63-.07-2.448-.075s-1.649,0-2.513,0v1.272l5.6.23.038.84-6.561-.251c-.009-1.691,0-3.358,0-5.108M35.158,9.743a1.086,1.086,0,0,1,1.014-1.085,3.446,3.446,0,0,1,.678-.08c1.494,0,2.988,0,4.483.01.1,0,.2.02.337.035v.813h-.68c-1.37,0-2.739-.011-4.109-.006-.757,0-.855.11-.858.872,0,.644-.011,1.287,0,1.93.011.469.18.652.636.655,1.451.011,2.9,0,4.434,0V11.543H38.5v-.827h3.526c.048.988.031,1.969.006,2.993-.224.017-.4.043-.583.042q-2.272-.005-4.545-.022a5.023,5.023,0,0,1-.8-.07.994.994,0,0,1-.943-.993c-.041-.973-.045-1.951,0-2.924m-9.2-.813.923-.048v2.1c0,.519-.008,1.038,0,1.557.01.484.124.615.583.6q1.96-.059,3.919-.157c.513-.026.613-.145.618-.655.009-1,0-1.993,0-2.99,0-.2.019-.4.031-.636H32.9c.012.184.03.344.031.5,0,1.017.008,2.035,0,3.052-.009,1.091-.35,1.48-1.422,1.543-1.326.077-2.654.109-3.981.161-.041,0-.083,0-.125,0-1.064-.038-1.421-.386-1.436-1.441-.013-.955,0-1.91,0-2.865V8.931m-.636,15.9A32.067,32.067,0,0,0,29,22.064a5.761,5.761,0,0,0,1.532-1.776,1.408,1.408,0,0,1,1.281-.811,94.765,94.765,0,0,1,10.634-.241c1.265.047,2.528.117,3.793.168a4.883,4.883,0,0,1,1.861.445c2.739,1.252,5.367,2.714,7.985,4.194a1.284,1.284,0,0,1,.258.172c1.122,1.069,2.242,2.141,3.45,3.3a1.94,1.94,0,0,1-1.273-.329c-1.637-.979-3.275-1.958-4.939-2.891a3.78,3.78,0,0,0-1.356-.388c-.781-.1-1.574-.09-2.357-.178a4.377,4.377,0,0,1-1.188-.317c-.956-.4-1.9-.838-2.837-1.273a4.037,4.037,0,0,0-1.936-.347c-1.886.091-3.773.155-5.659.223-.323.012-.647-.017-.971-.026l-.013-.178c3.213-.456,6.446-.724,9.691-1.009a2.057,2.057,0,0,0-1.236-.387c-2.614.011-5.228.02-7.842.057-1.037.014-2.072.119-3.108.142a3.972,3.972,0,0,0-1.837.5q-3.311,1.792-6.627,3.573c-.526.284-1.046.58-1.644.913a1.266,1.266,0,0,1,.664-.764m17.318,7.23c.263,1.215.516,2.432.771,3.648.025.118.039.238.072.445a1.513,1.513,0,0,1-.768-.924c-.376-1.25-.757-2.5-1.157-3.74a.84.84,0,0,1,.164-.859q.733-.927,1.425-1.886a1.2,1.2,0,0,0-.5-1.7,1.384,1.384,0,0,0-1.136-.031c-1.052.437-2.132.807-3.18,1.25a2.26,2.26,0,0,1-1.506.152c-.358-.092-.727-.139-1.089-.205a1.476,1.476,0,0,1,1.227-1.422c1.7-.347,3.416-.662,5.118-1.026a2.3,2.3,0,0,1,1.636.42.568.568,0,0,1,.184.24.9.9,0,0,1,.067.238c.454,2.129.465,1.647-.548,3.291a5.8,5.8,0,0,1-.553.826,1.33,1.33,0,0,0-.225,1.286M24.734,27.721a14.663,14.663,0,0,1,1.138-1.4,3.045,3.045,0,0,1,.9-.729c1.392-.637,2.8-1.25,4.218-1.819a6.3,6.3,0,0,1,2.634-.181,1.007,1.007,0,0,1-.045.249c-.651,1.131-1.289,2.27-1.972,3.382a1.324,1.324,0,0,1-.676.493c-1.257.418-2.525.8-3.792,1.188a13.581,13.581,0,0,1-3.022.3c-.445.033-.9.006-1.343.006l-.047-.146a4.555,4.555,0,0,1,.6-.284,2.685,2.685,0,0,0,1.406-1.06m-1.679,3.341.053-1.159,1.051-.055c.33.865.133,1.083-1.1,1.215M17.286,9.51l6.456-.49c.019.2.039.313.04.431s-.02.243-.035.415l-5.548.421v1.226l4.929-.355v.836l-4.937.382v1.339l5.569-.387v.831l-6.473.493ZM9.343,13.918V15.5l-.865.1V10.478c.719-.094,1.43-.2,2.143-.277q1.511-.173,3.026-.319a2.847,2.847,0,0,1,.678.024.924.924,0,0,1,.865.842,7.308,7.308,0,0,1-.01,1.6,1.117,1.117,0,0,1-.947.953c-.5.111-1.019.167-1.531.229-1.088.131-2.177.251-3.358.385M15.378,41.66a2.54,2.54,0,0,1-.586-.367c-.544-.626-1.075-1.265-1.582-1.921-.261-.339-.238-.491.047-.829.4-.476.8-.954,1.241-1.4a2.593,2.593,0,0,0,.673-1.788c-.159.141-.387.253-.464.43a3.008,3.008,0,0,1-1.147,1.2c-.3.218-.6.434-.893.642-.587-.4-.7-.944-.268-1.418a9.309,9.309,0,0,1,1.167-1.118c1.491-1.159,3.009-2.284,4.5-3.439a3.9,3.9,0,0,0,.878-.863,8.284,8.284,0,0,1,3.07-2.752c.713-.378,1.393-.82,2.162-1.277a.689.689,0,0,1-.356.511c-.507.4-1.015.792-1.532,1.175a.893.893,0,0,0-.4.667c-.039.392-.151.778-.169,1.169a.664.664,0,0,1-.539.658c-.432.146-.85.335-1.282.48a2.762,2.762,0,0,0-1.084.793c.232-.026.359-.028.481-.055.445-.1.885-.228,1.334-.3a1.2,1.2,0,0,1,.656.047,1.6,1.6,0,0,0,1.091.056c.3-.074.6-.161.908-.217a5.022,5.022,0,0,0,2.582-1.14.332.332,0,0,1,.226-.072,2.7,2.7,0,0,1-1.439,1.323q-3.144,1.187-6.285,2.38a2.7,2.7,0,0,0-.408.15,5.278,5.278,0,0,0-.469.341l.045.121a11.542,11.542,0,0,0,1.339.114,2.2,2.2,0,0,1,1.847.838c.4.474.865.9,1.3,1.346.139.146.26.308.452.538-.808.147-1.534.27-2.256.411-1.2.235-2.4.5-3.6.713a.863.863,0,0,0-.771.763c-.138.669-.3,1.333-.47,2.095m10.191.9.138.136c-.565.788-1.128,1.578-1.7,2.362a.67.67,0,0,1-.286.231c-.732.267-1.469.52-2.2.777l-.058-.116,4.109-3.39m-8.185.476a4.492,4.492,0,0,1-.116.434l-1.223-1.407a2.215,2.215,0,0,1,1.633-1.1c-.108.771-.2,1.424-.293,2.075m3.579,9.01c-.394.09-.514-.007-.62-.416-.15-.582-.26-1.175-.42-1.754a14.8,14.8,0,0,0-.652-2.072,4.293,4.293,0,0,1-.167-2.2c.167.115.284.183.385.268.3.253.6.508.9.773a.724.724,0,0,0,.795.165c.9-.31,1.817-.582,2.712-.911a1.7,1.7,0,0,0,.682-.511,22.026,22.026,0,0,0,2.41-3.622,1.065,1.065,0,0,0-.634-1.632c-.991-.37-1.989-.72-2.982-1.082-.186-.068-.367-.148-.551-.223l.024-.127a4.191,4.191,0,0,1,.757.043c1.311.311,2.615.652,3.926.965a1.611,1.611,0,0,1,1.094,1.171.72.72,0,0,1-.088.528c-.909,1.631-1.833,3.253-2.755,4.877a1.3,1.3,0,0,1-.789.565c-1.258.423-2.512.856-3.767,1.286-.57.2-.6.236-.5.792.1.613.209,1.227.331,1.837.085.427.163.486.595.408.489-.088.971-.217,1.457-.322a.688.688,0,0,1,.461.052,3.562,3.562,0,0,1-.8.626,12.436,12.436,0,0,1-1.79.516M36.409,71.974a2.775,2.775,0,0,1-.361-.118c-.355-.17-.7-.373-1.059-.524a8.477,8.477,0,0,1-2.863-2.147,94.8,94.8,0,0,1-7.439-8.863c-.43-.584-.813-1.2-1.21-1.81a2.094,2.094,0,0,1-.334-1.423c.132-1.154.262-2.307.38-3.462a2.976,2.976,0,0,1,.773-1.658,106.327,106.327,0,0,0,7.645-10.13c.32-.484.6-.994.911-1.485a2.039,2.039,0,0,0,.309-1.367c-.076-.659-.162-1.317-.224-1.977-.045-.486-.059-.976-.087-1.464l.22-.016c.308,1.245.621,2.489.919,3.737a1.781,1.781,0,0,1-.2,1.145c-.981,2.219-1.921,4.457-2.952,6.652-1.336,2.847-.877,2.084-2.938,4.177-.713.724-1.451,1.425-2.195,2.118a1.825,1.825,0,0,0-.632,1.111c-.106.822-.189,1.648-.278,2.473a2.014,2.014,0,0,0,.318,1.306c.427.687.838,1.386,1.3,2.048a99.928,99.928,0,0,0,7.1,8.976,9.773,9.773,0,0,0,2.3,1.979,4.361,4.361,0,0,1,.664.6l-.076.118m3.207.509c-.08-.116-.169-.226-.238-.348a115.506,115.506,0,0,1-5.3-10.5,3.669,3.669,0,0,1-.2-2.529c.849-3.236,1.919-6.4,3.059-9.539.368-1.014.763-2.019,1.149-3.026a1.9,1.9,0,0,1,.278-.5,5.082,5.082,0,0,1,.305,2.149C38,51.5,37.313,54.813,36.682,58.134c-.236,1.241-.372,2.505-.488,3.765a3.181,3.181,0,0,0,.194,1.339c.691,1.89,1.422,3.765,2.149,5.641.232.6.472,1.2.755,1.776a3.592,3.592,0,0,1,.325,1.829m17.493-23.64A43.115,43.115,0,0,1,55.95,56.4a2.5,2.5,0,0,1-.932,1.408c-3.36,2.744-6.7,5.514-10.046,8.274a5.635,5.635,0,0,0-1.4,1.726c-.369.693-.766,1.371-1.214,2.168-.135-.28-.223-.44-.292-.607-.415-1.018-.807-2.046-1.244-3.054a1.959,1.959,0,0,1-.027-1.566c.389-1.006.747-2.024,1.159-3.02.57-1.38,1.177-2.745,1.772-4.116.078-.18.176-.351.264-.526l.125.051c-.056.236-.106.473-.17.707-.471,1.72-.916,3.448-1.427,5.156a6.621,6.621,0,0,0,.387,4.372c.043-.024.1-.034.111-.064a7.2,7.2,0,0,1,1.946-2.319q4.512-3.922,9.048-7.815a2.171,2.171,0,0,0,.836-1.514,59.03,59.03,0,0,0,.2-9.638,3.545,3.545,0,0,0-.656-1.854,23.5,23.5,0,0,0-2.876-3.351,2.1,2.1,0,0,1-.619-1.119c-.377-1.828-.779-3.651-1.169-5.477-.033-.156-.043-.317-.068-.513a1.59,1.59,0,0,1,.953.5,60.708,60.708,0,0,1,5.89,7.159,2.656,2.656,0,0,1,.477,1.261,37.073,37.073,0,0,1,.132,6.218M63.272,41.3a2.1,2.1,0,0,1-.208.71,46.076,46.076,0,0,1-4.4,7.441,1.562,1.562,0,0,1-.491.456,7.372,7.372,0,0,0,.051-1,2.027,2.027,0,0,1,1.056-2.057,1.85,1.85,0,0,0,.583-.711c.647-1.207,1.264-2.429,1.9-3.643a4.8,4.8,0,0,0,.516-3.013c-.26-1.723-.493-3.45-.742-5.174-.024-.164-.081-.322-.111-.485a1.3,1.3,0,0,0-.829-1.011c-.841-.356-1.688-.7-2.514-1.085a6.781,6.781,0,0,1-1.272-.759c-1.264-.979-2.509-1.982-3.749-2.99a1.756,1.756,0,0,0-1.738-.366c-.554.169-1.144.231-1.688.425a4.851,4.851,0,0,1-2.249.041,5.1,5.1,0,0,1,.451-.263c1.391-.6,2.787-1.185,4.175-1.791a2.036,2.036,0,0,1,1.792.061,57.009,57.009,0,0,1,8.481,4.961,1.479,1.479,0,0,1,.634,1.016,33.921,33.921,0,0,1,.349,9.244m5.245-30-2.912-.309v4.276l-.934-.124V10.875l-2.961-.335V9.7l6.807.757Zm8.217-7.575a3.817,3.817,0,0,0-.058-.4A222.954,222.954,0,0,0,34.407.042,224.626,224.626,0,0,0,.285,3.33c-.017.225-.039.408-.044.591C.16,7.345.043,10.769.008,14.194A125.521,125.521,0,0,0,1.093,33.013,77.334,77.334,0,0,0,3.748,45.286C9.4,63.416,21,76.36,38.058,84.52a.919.919,0,0,0,.873,0A63.263,63.263,0,0,0,47,80.08,62.392,62.392,0,0,0,70.825,51.944a74,74,0,0,0,5.034-18.7,118.882,118.882,0,0,0,1.106-14.956c.081-4.859-.062-9.715-.231-14.57M75.307,19.147a105.1,105.1,0,0,1-1.055,14.337,70.05,70.05,0,0,1-5.65,19.8A60.153,60.153,0,0,1,47.734,77.7a60.455,60.455,0,0,1-8.7,4.965,1.109,1.109,0,0,1-1.052.024A61.014,61.014,0,0,1,9.643,55.839,63.168,63.168,0,0,1,3.736,39.172a91.6,91.6,0,0,1-1.65-11.39,151.12,151.12,0,0,1-.372-17.053q.072-2.522.136-5.043c.006-.227,0-.454,0-.769a212.954,212.954,0,0,1,73.243,0c.036.875.09,1.7.1,2.527.048,3.9.134,7.806.112,11.709" transform="translate(0 -0.003)" fill="#003250"/>
    </g>
  </g>
</svg>
