<svg xmlns="http://www.w3.org/2000/svg" width="36" height="36" viewBox="0 0 36 36">
  <path id="Path_65" data-name="Path 65" d="M0,264.7H0a18,18,0,0,0,18,18h0a18,18,0,0,0,0-36h0a18,18,0,0,0-18,18m23.574,5.905a2.978,2.978,0,0,1-2.872,2.3,4.553,4.553,0,0,1-.774-.119c-4.648-1.207-9.073-7.965-8.2-12.712.623-2.491,2.377-3.112,2.867-3.154a3.071,3.071,0,0,1,1.278.371.665.665,0,0,1,.348.512c.156,1.262.185,1.752.28,2.706a1.648,1.648,0,0,1-.952,1.655c-.294.136-.569.264-.694.329-.36.2.227,4.135,3.424,6.231a.462.462,0,0,0,.5,0c.5-.315.984-.653,1.478-.972a.672.672,0,0,1,.79.05c1.014.835,1.263,1.2,2.279,2.038a.633.633,0,0,1,.251.761" transform="translate(0 -246.702)" fill="#94d7ff"/>
</svg>
