<svg xmlns="http://www.w3.org/2000/svg" xmlns:xlink="http://www.w3.org/1999/xlink" width="36" height="36" viewBox="0 46.86 35.94 36.8">
  <defs>
    <clipPath id="clip-path">
      <rect id="Rectangle_24" data-name="Rectangle 24" width="36" height="83.666" fill="#ff5104"/>
    </clipPath>
  </defs>
  <g id="Group_65" data-name="Group 65" clip-path="url(#clip-path)">
    <path id="tel" d="M0,265.1H0a18.2,18.2,0,0,0,18,18.4h0a18.406,18.406,0,0,0,0-36.8h0A18.2,18.2,0,0,0,0,265.1m23.574,6.037A3,3,0,0,1,20.7,273.5a4.463,4.463,0,0,1-.774-.122c-4.648-1.234-9.073-8.142-8.2-13,.623-2.546,2.377-3.181,2.867-3.225a3.02,3.02,0,0,1,1.278.379.68.68,0,0,1,.348.524c.156,1.29.185,1.791.28,2.766a1.691,1.691,0,0,1-.952,1.692c-.294.139-.569.27-.694.336-.36.2.227,4.228,3.424,6.37a.453.453,0,0,0,.5,0c.5-.322.984-.667,1.478-.994a.661.661,0,0,1,.79.051c1.014.854,1.263,1.229,2.279,2.084a.655.655,0,0,1,.251.778" transform="translate(0 -199.839)" fill="#ff5104"/>
  </g>
</svg>
