<svg id="phone" xmlns="http://www.w3.org/2000/svg" width="17.089" height="17.578" viewBox="0 0 17.089 17.578">
  <path id="Path_128" data-name="Path 128" d="M22.278,2.3A7.81,7.81,0,0,0,16.718,0a.623.623,0,1,0,0,1.246,6.616,6.616,0,0,1,6.617,6.617.623.623,0,1,0,1.246,0,7.809,7.809,0,0,0-2.3-5.56" transform="translate(-7.492 0)" fill="#ff5104"/>
  <path id="Path_129" data-name="Path 129" d="M19.715,10.652a.623.623,0,1,0,1.246,0,4.248,4.248,0,0,0-4.243-4.243.623.623,0,1,0,0,1.246,3,3,0,0,1,3,3" transform="translate(-7.492 -2.789)" fill="#ff5104"/>
  <path id="Path_130" data-name="Path 130" d="M11.707,13.077a1.88,1.88,0,0,0-1.665,1,.623.623,0,0,0,1.028.7c.274-.4.4-.464.567-.456a8.034,8.034,0,0,1,2.875,2.106.644.644,0,0,1-.006.455,2.148,2.148,0,0,1-1.067,1.345,2,2,0,0,1-1.6-.054,17.615,17.615,0,0,1-5.776-3.76l0,0A17.6,17.6,0,0,1,2.307,8.641a2,2,0,0,1-.054-1.6A2.148,2.148,0,0,1,3.6,5.972a.643.643,0,0,1,.453-.007,8.044,8.044,0,0,1,2.108,2.87c.009.175-.055.3-.455.572a.623.623,0,1,0,.7,1.029,1.881,1.881,0,0,0,1-1.667A7.63,7.63,0,0,0,4.487,4.8,1.885,1.885,0,0,0,3.2,4.791,3.354,3.354,0,0,0,1.12,6.52a3.208,3.208,0,0,0,.033,2.591,18.845,18.845,0,0,0,4.028,6.181l.013.012a18.847,18.847,0,0,0,6.174,4.021,3.7,3.7,0,0,0,1.391.29,2.853,2.853,0,0,0,1.2-.258,3.347,3.347,0,0,0,1.729-2.08,1.883,1.883,0,0,0-.006-1.284,7.624,7.624,0,0,0-3.974-2.918" transform="translate(-0.863 -2.038)" fill="#ff5104"/>
</svg>
