<svg xmlns="http://www.w3.org/2000/svg" width="18.8" height="18.8" viewBox="0 0 18.8 18.8">
  <g id="dostupnost" transform="translate(-1298.033 -63.087)">
    <circle id="Ellipse_1" data-name="Ellipse 1" cx="9.4" cy="9.4" r="9.4" transform="translate(1298.033 63.087)" fill="#34b000"/>
    <path id="Path_1537" data-name="Path 1537" d="M-3.276-7.154h1.848A1.226,1.226,0,0,1-.07-8.47,1.225,1.225,0,0,1,1.26-7.154C1.274-5.894.182-5.628-1.274-5.628H-1.9l.07,2.38H-.112l.056-1.078c1.862,0,3.22-.924,3.22-2.814S1.834-10.108-.07-10.108A2.881,2.881,0,0,0-3.276-7.154ZM.21-1.05A1.146,1.146,0,0,0-.98-2.2,1.153,1.153,0,0,0-2.2-1.05,1.153,1.153,0,0,0-.98.1,1.146,1.146,0,0,0,.21-1.05Z" transform="translate(1307.309 77.195)" fill="#fff"/>
  </g>
</svg>
