<svg xmlns="http://www.w3.org/2000/svg" width="6" height="6" viewBox="0 0 6 6">
  <g id="Group_567" data-name="Group 567" transform="translate(-360.601 -1370)">
    <path id="Rectangle_62" data-name="Rectangle 62" d="M0,0H6A0,0,0,0,1,6,0V6A0,0,0,0,1,6,6H5A5,5,0,0,1,0,1V0A0,0,0,0,1,0,0Z" transform="translate(360.601 1370)" fill="#540000"/>
    <path id="Intersection_1" data-name="Intersection 1" d="M0,1V0H4.91A5.01,5.01,0,0,0,.417,3,4.983,4.983,0,0,1,0,1Z" transform="translate(360.601 1370)" fill="#dc0000"/>
  </g>
</svg>
