<svg xmlns="http://www.w3.org/2000/svg" width="8" height="8" viewBox="0 0 8 8">
  <g id="Group_398" data-name="Group 398" transform="translate(-1374.5 -33.5)">
    <path id="Line_103" data-name="Line 103" d="M6,7a1,1,0,0,1-.707-.293l-6-6a1,1,0,0,1,0-1.414,1,1,0,0,1,1.414,0l6,6A1,1,0,0,1,6,7Z" transform="translate(1375.5 34.5)" fill="#ff5104"/>
    <path id="Line_104" data-name="Line 104" d="M6,7a1,1,0,0,1-.707-.293l-6-6a1,1,0,0,1,0-1.414,1,1,0,0,1,1.414,0l6,6A1,1,0,0,1,6,7Z" transform="translate(1381.5 34.5) rotate(90)" fill="#ff5104"/>
  </g>
</svg>
