<svg xmlns="http://www.w3.org/2000/svg" xmlns:xlink="http://www.w3.org/1999/xlink" width="176.899" height="179.371" viewBox="0 0 176.899 179.371">
  <defs>
    <clipPath id="clip-path">
      <rect id="Rectangle_10" data-name="Rectangle 10" width="176.899" height="179.371" fill="none"/>
    </clipPath>
  </defs>
  <g id="Group_530" data-name="Group 530" opacity="0.1">
    <g id="Group_16" data-name="Group 16" clip-path="url(#clip-path)">
      <path id="Path_49" data-name="Path 49" d="M129.008,63.886A55.976,55.976,0,1,0,184.984,7.91a55.976,55.976,0,0,0-55.976,55.976" transform="translate(-123.492 -4.266)" fill="#fff"/>
      <path id="Path_50" data-name="Path 50" d="M173.924,71.261c0-27.365-19.339-50.144-44.916-55.065a54.829,54.829,0,0,1,10.365-.987c30.531,0,55.279,25.095,55.279,56.052s-24.748,56.052-55.279,56.052a54.83,54.83,0,0,1-10.365-.987c25.575-4.919,44.916-27.7,44.916-55.065" transform="translate(-77.184 -8.203)" fill="#dbf4ff"/>
      <path id="Path_51" data-name="Path 51" d="M176.2,126.116c34.292,0,62.189-28.287,62.189-63.058S210.489,0,176.2,0s-62.189,28.288-62.189,63.058,27.9,63.058,62.189,63.058m0-112.1c26.671,0,48.369,22,48.369,49.045S202.868,112.1,176.2,112.1s-48.369-22-48.369-49.045,21.7-49.045,48.369-49.045" transform="translate(-114.008)" fill="#006fb0"/>
      <path id="Path_53" data-name="Path 53" d="M11.5,29.163V5.833A5.793,5.793,0,0,0,5.752,0,5.793,5.793,0,0,0,0,5.833v23.33A5.794,5.794,0,0,0,5.752,35,5.794,5.794,0,0,0,11.5,29.163" transform="translate(45.929 46.447) rotate(-45)" fill="#ff5104"/>
      <path id="Path_70" data-name="Path 70" d="M11.5,29.163V5.833A5.793,5.793,0,0,0,5.752,0,5.793,5.793,0,0,0,0,5.833v23.33A5.794,5.794,0,0,0,5.752,35,5.794,5.794,0,0,0,11.5,29.163" transform="translate(70.675 54.923) rotate(45)" fill="#ff5104"/>
      <path id="Path_54" data-name="Path 54" d="M67.522,295.836a21.215,21.215,0,0,0,0-29.726L31.341,229.422a6.846,6.846,0,0,0-9.773,0,7.079,7.079,0,0,0,0,9.91L57.751,276.02a7.073,7.073,0,0,1,0,9.908,6.837,6.837,0,0,1-9.771,0L11.8,249.239a6.843,6.843,0,0,0-9.771,0,7.076,7.076,0,0,0,0,9.91l36.181,36.686a20.516,20.516,0,0,0,29.316,0" transform="translate(103.301 -122.626)" fill="#006fb0"/>
    </g>
  </g>
</svg>
