<svg xmlns="http://www.w3.org/2000/svg" xmlns:xlink="http://www.w3.org/1999/xlink" width="144.751" height="24.731" viewBox="0 0 144.751 24.731">
  <defs>
    <clipPath id="clip-path">
      <rect id="Rectangle_93" data-name="Rectangle 93" width="144.751" height="24.731" fill="#003250"/>
    </clipPath>
  </defs>
  <g id="Group_256" data-name="Group 256" transform="translate(0 0)">
    <path id="Path_1393" data-name="Path 1393" d="M99.344,4.934l-3.129,9.093L93.086,4.934H86.813V20.12h4.554V12.153l2.742,7.967h4.213l3.008-8.742V20.12h4.554V4.934Zm-18.128.03-3.563,4.65-3.564-4.65L69.5,4.936l0,0h-.269l-.637,0,0,0H62.168L56.013,9.379V4.934H51.7V20.12h4.316V14.679L58.82,12.65l4.255,7.469h5.767L62.907,9.7l6.017-4.346,6.459,8.43V20.12h4.562V13.8L86.7,4.93Zm34.2-.362-.928.123-.9.2-.861.273-.821.343-.774.406-.725.469-.668.525-.61.579-.544.627-.474.674-.4.715-.32.751-.236.785-.144.815-.049.836.049.838.144.813.236.785.32.753.4.715.474.673.544.628.61.578.668.525.725.468.774.407.821.342.861.273.9.2.928.123.955.042.815-.03.8-.09.773-.146.749-.2.722-.251.691-.3.658-.348.622-.393.582-.433.54-.474.495-.511.446-.546.4-.578.341-.609.283-.636.355-1.053h-5.01l-.247.388-.168.226-.186.217-.2.205-.219.194-.235.18-.248.168-.263.152-.276.138-.287.122-.3.106-.308.087-.318.069-.325.051-.334.03-.339.01-.479-.02-.462-.061-.447-.1-.427-.135-.408-.166-.382-.2-.357-.228-.328-.255-.3-.278-.264-.3-.229-.322-.193-.34-.153-.356-.111-.369-.069-.381-.023-.395.023-.393.069-.382.111-.37.153-.355.192-.339.23-.322.264-.3.3-.279.328-.255.357-.227.383-.2.407-.169L114.986,9l.447-.1.463-.061.479-.021.325.009.322.029.315.048.307.064.3.082.29.1.278.114.269.128.256.143.245.157.231.169.217.18.2.194.189.2.17.212.254.364H125.6l-.378-1.045-.292-.621-.348-.593-.4-.565-.448-.531-.5-.5-.538-.461-.578-.424-.618-.382-.651-.339-.684-.293-.712-.245-.74-.2-.763-.142-.784-.086-.8-.03Zm19.451,12-.462-.061-.446-.1-.427-.135-.407-.166-.384-.2-.357-.228-.328-.255-.3-.278-.264-.3-.23-.322-.193-.34-.153-.356-.112-.369-.068-.381-.023-.395.023-.393.068-.382.112-.37.153-.355.193-.339.23-.322.264-.3.3-.279.328-.255.357-.227.384-.2.407-.169L133.959,9l.446-.1.462-.061.478-.021.476.021.462.061.446.1.428.133.407.169.383.2.357.228.329.254.3.279.265.3.229.322.194.339.152.355.112.37.069.382.023.393-.023.394-.069.382-.112.369-.152.356-.194.34-.229.322-.264.3-.3.278-.329.255-.357.228-.383.2-.407.166-.428.135-.446.1-.462.061-.476.02Zm-.478-12-.929.123-.9.2L131.7,5.2l-.82.343-.775.406-.724.469-.669.525-.609.579-.544.627-.475.674-.4.715-.32.751-.235.785-.145.815-.048.836.048.838.145.813.235.785.32.753.4.715.475.673.544.628.609.578.669.525.724.468.775.407.82.342.861.273.9.2.929.123.955.042.954-.042.929-.123.9-.2.862-.273.82-.342.775-.407.724-.468.67-.525.609-.578.544-.628.474-.673.4-.715.32-.753.235-.785.145-.813.049-.838-.049-.836-.145-.815-.235-.785L144,9.534l-.4-.715-.474-.674-.544-.627-.609-.579-.67-.525-.724-.469-.775-.406-.82-.343-.862-.273-.9-.2L136.3,4.6l-.954-.042ZM22.128,22.192l-.469-.008-.465-.013-.464-.021-.46-.025-.456-.03-.454-.035-.45-.041-.447-.046-.441-.051-.44-.056-.435-.062-.43-.066-.428-.071-.422-.076-.17-.032V16.4l.2.287.25.325.269.317.288.308.306.3.325.292.342.281.358.272.375.263.391.253.405.242.42.232.435.221.448.21.462.2.474.186.486.175.5.163.509.151.521.137.53.124.54.111.549.1.558.083.565.068.575.055.581.038.588.023h.032l-.141.02-.314.044-.315.04-.318.038-.32.035-.321.033-.324.03-.325.026-.328.023-.329.022-.331.019-.331.016-.334.012-.335.011-.336.007-.338,0-.34,0Zm9.548-2.916-.523-.026-.516-.041-.508-.059-.5-.074-.489-.09-.478-.1-.468-.12-.456-.133-.443-.147-.431-.16-.417-.173-.4-.184-.388-.2-.371-.208-.356-.218-.337-.227-.32-.238-.3-.247-.282-.255-.263-.264-.243-.271-.222-.278-.2-.285-.178-.291-.156-.3-.133-.3-.11-.306L22.1,13.77l-.063-.315L22,13.135l-.012-.324L22,12.488l.038-.32.063-.315.087-.311.11-.306.133-.3.156-.3.178-.291.2-.284.222-.278.243-.271.263-.264.282-.255.3-.248.32-.237.338-.229.355-.217.371-.208.388-.2.4-.184.417-.172.431-.16.443-.147.456-.133.467-.119.479-.1.489-.09.5-.076.508-.058.516-.044.523-.025.53-.01.518.009.511.025.5.04.495.056.488.071.478.086.469.1.457.113.447.128.436.14.423.152.411.164.4.176.383.188.367.2L41.216,9.3l.144.215.256.459.213.465.166.473.119.478.073.483.024.493L42.2,12.7l-.035.334-.056.33-.08.328-.1.325-.122.322-.143.319-.166.316-.186.312-.207.31-.226.306-.248.3-.266.3-.287.292-.3.287-.31.269-.339.209-.371.207-.385.2-.4.184-.418.174-.431.16-.443.147-.455.133-.469.12-.479.105-.488.09-.5.075-.507.058-.516.042-.525.026-.531.009ZM7.756,18.76,7.171,18.4l-.552-.37L6.1,17.65l-.481-.394-.444-.405-.406-.414L4.4,16.011l-.326-.433-.286-.439-.244-.448-.2-.454-.157-.46-.114-.465-.069-.471-.023-.476.025-.489.072-.484.121-.478.166-.473.212-.465.256-.459.3-.451.344-.443.387-.433L5.3,7.766l.469-.413.507-.4.544-.388L7.4,6.186l.616-.362.648-.347.683-.329.714-.315.743-.3.772-.279.8-.262.825-.241.849-.222.874-.2.9-.18.916-.157.937-.136.954-.114.972-.088.987-.064,1-.039L22.6,2.536l1.015.014,1,.039.988.064.971.088.955.114.936.136.916.157.9.18.874.2L32,3.752l.825.241.8.262.772.279.743.3.714.315.682.329.649.348.616.362.581.376.543.388.507.4.468.413.427.425.065.072-.934-.77L39.2,7.3l-.26-.191-.27-.187L38.4,6.736l-.286-.176-.292-.172-.3-.165-.307-.161L36.9,5.907l-.321-.149-.329-.142-.335-.138-.341-.132-.348-.124L34.867,5.1l-.359-.113-.365-.106-.37-.1L33.4,4.691,33.015,4.6l-.385-.079-.391-.073-.4-.065-.4-.057-.4-.051-.408-.043L30.22,4.2,29.8,4.173l-.419-.02-.423-.013-.426,0-.593.008-.588.024-.581.039-.575.054-.566.069-.558.083-.549.1-.54.11-.53.124-.521.138-.509.15-.5.163-.486.175-.474.186-.461.2-.449.21-.435.222-.42.231-.405.243-.391.251-.375.264-.358.272-.342.282-.325.291-.306.3-.288.308-.269.316-.25.325-.2.288V4.08l-.9.189-.52.118-.511.126-.5.133-.493.139-.482.147-.472.153-.462.159-.451.168-.44.172-.428.18-.418.184-.405.192-.393.2-.381.2-.521.295V18.85ZM22.6,0,21.446.016,20.308.063,19.186.141l-1.1.107L17,.384,15.931.549,14.888.74l-1.02.218-1,.245-.97.269-.942.294-.914.317-.884.341-.852.362-.82.384L6.7,3.575,5.953,4l-.712.445-.675.465-.635.482-.593.5-.55.516-.5.533-.46.549-.413.564-.363.578-.312.593-.26.606-.205.618-.149.629-.09.639L0,12.365l.03.648.09.639.149.63.205.618.26.606.312.592.363.579.413.563.46.55.506.533.55.516.593.5.635.483.675.464.712.445.75.425.786.405.82.385.852.363.884.34.914.318.942.293.97.269,1,.244,1.02.218,1.043.193L17,24.347l1.085.136,1.1.108,1.123.077,1.137.047,1.152.016,1.153-.016,1.138-.047,1.122-.077,1.1-.108,1.085-.135,1.066-.164,1.044-.193,1.02-.218,1-.244.969-.269.944-.293.913-.318.885-.34.852-.363.82-.385.784-.405.75-.425.712-.445.675-.464.635-.483.593-.5.55-.516.506-.533.46-.55.413-.563.363-.579.312-.592.259-.606.205-.618.149-.63.09-.639.03-.648-.03-.647-.09-.639-.149-.629-.205-.618-.259-.606-.312-.593-.363-.578-.413-.564-.46-.549-.506-.533-.55-.516-.593-.5L40.63,4.91l-.675-.465L39.243,4l-.75-.426-.784-.4-.82-.385-.852-.362-.885-.341-.913-.317L33.3,1.472,32.326,1.2l-1-.245L30.31.74,29.266.549,28.2.384,27.116.248l-1.1-.107L24.889.063,23.751.016Z" transform="translate(0 0)" fill="#003250"/>
    <g id="Group_255" data-name="Group 255" transform="translate(0 0)">
      <g id="Group_254" data-name="Group 254" clip-path="url(#clip-path)">
        <path id="Path_1394" data-name="Path 1394" d="M63.143,20.854V6.286h3.7v4.74L73.4,6.286h6.283l-6.049,4.369,5.81,10.2H74.391l-4.336-7.612-3.215,2.321v5.291Zm23.686,0V14.722L80.365,6.286l4.707.03,3.717,4.85,3.717-4.85,4.707-.03-6.44,8.456v6.112Zm11.429,0V6.286H104l3.349,9.733,3.35-9.733h6.01V20.854h-3.936V10.575l-3.537,10.279h-3.771l-3.271-9.5v9.5ZM146.482,5.912c5.01,0,9.1,3.528,9.1,7.852s-4.087,7.853-9.1,7.853-9.1-3.528-9.1-7.853,4.086-7.852,9.1-7.852m0,3.639c2.718,0,4.939,1.892,4.939,4.213s-2.221,4.215-4.939,4.215-4.939-1.892-4.939-4.215,2.221-4.213,4.939-4.213M127.51,5.912c4.2,0,7.754,2.482,8.79,5.834h-4.457a5.126,5.126,0,0,0-4.333-2.195c-2.718,0-4.939,1.892-4.939,4.213s2.221,4.215,4.939,4.215a5.089,5.089,0,0,0,4.425-2.346h4.411c-.976,3.428-4.57,5.984-8.835,5.984-5.01,0-9.1-3.528-9.1-7.853s4.086-7.852,9.1-7.852" transform="translate(-11.137 -1.043)" fill="#003250" fill-rule="evenodd"/>
        <path id="Path_1395" data-name="Path 1395" d="M22.665.374c12.276,0,22.289,5.416,22.289,12.057S34.941,24.488,22.665,24.488.375,19.072.375,12.431,10.388.374,22.665.374M28.6,4.511c4.489,0,8.481,1.373,10.964,3.483a14.012,14.012,0,0,0-7.3-1.9c-5.8,0-10.53,3.047-10.53,6.783s4.728,6.783,10.53,6.783a13.9,13.9,0,0,0,7.442-1.995,6.977,6.977,0,0,0,2.874-5.233c0-5.584-8.95-10.138-19.924-10.138S2.741,6.847,2.741,12.431c0,2.716,2.118,5.187,5.555,7.01V7.082a23.484,23.484,0,0,1,7.157-2.554v6.3C17.016,7.2,22.325,4.511,28.6,4.511M32.7,21.183a21.033,21.033,0,0,1-4.093.4c-6.279,0-11.588-2.689-13.151-6.322V21.88a37.159,37.159,0,0,0,7.212.689A35.443,35.443,0,0,0,32.7,21.183" transform="translate(-0.066 -0.066)" fill="#003250" fill-rule="evenodd"/>
      </g>
    </g>
  </g>
</svg>
