<svg xmlns="http://www.w3.org/2000/svg" width="205.612" height="204.409" viewBox="0 0 205.612 204.409">
  <g id="Group_491" data-name="Group 491" transform="translate(-1269.411 -6604.354)">
    <g id="Group_212" data-name="Group 212" transform="translate(1269.411 6604.354)">
      <path id="Path_1375" data-name="Path 1375" d="M102.488,204.409a65.157,65.157,0,0,1-46.21-19.11l-35.9-35.9C8.406,137.424.9,121.484.309,104.567a64.962,64.962,0,0,1,19.1-48.556l36.868-36.87a65.351,65.351,0,0,1,92.42,0l35.9,35.9c11.97,11.97,19.477,27.913,20.064,44.83a64.976,64.976,0,0,1-19.1,48.554L148.7,185.3a65.154,65.154,0,0,1-46.21,19.11m0-196.207A57,57,0,0,0,62.06,24.92L26.033,60.949C15.562,71.421,8.994,85.367,8.48,100.168a56.834,56.834,0,0,0,16.71,42.479l36.87,36.87a57.175,57.175,0,0,0,80.857,0l36.87-36.87a57.175,57.175,0,0,0,0-80.857l-36.87-36.87A57,57,0,0,0,102.488,8.2" transform="translate(0.317 0)" fill="rgba(255,81,4,0.2)"/>
      <path id="Path_1376" data-name="Path 1376" d="M204.336,89.831l-4.207-1.579a29.114,29.114,0,0,0-7.59-1.717l-.758-2.656a8.581,8.581,0,0,0-5.209-5.585l-19.355-7.265a11.983,11.983,0,0,0-7.844-.2l-4.891,1.555a12,12,0,0,1-7.844-.2l-10.659-4a13.312,13.312,0,0,0-12.859,1.961l-4.5,3.5a4.26,4.26,0,0,0-1.472,4.55c.374,1.289,2.593,2.8,2.593,2.8.12,3.829.21,8.975-1.972,12.76-2.066,3.582-9.831,8.929-17.33,13.3-6.669,3.888-14.4,2.359-22.358.009l-7.839-2.494c-1.907-3.63-10.677-15.541,2.933-33.185L105.958,35.84s-.69-1.217-1.546-2.606L110.586,35a2.706,2.706,0,0,0,3.054-1.1,2.642,2.642,0,0,0-1.507-3.945L106.707,28.4a8.89,8.89,0,0,0,.915-1.472,1.165,1.165,0,0,0,.07-.1l5.476-11.736a28.042,28.042,0,0,0,2.344,4.135s8.023,3.13,10.591,1.964c2.23-1.013,2.87-8.656,2.87-8.656-4.8-2.2-4.93-2.256-8.075-3.715-4.489-2.079-8.232,3.27-8.232,3.27-.013.031-.017.07-.028.1a.792.792,0,0,0-.074.1L107.255,23.67l-.085-.135a10.523,10.523,0,0,1-1.463-7.35l.5-2.923c-2.8-1.051-7.94-.336-12.959,1.208a11.748,11.748,0,0,1,4.631,4.325l-14.693.146c-1.8,1.171-3.089,2.376-3.5,3.484-.144.384.175.933.771,1.562v0l8.385,8.925-1.4.734c-6.3-.356-17.631-.269-22.524,4.393l-.059.057L46.926,55.276l33.013-5.983a9.67,9.67,0,0,1-5.524,3.324L45.557,57.847a42.528,42.528,0,0,0-12.2,4.2l-6.07,3.187a2.2,2.2,0,0,0,.238,4l2.881,1.1,5.14,1.929c1.854.7,3.768,2.61,5.694,5.236A26.72,26.72,0,1,0,53.424,100.7a21.059,21.059,0,0,1-.725,16.15,37.639,37.639,0,0,1-2.759,4.725l62.43,15.043h0l1.014,1.937a21.063,21.063,0,0,0,11.264,9.96l4.17-1.638h0l3.637,1.551a26.715,26.715,0,0,0,51.852,10.165c2.759-7.726,1.214-16.264-3.163-23.2l-.024-.033,2.8-1.433a.527.527,0,0,0,.286-.467v-1.546l3.48-.638c0-2.012.771-2.012.771-4.026l-4.251-.315v-1.619a.52.52,0,0,0-.382-.507c-1.8-.5-3.857-1.048-5-1.311a76.782,76.782,0,0,0-13.167-1.767,1.281,1.281,0,0,0,.234-.6A1.314,1.314,0,0,0,164.7,119.7l-.208-.02.114-1.223.208.02a1.315,1.315,0,0,0,.245-2.619l-.21-.02.131-1.389.208.02a1.315,1.315,0,0,0,1.431-1.188l.076-.821,12.682-2.2,9.062,10.085a9.754,9.754,0,0,1,2.438,5.408l1.022,8.842,3.324,1.9-.336-13.6a1.68,1.68,0,0,1,1.881-1.71l2.414.288,1.225-2.141-.262-.205a60.133,60.133,0,0,1-7.675-7.156c4.325-1.538,6.4-4.908,5.142-7.669l-2-4.46a10.087,10.087,0,0,0-7.933-5.878l-42.1-5.34L190.7,90.058a25.487,25.487,0,0,1,8.147,1.612l4.3,1.614a1.826,1.826,0,0,0,2.433-1.363,1.893,1.893,0,0,0-1.243-2.09M28.716,91.015l3.067-5.8.024-.009A15.532,15.532,0,0,1,41.953,96.792L29.57,93.061a1.435,1.435,0,0,1-.854-2.047m-.256-6.551-7.28,10.5a1.435,1.435,0,0,1-2.21.183l-4.585-4.722A15.58,15.58,0,0,1,28.46,84.464M12.592,93.391l.076-.009,7.741,10.157a1.434,1.434,0,0,1-.511,2.156l-6.033,2.968a15.533,15.533,0,0,1-1.273-15.272m8.661,21.091a15.5,15.5,0,0,1-5.26-3.292l12.3-4.272a1.439,1.439,0,0,1,1.894,1.158l.952,6.743a15.485,15.485,0,0,1-9.886-.336m20.038-9.1a15.48,15.48,0,0,1-7.051,8.143l-.271-13.071a1.435,1.435,0,0,1,1.684-1.444l6.614,1.155a15.533,15.533,0,0,1-.976,5.216M34.45,67.368a1.644,1.644,0,0,1,.483-.389L39.646,64.5a32.576,32.576,0,0,1,5.249-2.184.774.774,0,0,1,.959.509c2.06,6.9-3.145,7.49-11.4,4.539m92.274,47.949h0l0,0Zm17.321,38.052,6.647,2.833-4.4,2.167a15.631,15.631,0,0,1-2.243-5m9.63,10.819a15.5,15.5,0,0,1-5.26-3.292l7.361-2.556a9.22,9.22,0,0,0,6.867-.306l.917,6.489a15.47,15.47,0,0,1-9.886-.336m20.038-9.1a15.493,15.493,0,0,1-7.051,8.145l-.175-8.453c.151-.225.295-.457.428-.7a9.2,9.2,0,0,0,1.1-5.308l.061-.057,6.614,1.155a15.533,15.533,0,0,1-.976,5.216m.662-8.591-8.213-2.473a8.893,8.893,0,0,0-.625-.692l5.994-3.069a15.687,15.687,0,0,1,2.844,6.234m-15.049-32.764a1.278,1.278,0,0,0,.614.242l.208.02-.129,1.389-.21-.02a1.315,1.315,0,1,0-.242,2.619l.208.02-.114,1.223-.207-.02a1.317,1.317,0,0,0-1.433,1.188,1.3,1.3,0,0,0,.454,1.09,31.394,31.394,0,0,0-10,1.894c-2.392-2.018-5.17-3.272-6.634-3.272a10.865,10.865,0,0,0-7.269,2.818l-2-1.293a22.624,22.624,0,0,1,9.833-4.963Z" transform="translate(0 9.878)" fill="#ff5104"/>
    </g>
  </g>
</svg>
