<svg id="Group_489" data-name="Group 489" xmlns="http://www.w3.org/2000/svg" xmlns:xlink="http://www.w3.org/1999/xlink" width="201.724" height="16.581" viewBox="0 0 201.724 16.581">
  <defs>
    <clipPath id="clip-path">
      <rect id="Rectangle_71" data-name="Rectangle 71" width="201.724" height="16.581" fill="#003250"/>
    </clipPath>
  </defs>
  <g id="Group_180" data-name="Group 180" transform="translate(0 0)" clip-path="url(#clip-path)">
    <path id="Path_1151" data-name="Path 1151" d="M.778,16.581a.573.573,0,0,1-.632-.656V14.369a.573.573,0,0,1,.632-.657H14.417L2.966,8.339C.486,7.172,0,5.835,0,4.085,0,1.921,1.58,0,4.716,0H22.61a.573.573,0,0,1,.656.632V2.188a.58.58,0,0,1-.656.656H9.433L20.86,8.218c2.5,1.167,2.966,2.5,2.966,4.279,0,2.164-1.58,4.085-4.693,4.085Z" transform="translate(0 0)" fill="#003250"/>
    <path id="Path_1152" data-name="Path 1152" d="M50.573,16.581a.573.573,0,0,1-.632-.656V.632A.566.566,0,0,1,50.573,0h8.363a.573.573,0,0,1,.656.632V15.925a.58.58,0,0,1-.656.656Zm20.593,0a2.182,2.182,0,0,1-1.629-.656L61.222,8.7a1.31,1.31,0,0,1-.462-1.167V6.832c0-.559.1-.754.486-.972L70.971.632A4.212,4.212,0,0,1,73.062,0h4.911c.341,0,.511.195.511.414a.46.46,0,0,1-.292.413L68.54,6.005l11.281,9.481a.791.791,0,0,1,.34.608c0,.267-.219.486-.7.486Z" transform="translate(-25.113 0)" fill="#003250"/>
    <path id="Path_1153" data-name="Path 1153" d="M118.076,16.581c-5.981,0-8.29-2.966-8.29-7.634V.632A.555.555,0,0,1,110.418,0h9.093a.565.565,0,0,1,.632.632V8.947c0,2.966,1.216,4.765,3.963,4.765h4.182c2.772,0,4.06-1.8,4.06-4.765V.632A.573.573,0,0,1,133,0h2.918a.573.573,0,0,1,.656.632V8.947c0,4.255-2.625,7.634-8.29,7.634Z" transform="translate(-55.207 0)" fill="#003250"/>
    <path id="Path_1154" data-name="Path 1154" d="M173.424,16.581c-.316,0-.462-.1-.462-.316V2.845h-6.6c-.316,0-.462-.073-.462-.267V.316c0-.219.146-.316.462-.316h22.856c.316,0,.462.1.462.316V2.577c0,.194-.146.267-.462.267H182.59v13.42c0,.219-.146.316-.438.316Z" transform="translate(-83.423 0)" fill="#003250"/>
    <path id="Path_1155" data-name="Path 1155" d="M236.4,16.581a2.13,2.13,0,0,1-1.605-.656l-7.317-7.513a1.1,1.1,0,0,1-.413-.9V6.759a.555.555,0,0,1,.632-.632h3.33c1.532,0,2.31-.608,2.31-1.653s-.779-1.629-2.31-1.629H225.6v13.08a.58.58,0,0,1-.656.656h-8.339a.58.58,0,0,1-.657-.656V.632A.573.573,0,0,1,216.609,0h21.249c2.942,0,5.154,1.727,5.154,4.231,0,2.747-2.14,4.3-4.741,4.692l6.71,6.88a.517.517,0,0,1,.17.389.4.4,0,0,1-.437.389Z" transform="translate(-108.594 0)" fill="#003250"/>
    <path id="Path_1156" data-name="Path 1156" d="M279.434,16.581a.573.573,0,0,1-.632-.656V10.139L270.074.827a.632.632,0,0,1-.22-.437A.442.442,0,0,1,270.341,0h9.8a1.439,1.439,0,0,1,1.094.486l6.467,7.1L294.434.462A1.227,1.227,0,0,1,295.5,0h1.41c.316,0,.462.171.462.365a.515.515,0,0,1-.121.316l-8.8,9.311v5.932a.58.58,0,0,1-.656.656Z" transform="translate(-135.699 0)" fill="#003250"/>
    <path id="Path_1157" data-name="Path 1157" d="M314.8,29.036a.736.736,0,0,1-.824-.824V25.574a.731.731,0,0,1,.824-.806h2.913a.723.723,0,0,1,.824.806v2.638a.728.728,0,0,1-.824.824Z" transform="translate(-157.885 -12.455)" fill="#ff5104"/>
    <path id="Path_1158" data-name="Path 1158" d="M333.551,20.717a5.936,5.936,0,0,1-6.008-6.246c0-3.59,2.4-6.247,6.008-6.247h12.474a.432.432,0,0,1,.495.477V9.873a.437.437,0,0,1-.495.495h-8.187c-1.594,0-2.162.6-2.162,2.857v2c0,2.491.66,3.334,2.162,3.334H346.1a.432.432,0,0,1,.476.495v1.172a.432.432,0,0,1-.476.495Z" transform="translate(-164.708 -4.136)" fill="#ff5104"/>
    <path id="Path_1159" data-name="Path 1159" d="M368.663,20.717a.432.432,0,0,1-.476-.495V19.05a.961.961,0,0,1,.4-.879l8.975-7.8h-8.518a.437.437,0,0,1-.495-.495V8.7a.432.432,0,0,1,.495-.477h17.108a.426.426,0,0,1,.476.477V9.873a.975.975,0,0,1-.4.9l-8.317,7.785h8.463a.437.437,0,0,1,.495.495v1.172a.437.437,0,0,1-.495.495Z" transform="translate(-185.146 -4.136)" fill="#ff5104"/>
  </g>
</svg>
